<svg xmlns="http://www.w3.org/2000/svg" xmlns:xlink="http://www.w3.org/1999/xlink" width="66" height="66" viewBox="0 0 66 66"><defs><linearGradient id="a" x1="0.126" y1="-0.067" x2="0.784" y2="1.092" gradientUnits="objectBoundingBox"><stop offset="0" stop-color="#01beba"/><stop offset="1" stop-color="#1dd45e"/></linearGradient></defs><g transform="translate(7.938 7.902)"><circle cx="25" cy="25" r="25" transform="translate(0.062 0.098)" fill="url(#a)"/><path d="M25,0A25,25,0,1,0,50,25,25,25,0,0,0,25,0m0-8A33,33,0,1,1-8,25,33.037,33.037,0,0,1,25-8Z" transform="translate(0.062 0.098)" fill="rgba(29,212,94,0.15)"/><path d="M11.344,12.331H8L10.627,8h6.527V24.92L29.652,8h6.767L18.826,33.261H11.344Z" transform="translate(4.632 4.633)" fill="#07101a" fill-rule="evenodd"/></g></svg>