<svg xmlns="http://www.w3.org/2000/svg" xmlns:xlink="http://www.w3.org/1999/xlink" width="66" height="66" viewBox="0 0 66 66"><defs><linearGradient id="a" y1="-0.155" x2="0.901" y2="1.066" gradientUnits="objectBoundingBox"><stop offset="0" stop-color="#01beba"/><stop offset="1" stop-color="#1dd45e"/><stop offset="1"/></linearGradient></defs><g transform="translate(8.305 8.167)"><circle cx="25" cy="25" r="25" transform="translate(-0.305 -0.168)" fill="url(#a)"/><path d="M25,0A25,25,0,1,0,50,25,25,25,0,0,0,25,0m0-8A33,33,0,1,1-8,25,33.037,33.037,0,0,1,25-8Z" transform="translate(-0.305 -0.168)" fill="rgba(29,212,94,0.15)"/><path d="M10.493,12.164,8,7H32.775L30.31,12.164h2.465L20.312,37.969,8,12.164Zm0,0,9.969,20.641L30.31,12.164H10.495Z" transform="translate(4.376 3.833)" fill="#07101a"/><path d="M20.388,34.1,8,7H32.774Z" transform="translate(4.376 3.833)" fill="#07101a" opacity="0.504"/></g></svg>