<svg xmlns="http://www.w3.org/2000/svg" xmlns:xlink="http://www.w3.org/1999/xlink" width="66" height="66" viewBox="0 0 66 66"><defs><linearGradient id="a" x1="0.212" y1="-0.098" x2="0.74" y2="1.086" gradientUnits="objectBoundingBox"><stop offset="0" stop-color="#01beba"/><stop offset="1" stop-color="#1dd45e"/></linearGradient></defs><g transform="translate(8 7.606)"><circle cx="25" cy="25" r="25" transform="translate(0 0.394)" fill="url(#a)"/><path d="M25,0A25,25,0,1,0,50,25,25,25,0,0,0,25,0m0-8A33,33,0,1,1-8,25,33.037,33.037,0,0,1,25-8Z" transform="translate(0 0.394)" fill="rgba(29,212,94,0.15)"/><path d="M29.986,19.223a3.205,3.205,0,1,1-4.726,0,1.132,1.132,0,0,1-1.2.126,1.175,1.175,0,0,1-.651-1.034,1.151,1.151,0,0,1,.243-.71,3.191,3.191,0,0,1-4.336,0,1.154,1.154,0,0,1-.9,1.863,1.136,1.136,0,0,1-.7-.245,3.208,3.208,0,1,1-4.727,0,1.132,1.132,0,0,1-1.2.126,1.175,1.175,0,0,1-.651-1.034,1.151,1.151,0,0,1,.243-.71,3.185,3.185,0,0,1-2.168.849,3.22,3.22,0,1,1,2.363-1.047,1.132,1.132,0,0,1,1.2-.128,1.175,1.175,0,0,1,.652,1.035,1.151,1.151,0,0,1-.243.71,3.191,3.191,0,0,1,4.336,0,1.151,1.151,0,0,1-.245-.71,1.188,1.188,0,0,1-.338-1.433,1.144,1.144,0,0,1,1.3-.639,1.169,1.169,0,0,1,.887,1.164,3.207,3.207,0,1,1,4.726,0,1.132,1.132,0,0,1,1.2-.128,1.175,1.175,0,0,1,.652,1.035,1.151,1.151,0,0,1-.243.71,3.191,3.191,0,0,1,4.336,0,1.151,1.151,0,0,1-.245-.71,1.188,1.188,0,0,1-.338-1.433,1.144,1.144,0,0,1,1.3-.639,1.169,1.169,0,0,1,.887,1.164,3.2,3.2,0,1,1,2.363,1.047,3.185,3.185,0,0,1-2.168-.849,1.154,1.154,0,0,1-.9,1.863,1.136,1.136,0,0,1-.7-.245Z" transform="translate(3.291 6.954)" fill="#07101a"/></g></svg>