<svg xmlns="http://www.w3.org/2000/svg" xmlns:xlink="http://www.w3.org/1999/xlink" width="66" height="66" viewBox="0 0 66 66"><defs><linearGradient id="a" x1="0.162" x2="0.888" y2="0.969" gradientUnits="objectBoundingBox"><stop offset="0" stop-color="#ffe956"/><stop offset="1" stop-color="#ff5a5a"/></linearGradient></defs><g transform="translate(8 8)"><circle cx="25" cy="25" r="25" fill="url(#a)"/><path d="M25,0A25,25,0,1,0,50,25,25,25,0,0,0,25,0m0-8A33,33,0,1,1-8,25,33.037,33.037,0,0,1,25-8Z" fill="rgba(255,90,90,0.15)"/><path d="M22.175,39.375a17.188,17.188,0,1,1,17.2-17.184A17.191,17.191,0,0,1,22.175,39.375Zm-7-9.328c.048-.092.086-.166.122-.225q2.306-4.069,4.619-8.128,2.025-3.558,4.039-7.122a.228.228,0,0,1,.234-.141c1.569.008,3.144.008,4.711.008h.223c-2.178,3.844-4.341,7.661-6.52,11.5.078.006.122.006.164.006q5.9,0,11.8.006c.133,0,.175-.048.2-.164a12.993,12.993,0,0,0-3.614-13.023,11.964,11.964,0,0,0-2.875-2.027A12.971,12.971,0,0,0,12.737,13.5c-.261.281-.5.583-.745.875.006.017.019.031.025.047H23.236c-.063.117-.1.2-.153.281-.683,1.212-1.375,2.419-2.052,3.633a.309.309,0,0,1-.316.181q-5.3-.009-10.6-.006H9.9a12.927,12.927,0,0,0,22.691,11.52q-8.707.016-17.422.011Zm19.755,2.966a16.322,16.322,0,0,0,4-11.192,16.675,16.675,0,0,0-3.97-10.469c-.787.794-1.556,1.564-2.319,2.334a13.417,13.417,0,0,1,.042,17.033Z" transform="translate(2.813 2.813)" fill="#07101a"/></g></svg>