<svg xmlns="http://www.w3.org/2000/svg" xmlns:xlink="http://www.w3.org/1999/xlink" width="66" height="66" viewBox="0 0 66 66"><defs><linearGradient id="a" x1="0.191" x2="0.816" y2="1" gradientUnits="objectBoundingBox"><stop offset="0" stop-color="#6e3fc3"/><stop offset="1" stop-color="#ff5a5a"/></linearGradient></defs><g transform="translate(8 8)"><circle cx="25" cy="25" r="25" fill="url(#a)"/><path d="M25,0A25,25,0,1,0,50,25,25,25,0,0,0,25,0m0-8A33,33,0,1,1-8,25,33.037,33.037,0,0,1,25-8Z" fill="rgba(110,63,195,0.4)"/><path d="M17.681,27.634H27.52v5.234H21.466c.1,1.5.152,2.886.252,4.381h-5.1V32.922H10.566a27.591,27.591,0,0,1,.1-5.02c.152-.855,1.059-1.6,1.614-2.35q2.879-3.6,5.8-7.158c.758-.909,1.514-1.764,2.372-2.778H11.019V10.381h5.6V6h4.894v4.273h6.106a28.088,28.088,0,0,1-.1,5.075c-.152.855-1.059,1.6-1.664,2.35q-2.879,3.6-5.8,7.158-1.142,1.426-2.372,2.778Z" transform="translate(5.906 3.375)" fill="#07101a"/></g></svg>