<svg xmlns="http://www.w3.org/2000/svg" xmlns:xlink="http://www.w3.org/1999/xlink" width="66" height="66" viewBox="0 0 66 66"><defs><linearGradient id="a" x1="0.132" x2="0.917" y2="1.065" gradientUnits="objectBoundingBox"><stop offset="0" stop-color="#6e3fc3"/><stop offset="1" stop-color="#01beba"/></linearGradient></defs><g transform="translate(8 8)"><circle cx="25" cy="25" r="25" fill="url(#a)"/><path d="M25,0A25,25,0,1,0,50,25,25,25,0,0,0,25,0m0-8A33,33,0,1,1-8,25,33.037,33.037,0,0,1,25-8Z" fill="rgba(110,63,195,0.4)"/><path d="M5,19.9l7.023-3.966L19.045,19.9v7.573l-7.022,3.966L5,27.472Zm20.328,0,7.023-3.966L39.375,19.9v7.573l-7.023,3.966L25.33,27.472V19.9Zm-.737,6.578-2.464,1.355-2.342-1.286V19.3l-6.406-3.619V13.047L22.127,8l8.747,5.047v2.7L24.591,19.3v7.181Z" transform="translate(2.813 4.5)" fill="#07101a" fill-rule="evenodd"/></g></svg>