<svg xmlns="http://www.w3.org/2000/svg" xmlns:xlink="http://www.w3.org/1999/xlink" width="66" height="66" viewBox="0 0 66 66"><defs><linearGradient id="a" x1="0.171" y1="-0.052" x2="0.817" y2="1.06" gradientUnits="objectBoundingBox"><stop offset="0" stop-color="#ffe956"/><stop offset="1" stop-color="#ff5a5a"/></linearGradient></defs><g transform="translate(8 8)"><circle cx="25" cy="25" r="25" fill="url(#a)"/><path d="M25,0A25,25,0,1,0,50,25,25,25,0,0,0,25,0m0-8A33,33,0,1,1-8,25,33.037,33.037,0,0,1,25-8Z" fill="rgba(255,90,90,0.15)"/><g transform="translate(12.546 4.688)"><path d="M26.984,8.773c-.889-.222-2.961-.192-3.6.681.636.355,1.08.9,1.731.917s1.406-.608,2.234-.252c-.355,0-1.953.3-2.056.784a5.225,5.225,0,0,0,.8,1.006c.416.341.459.459,1.081.119A3.953,3.953,0,0,0,28.8,9.972c0-.444.133-.148-.192-.517a3.6,3.6,0,0,0-1.628-.681Zm-8.348.784a5.522,5.522,0,0,1,3.922-.489,5.625,5.625,0,0,0-1.864-3.7,5.56,5.56,0,0,1,2.5,3.552c.727-.117,1.481-.4,2.177-.5a6.009,6.009,0,0,0-1.761-3.744C23.12,4.214,21.743,3,20.957,3s-1.806,1.777-2.1,2.5a6.484,6.484,0,0,0-.222,4.056Z" transform="translate(-2.191 -3)" fill="#07101a" fill-rule="evenodd"/><path d="M18.554,9.6c-.266-.636.9-.887,1.259-.844a4.24,4.24,0,0,1,1.7.977c.931.7,2.766,2.755,4.114,2.266s-.252-2.872-.992-3.494A5.344,5.344,0,0,0,20.05,7.132,2.66,2.66,0,0,0,18.378,8.61c-.089.327-.414.992.178.992Z" transform="translate(-2.303 -0.721)" fill="#07101a" fill-rule="evenodd"/><path d="M30.468,17.619c-.828-.5-1.125-1.984-1.642-2.8-.711-1.141-1.747-2.072-2.369-3.256s-.7-2.088-1.761-2.65a2.842,2.842,0,0,0-2.65,0,18,18,0,0,1-4.145,1.3,14.328,14.328,0,0,0-1.864.578,10.436,10.436,0,0,1-1.584.723c-1.363.192-3.878-1.48-3.641,1.109,0,.475.488.727.339,1.333s-.8,1.141-1.109,1.614A14.522,14.522,0,0,0,8.56,19a11.842,11.842,0,0,0,.459,8.245,14.649,14.649,0,0,0,2.161,3.553,10.325,10.325,0,0,1,1.141,1.628,11.818,11.818,0,0,0,.933,1.969,2.781,2.781,0,0,0,2.737.992,7.594,7.594,0,0,0,1.481-.7,10.1,10.1,0,0,1,2.486-.638,13.322,13.322,0,0,0,8.008-4.441A12.8,12.8,0,0,0,30.2,25.643a13.252,13.252,0,0,0,.636-2.486c.075-.533-.087-1.881.3-2.234.25-.239.844-.3,1.022-.52a4.624,4.624,0,0,0,.309-.917c.281-.873-1.361-1.569-2-1.866Zm1.125,2.117c-.222.5-1.094.8-1.48,1.333a9,9,0,0,1-2.175,2.6,4.308,4.308,0,0,1-5.375-1.155,4.589,4.589,0,0,1-1.006-2.886c0-.814.889-2.858,0-3.3s-1.3.992-1.642,1.481a5.241,5.241,0,0,1-2.577,2.175,4.87,4.87,0,0,1-4.9-1.066,4.959,4.959,0,0,1-.7-4.262,9.5,9.5,0,0,0-.192-2.177c0-1.066.933-.681,1.688-.533A13.234,13.234,0,0,1,18.449,14.1a10.984,10.984,0,0,0,5.106,2.367,25.162,25.162,0,0,1,3.731.637c.606.178,1.169.473,1.761.681a10.17,10.17,0,0,1,1.806.784c.4.177.977.531.755,1.109Z" transform="translate(-8.029 0.143)" fill="#07101a"/></g></g></svg>