<svg xmlns="http://www.w3.org/2000/svg" xmlns:xlink="http://www.w3.org/1999/xlink" width="18.534" height="18.534" viewBox="0 0 18.534 18.534"><defs><linearGradient id="a" x1="0.033" y1="0.965" x2="0.943" gradientUnits="objectBoundingBox"><stop offset="0" stop-color="#941fa1"/><stop offset="0.447" stop-color="#c21c74"/><stop offset="1" stop-color="#ffe956"/></linearGradient></defs><path d="M13.013,0H5.521A5.528,5.528,0,0,0,0,5.521v7.491a5.528,5.528,0,0,0,5.521,5.521h7.491a5.528,5.528,0,0,0,5.521-5.521V5.521A5.528,5.528,0,0,0,13.013,0Zm3.657,13.013a3.657,3.657,0,0,1-3.657,3.657H5.521a3.657,3.657,0,0,1-3.657-3.657V5.521A3.657,3.657,0,0,1,5.521,1.865h7.491a3.657,3.657,0,0,1,3.657,3.657v7.491Z" fill="url(#a)"/><path d="M137.794,133a4.794,4.794,0,1,0,4.794,4.794A4.8,4.8,0,0,0,137.794,133Zm0,7.723a2.929,2.929,0,1,1,2.929-2.929A2.929,2.929,0,0,1,137.794,140.723Z" transform="translate(-128.527 -128.527)" fill="url(#a)"/><circle cx="1.149" cy="1.149" r="1.149" transform="translate(12.921 3.361)" fill="url(#a)"/></svg>