<svg xmlns="http://www.w3.org/2000/svg" width="15.925" height="15.218" viewBox="0 0 15.925 15.218"><path d="M0,6.768A1.655,1.655,0,0,1,.538,5.5a1.974,1.974,0,0,1,1.4-.5A1.915,1.915,0,0,1,3.3,5.492a1.734,1.734,0,0,1,.538,1.322,1.619,1.619,0,0,1-.523,1.23,1.977,1.977,0,0,1-1.414.507H1.891A1.881,1.881,0,0,1,.523,8.044,1.7,1.7,0,0,1,0,6.768Zm.2,13.45V9.95H3.612V20.218Zm5.3,0H8.915V14.484a2,2,0,0,1,.776-1.714,1.67,1.67,0,0,1,1.1-.361q1.722,0,1.722,2.321v5.488h3.412V14.33a4.947,4.947,0,0,0-1.076-3.451A3.67,3.67,0,0,0,12.005,9.7a3.488,3.488,0,0,0-3.09,1.706v.031H8.9l.015-.031V9.95H5.5q.031.492.031,3.059T5.5,20.218Z" transform="translate(0 -5)"/></svg>