<svg xmlns="http://www.w3.org/2000/svg" width="16.804" height="18.988" viewBox="0 0 16.804 18.988"><g transform="translate(-50 -20)"><path d="M82.73,32.875a7.458,7.458,0,0,0,4.35,1.391v-3.12a4.4,4.4,0,0,1-.914-.1v2.456a7.459,7.459,0,0,1-4.35-1.391v6.367a5.771,5.771,0,0,1-8.982,4.792,5.771,5.771,0,0,0,9.9-4.032V32.875Zm1.127-3.148a4.348,4.348,0,0,1-1.127-2.546v-.4h-.866A4.368,4.368,0,0,0,83.857,29.727Zm-9.007,11.1a2.64,2.64,0,0,1,2.9-4.111v-3.19a5.821,5.821,0,0,0-.913-.053v2.483a2.639,2.639,0,0,0-1.988,4.871Z" transform="translate(-20.276 -6.02)" fill="#ee1d52" fill-rule="evenodd"/><path d="M68.781,32.115a7.459,7.459,0,0,0,4.35,1.391V31.051a4.367,4.367,0,0,1-2.31-1.323,4.368,4.368,0,0,1-1.993-2.947H66.554V39.242a2.64,2.64,0,0,1-4.741,1.588A2.639,2.639,0,0,1,63.8,35.959V33.476a5.766,5.766,0,0,0-4,9.8,5.771,5.771,0,0,0,8.982-4.792Z" transform="translate(-7.241 -6.02)" fill="#07101a" fill-rule="evenodd"/><path d="M65.89,25.03v-.664a4.351,4.351,0,0,1-2.31-.659A4.363,4.363,0,0,0,65.89,25.03Zm-4.3-4.271q-.031-.178-.048-.358V20H58.4V32.462a2.641,2.641,0,0,1-3.827,2.348,2.64,2.64,0,0,0,4.741-1.588V20.76Zm-5.026,6.7v-.707A5.776,5.776,0,0,0,50,32.462a5.76,5.76,0,0,0,2.558,4.792,5.766,5.766,0,0,1,4-9.8Z" transform="translate(0)" fill="#69c9d0" fill-rule="evenodd"/></g></svg>