<svg xmlns="http://www.w3.org/2000/svg" width="19.783" height="13.685" viewBox="0 0 19.783 13.685"><g transform="translate(-2.487 -5.576)"><path d="M261.253,573.292l-4.059-.074a21.187,21.187,0,0,1-3.92-.242c-1.96-.4-2.1-2.364-2.244-4.01a28.132,28.132,0,0,1,.255-6.968,2.382,2.382,0,0,1,2.351-2.14,129.869,129.869,0,0,1,13.164-.126,9.51,9.51,0,0,1,1.382.165c2.247.394,2.3,2.619,2.448,4.491a25.462,25.462,0,0,1-.194,5.673c-.223,1.556-.649,2.861-2.448,2.987-2.254.165-4.456.3-6.716.255C261.272,573.292,261.259,573.292,261.253,573.292Zm-2.386-3.939c1.7-.975,3.365-1.934,5.053-2.9-1.7-.975-3.365-1.934-5.053-2.9Z" transform="translate(-248.436 -554.049)" fill="red"/></g></svg>