<svg xmlns="http://www.w3.org/2000/svg" xmlns:xlink="http://www.w3.org/1999/xlink" width="25" height="25" viewBox="0 0 25 25"><defs><linearGradient id="a" x2="1.097" y2="1" gradientUnits="objectBoundingBox"><stop offset="0" stop-color="#4c56f5"/><stop offset="1" stop-color="#01beba"/></linearGradient></defs><g transform="translate(0.5 0.5)"><path d="M13.012,20.75H3.878l-.006,0-.006,0-.006,0-.006,0-.006,0-.006,0-.006,0-.006,0-.006,0-.006,0-.006,0-.006,0-.006,0-.006,0-.006,0-.006,0-.006,0-.006,0-.006,0-.006,0-.006,0-.006,0-.006,0-.006,0-.006,0-.006,0-.006,0-.006,0-.006,0-.006,0-.006,0-.006,0-.006,0-.006,0-.006,0-.006,0-.006,0-.006,0-.006,0-.006,0-.006,0-.006,0-.006,0-.006,0-.006,0-.006,0-.006,0-.006,0-.006,0-.006,0-.006,0-.006,0-.006,0-.006,0-.006,0-.006,0-.006,0-.006,0-.006,0-.006,0-.006,0-.006,0-.006,0-.006,0-.006,0-.006,0-.006,0-.006,0-.006,0-.006,0-.006,0-.006,0-.006,0-.006,0-.006,0-.006,0-.006,0-.006,0-.006,0-.006,0-.006,0-.006,0-.006,0-.006,0-.006,0-.006,0-.006,0-.006,0-.006,0-.006,0-.006,0-.006,0-.006,0-.006,0-.006,0-.006,0-.006,0-.006,0-.006,0-.006,0-.006,0-.006,0-.006,0-.006,0-.006,0-.006,0-.006,0-.006,0-.006,0-.006,0-.006,0-.006,0-.006,0-.006,0-.006,0-.006,0-.006,0-.006,0-.006,0-.006,0-.006,0-.006,0-.006,0-.006,0-.006,0-.006,0-.006,0-.006,0-.006,0-.006,0-.006,0-.006,0-.006,0-.006,0-.006,0-.006,0-.006,0-.006,0-.006,0-.006,0-.006,0-.006,0-.006,0-.006,0-.006,0-.006,0-.006,0-.006,0-.006,0-.006,0-.006,0-.006,0-.006,0-.006,0-.006,0-.006,0-.006,0-.006,0-.006,0-.006,0-.006,0-.006,0-.006,0-.006,0-.006,0-.006,0-.006,0-.006,0-.006,0-.006,0-.006,0-.006,0-.006,0-.006,0-.006,0-.006,0-.006,0-.006,0-.006,0-.006,0-.006,0-.006,0-.006,0-.006,0-.006,0-.006,0-.006,0-.006,0-.006,0-.006,0-.006,0-.006,0-.006,0-.006,0-.006,0-.006,0-.006,0-.006,0-.006,0-.006,0-.006,0-.006,0L2.7,20,2.7,20l-.006,0-.006,0-.006,0-.006,0-.006,0-.006,0-.006,0-.006,0-.006,0-.006,0-.006,0-.006,0-.006,0-.006,0-.006,0-.006,0-.006,0-.006,0-.006,0-.006,0-.006,0-.006,0-.006,0-.006,0-.006,0-.006,0-.006,0-.006,0-.006,0-.006,0-.006,0-.006,0-.006,0-.006,0-.006,0-.006,0-.006,0-.006,0-.006,0-.006,0-.006,0-.006,0-.006,0-.006,0-.006,0-.006,0-.006,0-.006,0-.006,0-.006,0-.006,0-.006,0-.006,0-.006,0-.006,0-.006,0-.006,0-.006,0-.006,0-.006,0-.006,0-.006,0-.006,0-.006,0-.006,0-.006,0-.006,0-.006,0-.006,0-.006,0-.006,0-.006,0-.006,0-.006,0-.006,0-.006,0-.006,0-.006,0-.005,0-.006,0-.006,0-.006,0-.006,0-.006,0-.006,0-.006,0-.006,0-.006,0-.006,0-.006,0-.006,0-.005,0-.005,0-.005,0-.005,0-.005,0-.005,0-.005,0-.005,0-.005,0-.005,0-.005,0-.005,0-.005,0-.005,0-.005,0-.005,0-.005,0-.005,0-.005,0-.005,0-.005,0-.005,0-.005,0-.005,0-.005,0-.005,0-.005,0-.005,0-.005,0-.005,0-.005,0-.005,0-.005,0-.005,0-.005,0-.005,0-.005,0-.005,0-.005,0-.005,0-.005,0-.005,0-.005,0-.005,0-.005,0-.005,0-.005,0-.005,0-.005,0-.005,0-.005,0-.005,0-.005,0-.005,0-.005,0-.005,0-.005,0-.005,0-.005,0-.005,0-.005,0-.005,0-.005,0-.005,0-.005,0-.005,0-.005,0-.005,0-.005,0-.005,0-.005,0-.005,0-.005,0-.005,0-.005,0-.005,0-.005,0-.005,0-.005,0-.005,0-.005,0-.005,0-.005,0-.005,0-.005,0-.005,0-.005,0-.005,0-.005,0-.005,0-.005,0-.005,0-.005,0-.005,0-.005,0-.005,0-.005,0-.005,0-.005,0-.005,0-.005,0-.005,0-.005,0-.005,0-.005,0-.005,0-.005,0-.005,0-.005,0-.005,0-.005,0-.005,0-.005,0-.005,0-.005,0-.005,0-.005,0-.005,0-.005,0-.005,0-.005,0-.005,0-.005,0-.005,0-.005,0-.005,0-.005,0-.005,0-.005,0-.005,0-.005,0,0,0,0,0,0,0,0,0,0,0,0,0,0,0,0,0,0,0,0,0,0,0,0,0,0,0,0,0,0,0,0,0,0,0,0,0,0,0,0,0,0,0,0,0,0,0,0,0,0,0,0,0,0,0,0,0,0,0,0,0,0,0,0,0,0,0,0,0,0,0,0,0,0,0,0,0,0,0,0,0,0,0,0,0,0,0,0,0,0,0,0,0,0,0h0l0,0,0,0,0,0,0,0,0,0,0,0,0,0,0,0,0,0,0,0,0,0,0,0,0,0,0,0,0,0,0,0,0,0,0,0,0,0,0,0,0,0,0,0,0,0,0,0,0,0,0,0,0,0,0,0,0,0,0,0,0,0,0,0,0,0,0,0,0,0,0,0,0,0,0,0,0,0,0,0,0,0,0,0,0,0,0,0,0,0h0l0,0,0,0,0,0,0,0,0,0,0,0,0,0,0,0,0,0,0,0,0,0,0,0,0,0,0,0,0,0,0,0,0,0,0,0,0,0,0,0,0,0,0,0,0,0,0,0,0,0,0,0,0,0,0,0,0,0,0,0h0l0,0,0,0h0l0,0,0,0,0,0,0,0,0,0,0,0,0,0,0,0,0,0,0,0,0,0,0,0,0,0,0,0,0,0,0,0,0,0,0,0,0,0,0,0,0,0,0,0,0,0,0,0,0,0,0,0,0,0,0,0,0,0,0,0v0l0,0,0,0,0,0,0,0,0,0,0,0,0,0,0,0,0,0,0,0,0,0,0-.005,0,0,0-.005,0-.005,0-.005,0-.005v0l0,0,0-.005,0-.005,0-.005,0,0,0,0,0-.005,0,0v0l0-.005,0-.005,0-.005,0-.005,0-.005,0-.005,0-.005h0l0,0,0-.005,0-.005,0-.005,0,0h0l0-.005,0-.005,0-.005,0,0,0,0,0-.005,0-.005,0-.005,0-.005,0-.005,0-.005,0-.005,0-.005,0-.005,0,0v0l0-.005v0l0,0,0-.005,0-.005,0-.005,0,0v0l0-.005,0,0v0l0-.005,0-.005,0-.005,0-.005,0-.005,0-.005,0-.005,0-.005,0-.005,0-.005,0-.005,0-.005,0-.005v0l0,0,0-.005,0-.005,0-.005,0,0v0l0-.005,0-.005,0-.005,0-.005,0-.005,0-.005,0-.005v0l0,0,0-.005,0-.005,0-.005,0-.005,0-.005v0l0,0,0-.005,0,0v0l0-.005v0l0,0,0-.005v0l0,0,0-.005v0l0,0,0-.005,0,0,0,0,0-.005,0,0v0l0-.005,0,0v0l0-.005,0-.005,0-.005v0l0,0,0-.005,0,0v0l0-.005v0l0,0,0-.005v0l0,0,0-.005,0-.005,0-.005,0-.005,0-.005,0-.005,0-.005,0-.005,0-.005,0-.005,0-.005,0-.005,0-.005,0-.005,0-.005,0-.005,0-.005,0-.005,0-.005,0-.005,0-.005,0-.005,0-.005,0-.005,0-.005v0l0,0,0-.005v0l0,0,0-.005,0,0v0l0-.006v0l0,0,0-.006,0,0v0l0-.006,0,0v0l0-.006,0,0v0l0-.006,0-.006,0-.006v0l0,0,0-.006,0-.006,0-.006v0l0,0,0-.006v0l0,0,0-.006v0l0,0,0-.006,0-.006,0-.006v0l0,0,0-.006,0-.006,0-.006,0,0v0l0-.006,0-.006,0-.006,0-.006,0-.006,0-.006,0-.006,0-.006,0-.006,0-.006,0-.006,0,0v0l0-.006v0l0,0,0-.006v0l0,0,0-.006v0l0,0,0-.006,0,0v0l0-.006,0,0v0l0-.006v0l0,0,0-.006,0,0v0l0-.006v0l0,0,0-.006v0l0,0,0-.006,0,0v0l0-.006,0-.006,0-.006,0,0v0l0-.006v0l0,0,0-.006,0-.006,0-.006v-.006l0-.006v-.006l0-.006,0-.006,0-.006,0-.006,0-.006,0-.006,0-.006,0-.006,0-.006v0l0,0,0-.006V17.35l0-.006v-.006l0-.006v-.006l0-.006,0-.006,0-.006L0,17.3,0,17.3l0-.006,0-.006,0-.006,0-.006,0-.006,0-.006v-.006l0-.006v-.006l0-.006,0-.006,0-.006,0-.006,0-.006v-.006l0-.006V17.2l0-.006v0l0,0,0-.006v-.006l0-.006v-.006l0-.006v-.006l0-.006,0,0v0l0-.006v-.006l0-.006,0-.006,0-.006,0-.006,0-.006V17.1l0-.006,0,0v0l0-.006v-.006l0-.006v-.006l0-.006v-.006l0-.006v-.006l0-.006V17.03l0-.006v-.006l0-.006,0-.006,0-.006V17l0-.006v-.006l0-.006v0l0,0,0-.006v-.006l0-.006v-.006l0-.006v-.006l0-.006v-.006l0-.006v-.006l0-.006V16.9l0-.006,0-.006,0-.006V16.88l0-.006v-.006l0-.006v-.006l0-.006v-.006l0-.006v-.006l0-.006v-.006l0-.006V16.81l0-.006V16.8l0-.006,0,0h0l0-.006v-.006l0-.006,0-.006,0-.006v-.006l0-.006v-.006l0-.006v-.006l0-.006v-.006l0-.006v-.006l0-.006,0-.006,0-.006v-.006l0-.006v-.006l0-.006V16.66l0-.006v-.006l0-.006v-.006l0-.006v-.006l0-.006v-.006l0-.006V16.6l0-.006,0-.006,0-.006v-.006l0-.006v-.006l0-.006v-.006l0-.006v-.006l0-.006v-.006l0-.006,0-.006,0-.006v-.006l0-.006V16.5l0-.006v-.006l0-.006,0-.006,0-.006,0-.006,0-.006V16.45l0-.006v-.006l0-.006v-.006l0-.006,0-.006,0-.006V16.4l0-.006v-.006l0-.006V16.38l0-.006v-.006l0-.006v-.006l0-.006v-.006l0-.006v-.006l0-.006,0-.006,0-.006V16.31l0-.006V16.3l0-.006v-.006l0-.006v-.006l0-.006v-.006l0-.006v-.006l0-.006,0-.006,0-.006v-.006l0-.006v-.006l0-.006v-.006l0-.006v-.006l0-.006v-.006l0-.006V16.17l0-.006v-.006l0-.006v-.006l0-.006v-.006l0-.006v-.006l0-.006v-.374h0v-1.27h0V13.076s0,0,0,0v-.008s0,0,0,0v-.009s0,0,0,0v-.008s0,0,0,0v-.01s0,0,0,0v-.008s0,0,0,0v-.009s0,0,0,0,0,0,0,0,0,0,0,0,0,0,0,0v-.017s0,0,0-.005v-.028s0,0,0-.005v-.028s0,0,0-.005v-.028s0,0,0-.005v-.028s0,0,0-.005v-.028s0,0,0-.005v-.028s0,0,0-.005v-.028s0,0,0-.005V12.71s0,0,0-.005v-.016s0,0,0-.006v-.005s0,0,0-.005v-.016s0,0,0-.006v-.005s0,0,0-.005v-.016s0,0,0-.006v-.005s0,0,0-.005v-.016s0,0,0-.006v-.005s0,0,0-.005v-.016s0,0,0-.006v-.005s0,0,0-.005v-.016s0,0,0-.006v-.005s0,0,0-.005V12.49s0,0,0-.006v-.005s0,0,0-.005v-.016s0,0,0-.006v-.005s0,0,0-.005v-.016s0,0,0-.006v-.005s0,0,0-.005v-.016s0,0,0-.006V12.38s0,0,0-.005v-.016s0,0,0-.006v-.005s0,0,0-.005v-.016s0,0,0-.006v-.005s0,0,0-.005v-.016s0,0,0-.006v-.005s0,0,0-.005v-.016s0,0,0-.006v-.005s0,0,0-.005v-.016s0,0,0-.006v-.005s0,0,0-.005v-.016s0,0,0-.006v-.005s0,0,0-.005V12.16s0,0,0-.006v-.005s0,0,0-.005v-.016s0,0,0-.006v-.005s0,0,0-.005v-.016s0,0,0-.006v-.005s0,0,0-.005v-.016s0,0,0-.006V12.05s0,0,0-.005v-.017s0,0,0-.005v-.005s0,0,0-.005V12s0,0,0-.005v-.005s0,0,0-.005v-.017s0,0,0-.005v-.005s0,0,0-.005v-.017s0,0,0-.005v-.005s0,0,0-.005V11.9s0,0,0-.005v-.005s0,0,0-.005v-.017s0,0,0-.005v-.005s0,0,0-.005V11.83s0,0,0-.005v-.005s0,0,0-.005V11.8s0,0,0-.005v-.005s0,0,0-.005v-.017s0,0,0-.005v-.005s0,0,0-.005v-.017s0,0,0-.005V11.7s0,0,0-.005v-.028s0,0,0-.005v-.028s0,0,0-.005V11.6s0,0,0-.005v-.028s0,0,0-.005v-.028s0,0,0-.005V11.5s0,0,0-.005v-.028s0,0,0-.005v-.028s0,0,0-.005V11.4s0,0,0-.005v-.028s0,0,0-.005v-.028s0,0,0-.005v-.016s0,0,0-.006V11.3s0,0,0-.005V11.28s0,0,0-.006v-.005s0,0,0-.005v-.016s0,0,0-.006v-.005s0,0,0-.005v-.016s0,0,0-.006V11.2s0,0,0-.005v-.016s0,0,0-.006V11.17s0,0,0-.005v-.016s0,0,0-.006v-.005s0,0,0-.005v-.016s0,0,0-.006V11.1s0,0,0-.005v-.016s0,0,0-.006v-.005s0,0,0-.005v-.016s0,0,0-.006v-.005s0,0,0-.005v-.016s0,0,0-.006v-.005s0,0,0-.005v-.016s0,0,0-.006v-.005s0,0,0-.005V10.95s0,0,0-.006v-.005s0,0,0-.005v-.016s0,0,0-.006v-.005s0,0,0-.005v-.016s0,0,0-.006v-.005s0,0,0-.005v-.016s0,0,0-.006V10.84s0,0,0-.005v-.016s0,0,0-.006v-.005s0,0,0-.005v-.016s0,0,0-.006v-.005s0,0,0-.005v-.016s0,0,0-.006v-.005s0,0,0-.005v-.016s0,0,0-.006v-.005s0,0,0-.005v-.016s0,0,0-.006v-.005s0,0,0-.005v-.017s0,0,0-.005v-.005s0,0,0-.005V10.62s0,0,0-.005v-.005s0,0,0-.005v-.017s0,0,0-.005v-.005s0,0,0-.005v-.017s0,0,0-.005v-.005s0,0,0-.005v-.017s0,0,0-.005V10.51s0,0,0-.005v-.017s0,0,0-.005v-.005s0,0,0-.005v-.017s0,0,0-.005v-.005s0,0,0-.005v-.017s0,0,0-.005v-.005s0,0,0-.005v-.017s0,0,0-.005v-.005s0,0,0-.005v-.017s0,0,0-.005v-.028s0,0,0-.005V10.29s0,0,0-.005v-.028s0,0,0-.005v-.028s0,0,0-.005v-.028s0,0,0-.005v-.028s0,0,0-.005v-.028s0,0,0-.005v-.028s0,0,0-.005v-.028s0,0,0-.005v-.028s0,0,0-.005V9.993s0,0,0-.005V9.96s0,0,0-.005V9.927s0,0,0-.005V9.894s0,0,0-.005V9.861s0,0,0-.005V9.828s0,0,0-.005V9.8s0,0,0-.005V9.762s0,0,0-.005V9.729s0,0,0-.005V9.7s0,0,0-.005V9.663s0,0,0-.005V9.63s0,0,0-.005V9.608s0,0,0-.006V9.6s0,0,0-.005V9.575s0,0,0-.006V9.564s0,0,0-.005V9.542s0,0,0-.006V9.531s0,0,0-.005V9.509s0,0,0-.006V9.5s0,0,0-.005V9.476s0,0,0-.006V9.465s0,0,0-.005V9.443s0,0,0-.006V9.432s0,0,0-.005V9.41s0,0,0-.006V9.4s0,0,0-.005V9.377s0,0,0-.006V9.366s0,0,0-.005V9.344s0,0,0-.006V9.333s0,0,0-.005V9.311s0,0,0-.006V9.3s0,0,0-.005V9.278s0,0,0-.005V9.267s0,0,0-.005V9.245s0,0,0-.005V9.234s0,0,0-.005V9.212s0,0,0-.005V9.2s0,0,0-.005V9.179s0,0,0-.005V9.168s0,0,0-.005V9.146s0,0,0-.005V9.135s0,0,0-.005V9.113s0,0,0-.005V9.1s0,0,0-.005V9.08s0,0,0-.005V9.069s0,0,0-.005V9.047s0,0,0-.005V9.036s0,0,0-.005V9.014s0,0,0-.005V9s0,0,0-.005V8.981s0,0,0-.005V8.97s0,0,0-.005V8.948s0,0,0-.005V8.937s0,0,0-.005V8.915s0,0,0-.005V8.9s0,0,0-.005V8.882s0,0,0-.005V8.871s0,0,0-.005V8.849s0,0,0-.005V8.838s0,0,0-.005V8.816s0,0,0-.005V8.805s0,0,0-.005V8.783s0,0,0-.005V8.772s0,0,0-.005V8.75s0,0,0-.005V8.739s0,0,0-.005V8.717s0,0,0-.005V8.706s0,0,0-.005V8.684s0,0,0-.005V8.673s0,0,0-.005V8.651s0,0,0-.005V8.618s0,0,0-.005V8.585s0,0,0-.005V8.552s0,0,0-.005V8.519s0,0,0-.005V8.486s0,0,0-.005V8.453s0,0,0-.005V8.42s0,0,0-.005V8.387s0,0,0-.005V8.354s0,0,0-.005V8.321s0,0,0-.005V8.288s0,0,0-.005V8.255s0,0,0-.005V8.233s0,0,0-.006V8.222s0,0,0-.005V8.2s0,0,0-.006V8.189s0,0,0-.005V8.167s0,0,0-.006V8.156s0,0,0-.005V8.134s0,0,0-.006V8.123s0,0,0-.005V8.1s0,0,0-.006V8.09s0,0,0-.005V8.068s0,0,0-.006V8.057s0,0,0-.005V8.035s0,0,0-.006V8.024s0,0,0-.005V8s0,0,0-.006V7.991s0,0,0-.005V7.98s0,0,0-.006V7.969s0,0,0-.005V7.958s0,0,0-.005V7.947s0,0,0-.006V7.936s0,0,0-.005V7.925s0,0,0-.005V7.914s0,0,0-.006V7.9s0,0,0-.005V7.892s0,0,0-.005V7.881s0,0,0-.006V7.87s0,0,0-.005V7.859s0,0,0-.005V7.848s0,0,0-.006V7.837s0,0,0-.005V7.826s0,0,0-.005V7.815s0,0,0-.006V7.8s0,0,0-.005V7.793s0,0,0-.005V7.782s0,0,0-.006V7.771s0,0,0-.005V7.76s0,0,0-.005V7.749s0,0,0-.006V7.738s0,0,0-.005V7.727s0,0,0-.005V7.716s0,0,0-.006V7.705s0,0,0-.005V7.694s0,0,0-.005V7.683s0,0,0-.006V7.672s0,0,0-.005V7.661s0,0,0-.005V7.65s0,0,0-.006V7.639s0,0,0-.005V7.628s0,0,0-.005V7.617s0,0,0-.006V7.606s0,0,0-.005V7.6s0,0,0-.005V7.584s0,0,0-.006V7.573s0,0,0-.005V7.562s0,0,0-.005V7.551s0,0,0-.005V7.54s0,0,0-.006V7.529s0,0,0-.005V7.518s0,0,0-.005V7.507s0,0,0-.006V7.5s0,0,0-.005V7.485s0,0,0-.005V7.474s0,0,0-.006V7.463s0,0,0-.005V7.452s0,0,0-.005V7.441s0,0,0-.006V7.43s0,0,0-.005V7.419s0,0,0-.005V7.408s0,0,0-.006V7.4s0,0,0-.005V7.386s0,0,0-.005V7.375s0,0,0-.006V7.364s0,0,0-.005V7.353s0,0,0-.005V7.342s0,0,0-.006V7.331s0,0,0-.005V7.32s0,0,0-.005V7.309s0,0,0-.006V7.3s0,0,0-.005V7.287s0,0,0-.005V7.276s0,0,0-.006V7.265s0,0,0-.005V7.254s0,0,0-.005V7.243s0,0,0-.006V7.232s0,0,0-.005V7.221s0,0,0-.005V7.21s0,0,0-.006V7.2s0,0,0-.005V7.188s0,0,0-.005V7.177s0,0,0-.006V7.166s0,0,0-.005V7.155s0,0,0-.005V7.144s0,0,0-.006V7.133s0,0,0-.005V7.122s0,0,0-.005V7.111s0,0,0-.006V7.1s0,0,0-.005V7.089s0,0,0-.005V7.078s0,0,0-.006V7.067s0,0,0-.005V7.056s0,0,0-.005V7.045s0,0,0-.006V7.034s0,0,0-.005V7.023s0,0,0-.005V7.012s0,0,0-.006V7s0,0,0-.006V6.99s0,0,0,0,0,0,0,0V6.975s0,0,0,0V6.951s0,0,0,0V6.94s0,0,0,0V3.88l0-.006,0-.006V3.862l0-.006V3.851l0-.006V3.839l0-.006V3.827l0-.006V3.815l0-.006V3.8l0-.006V3.792l0-.006V3.78l0-.006,0-.006,0-.006V3.757l0-.006V3.745l0-.006V3.733l0-.006V3.722l0-.006V3.71l0-.006V3.7l0-.006V3.687l0-.006,0-.006,0-.006V3.664l0-.006V3.652l0-.006,0-.006,0-.006V3.628l0-.006V3.617l0-.006V3.605l0-.006,0-.006,0-.006V3.582l0-.006V3.57l0-.006V3.558l0-.006V3.547l0-.006,0-.006,0-.006V3.524l0-.006V3.512l0-.006V3.5l0-.006,0-.006,0-.006V3.477l0-.006V3.465l0-.006V3.454l0-.006V3.442l0-.006V3.43l0-.006,0-.006,0-.006V3.407l0-.006V3.4l0-.006V3.384l0-.006V3.372l0-.006V3.361l0-.006V3.349l0-.006V3.337l0-.006V3.326l0-.006,0-.006,0-.006V3.3l0-.006V3.291l0-.006V3.279l0-.006V3.268l0-.006V3.256l0-.006,0-.006,0-.006,0-.006,0-.006V3.221l0-.006,0-.006,0-.006V3.2l0-.006V3.187l0-.006V3.175l0-.006V3.163l0-.006,0-.006,0-.006V3.14l0-.006V3.129l0-.006V3.117l0-.006V3.105l0-.006V3.094l0-.006V3.082l0-.006V3.071l0-.006V3.059l0-.006,0,0v0l0-.006,0-.006,0-.006V3.025l0-.006,0-.006,0-.006V3l0-.006V2.99l0-.006V2.979l0-.006V2.967l0-.006V2.956l0-.006V2.944l0-.006V2.933l0-.006V2.921l0-.006V2.91l0-.006,0-.006,0-.006V2.887l0-.006,0-.006,0-.006V2.864l0-.006h0l0,0,0-.006,0-.006,0-.006V2.829l0-.006V2.818l0-.006,0-.006,0-.006V2.8l0-.006V2.784l0-.006v0l0,0,0-.006v0l0,0,0-.006V2.749l0-.006v0l0,0,0-.006v0l0,0,0-.006v0l0,0,0-.006,0,0v0L0,2.7V2.693l0-.006,0,0v0l0-.006,0-.006,0-.006V2.658l0-.006V2.647l0-.006V2.636l0-.006,0,0v0l0-.006,0,0v0l0-.006,0,0v0l0-.006v0l0,0,0-.006,0-.006,0-.006,0-.006,0-.006V2.556l0-.006,0,0v0l0-.006,0-.006,0-.006,0-.006,0-.006,0-.006,0-.006,0,0v0l0-.006v0l0,0,0-.006v0l0,0,0-.006,0-.006,0-.006v0l0,0,0-.006,0,0v0l0-.006,0,0v0l0-.006v0l0,0,0-.006,0,0v0l0-.006v0l0,0,0-.006,0,0v0l0-.006,0-.006,0-.006,0-.006,0-.006,0,0v0l0-.006,0,0v0l0-.006,0-.006,0-.006,0-.006,0-.006,0,0v0L.2,2.3l0,0v0l0-.006,0,0v0l0-.006v0l0,0,0-.006v0l0,0,0-.006v0l0,0,0-.006v0l0,0,0-.006,0-.006,0-.006v0l0,0,0-.006,0-.006,0-.006,0-.006,0-.006,0-.006,0-.005,0-.005,0-.005v0l0,0,0-.005,0-.005,0-.005,0,0v0l0-.005v0l0,0,0-.005v0l0,0,0-.005,0,0v0l0-.005,0,0v0l0-.005,0-.005,0-.005v0l0,0,0-.005,0-.005,0-.005v0l0,0,0-.005,0,0v0l0-.005,0-.005,0-.005,0,0v0l0-.005,0-.005,0-.005L.372,2,.376,2l0-.005,0-.005,0-.005,0-.005,0,0v0l0-.005,0,0v0l0-.005,0,0v0l0-.005v0l0,0,0-.005v0l0,0,0-.005,0-.005,0-.005,0-.005,0-.005,0-.005,0-.005,0-.005,0-.005v0l0,0,0-.005,0-.005,0-.005,0,0v0l0-.005,0-.005,0-.005,0-.005,0-.005,0-.005,0-.005h0l0,0,0-.005,0-.005,0-.005,0-.005,0-.005,0-.005,0-.005,0,0v0l0-.005,0,0,0,0,0-.005,0-.005,0-.005,0-.005,0-.005,0-.005,0-.005,0-.005,0-.005,0-.005,0-.005v0l0,0,0-.005,0-.005,0-.005,0-.005,0-.005,0-.005,0-.005,0,0v0l0-.005,0-.005,0-.005,0-.005,0-.005,0-.005,0-.005,0-.005,0-.005,0-.005,0-.005,0-.005,0-.005,0-.005,0-.005,0-.005,0-.005,0-.005,0-.005,0-.005,0-.005,0,0,0,0,0-.005,0-.005,0-.005,0-.005,0-.005,0-.005,0-.005,0-.005,0-.005,0-.005,0,0,0,0,0,0,0,0,0,0,0,0,0,0,0,0,0,0,0,0,0,0,0,0,0,0,0,0,0,0,0,0v0l0,0v0l0,0,0,0,0,0,0,0,0,0,0,0,0,0,0,0,0,0,0,0,0,0,0,0,0,0,0,0,0,0,0,0,0,0,0,0,0,0,0,0,0,0,0,0,0,0,0,0,0,0,0,0,0,0,0,0,0,0,0,0,0,0,0,0,0,0,0,0h0l0,0,0,0,0,0,0,0,0,0,0,0,0,0,0,0,0,0,0,0,0,0,0,0,0,0,0,0,0,0,0,0,0,0,0,0,0,0,0,0,0,0,0,0,0,0,0,0,0,0,0,0,0,0,0,0,0,0,0,0,0,0,0,0,0,0,0,0,0,0,0,0,0,0,0,0,0,0,0,0,0,0,0,0,0,0,0,0,0,0,0,0,0,0,0,0,0,0,0,0,0,0,0,0,0,0,0,0,0,0,0,0,0,0,0,0,0,0,0,0,0,0,0,0,0,0,0,0,0,0,0,0,0,0,0,0,0,0,0,0,0,0,0,0,0,0h0l0,0,0,0,0,0,0,0,0,0,0,0,0,0,0,0,0,0,0,0,0,0,0,0,0,0,0,0,0,0,0,0,0,0,0,0,0,0,0,0,0,0,0,0,0,0,0,0,0,0,0,0,0,0,0,0,0,0,0,0,0,0,0,0,0,0,0,0,0,0,0,0,0,0,0,0,0,0,0,0,0,0,0,0,0,0,.005,0,.005,0,.005,0,.005,0,.005,0,.005,0,.005,0,.005,0,.005,0,.005,0,.005,0,.005,0,.005,0,.005,0,.005,0,.005,0,.005,0,.005,0,.005,0,.005,0,.005,0,.005,0,.005,0,.005,0,.005,0,.005,0,.005,0,.005,0,.005,0,.005,0,.005,0,.005,0,.005,0,.005,0,.005,0,.005,0,.005,0,.005,0,.005,0L1.7.58l.005,0,.005,0,.005,0,.005,0,.005,0,.005,0,.005,0,.005,0,.005,0,.005,0,.005,0,.005,0,.005,0,.005,0,.005,0,.005,0,.005,0,.005,0,.005,0,.005,0,.005,0,.005,0,.005,0,.005,0,.005,0,.005,0,.005,0,.005,0,.005,0,.005,0,.005,0,.005,0,.005,0,.005,0,.005,0,.005,0,.005,0,.005,0,.005,0,.005,0,.005,0,.005,0,.005,0,.005,0,.005,0,.005,0,.005,0,.005,0,.005,0,.005,0,.005,0,.005,0,.005,0,.005,0,.005,0,.005,0L2,.375,2,.372l.005,0,.005,0,.005,0,.005,0,.005,0,.005,0,.005,0,.005,0,.005,0,.005,0,.005,0,.005,0,.005,0,.005,0,.005,0,.005,0,.005,0,.005,0,.005,0,.005,0,.005,0,.005,0,.005,0,.005,0,.005,0,.005,0,.005,0,.005,0,.005,0,.005,0,.005,0,.005,0,.006,0,.005,0,.006,0,.006,0,.006,0,.006,0,.006,0,.006,0,.006,0,.006,0,.006,0,.006,0,.006,0,.006,0,.005,0,.006,0,.006,0,.006,0,.006,0,.006,0,.006,0L2.3.2l.006,0,.006,0,.006,0,.006,0,.006,0,.006,0,.006,0,.006,0,.006,0,.006,0,.006,0,.006,0,.006,0,.006,0,.006,0,.006,0,.006,0,.006,0,.006,0,.006,0,.006,0,.006,0,.006,0,.006,0,.006,0,.006,0,.006,0,.006,0,.006,0,.006,0,.006,0,.006,0,.006,0L2.49.1,2.5.1l.006,0,.006,0,.006,0,.006,0,.006,0,.006,0,.006,0,.006,0,.006,0,.006,0,.006,0,.006,0,.006,0,.006,0,.006,0,.006,0,.006,0,.006,0,.006,0,.006,0,.006,0,.006,0,.006,0,.006,0,.006,0,.006,0,.006,0,.006,0,.006,0,.006,0,.006,0,.006,0,.006,0,.006,0,.006,0L2.7,0l.006,0,.006,0,.006,0,.006,0,.006,0,.006,0,.006,0,.006,0,.006,0,.006,0,.006,0,.006,0,.006,0,.006,0,.006,0,.006,0,.006,0,.006,0,.006,0,.006,0,.006,0,.006,0,.006,0,.006,0,.006,0,.006,0,.006,0,.006,0,.006,0,.006,0,.006,0,.006,0,.006,0,.006,0,.006,0,.006,0,.006,0,.006,0,.006,0,.006,0,.006,0,.006,0,.006,0,.006,0,.006,0,.006,0,.006,0,.006,0,.006,0,.006,0,.006,0L3-.127,3-.129l.006,0,.006,0,.006,0,.006,0,.006,0,.006,0,.006,0,.006,0,.006,0,.006,0,.006,0,.006,0,.006,0,.006,0,.006,0,.006,0,.006,0,.006,0,.006,0,.006,0,.006,0,.006,0,.006,0,.006,0,.006,0,.006,0,.006,0,.006,0,.006,0,.006,0,.006,0,.006,0,.006,0L3.2-.2l.006,0,.006,0,.006,0,.006,0,.006,0,.006,0,.006,0,.006,0,.006,0,.006,0,.006,0,.006,0,.006,0,.006,0,.006,0,.006,0,.006,0,.006,0,.006,0,.006,0,.006,0,.006,0,.006,0,.006,0,.006,0,.006,0,.006,0,.006,0,.006,0,.006,0,.006,0,.006,0,.006,0,.006,0,.006,0,.006,0,.006,0,.006,0,.006,0,.006,0,.006,0,.006,0,.006,0,.006,0,.006,0,.006,0,.006,0,.006,0,.006,0,.006,0L3.5-.3,3.5-.3l.006,0,.006,0,.006,0,.006,0,.006,0,.006,0,.006,0,.006,0,.006,0,.006,0,.006,0,.006,0,.006,0,.006,0,.006,0,.006,0,.006,0,.006,0,.006,0,.006,0,.006,0,.006,0,.006,0,.006,0,.006,0,.006,0,.006,0,.006,0,.006,0,.006,0,.006,0,.006,0,.006,0,.006,0,.006,0,.006,0,.006,0,.006,0,.006,0,.006,0,.006,0,.006,0,.006,0,.006,0,.006,0,.006,0,.006,0,.006,0,.006,0,.006,0,.006,0,.006,0,.006,0,.006,0,.006,0,.006,0,.006,0,.006,0,.006,0,.006,0,.006,0,.006,0h.006l.006,0,.006,0H16.113l.006,0h.006l.006,0,.006,0,.006,0,.006,0,.006,0,.006,0,.006,0,.006,0,.006,0,.006,0,.006,0,.006,0,.006,0,.006,0,.006,0,.006,0,.006,0,.006,0,.006,0,.006,0,.006,0,.006,0,.006,0,.006,0,.006,0,.006,0,.006,0,.006,0,.006,0,.006,0,.006,0,.006,0,.006,0,.006,0,.006,0,.006,0,.006,0,.006,0,.006,0,.006,0,.006,0,.006,0,.006,0,.006,0,.006,0,.006,0,.006,0,.006,0,.006,0,.006,0,.006,0,.006,0,.006,0,.006,0,.006,0,.006,0,.006,0,.006,0,.006,0,.006,0,.006,0,.006,0,.006,0,.006,0,.006,0,.006,0,.006,0,.006,0,.006,0,.006,0,.006,0,.006,0,.006,0,.006,0,.006,0,.006,0,.006,0,.006,0,.006,0,.006,0,.006,0,.006,0,.006,0,.006,0,.006,0,.006,0,.006,0,.006,0,.006,0,.006,0,.006,0,.006,0,.006,0,.006,0,.006,0,.006,0,.006,0,.006,0,.006,0,.006,0,.006,0,.006,0,.006,0,.006,0,.006,0,.006,0,.006,0,.006,0,.006,0,.006,0,.006,0,.006,0,.006,0,.006,0,.006,0,.006,0,.006,0,.006,0,.006,0,.006,0,.006,0,.006,0,.006,0,.006,0,.006,0,.006,0,.006,0,.006,0,.006,0,.006,0,.006,0,.006,0,.006,0,.006,0,.006,0,.006,0,.006,0,.006,0,.006,0,.006,0,.006,0,.006,0,.006,0,.006,0,.006,0,.006,0,.006,0,.006,0,.006,0,.006,0,.006,0,.006,0,.006,0,.006,0,.006,0,.006,0,.006,0,.006,0,.006,0,.006,0,.006,0,.006,0,.006,0,.006,0,.006,0,.006,0,.006,0,.006,0,.006,0,.006,0,.006,0,.006,0,.006,0,.006,0,.006,0,.006,0,.006,0,.006,0,.006,0,.006,0,.006,0,.006,0,.006,0,.006,0,.006,0,.006,0,.006,0,.006,0,.006,0,.006,0,.006,0,.006,0,.006,0,.006,0,.006,0,.006,0,.006,0,.006,0,.006,0,.006,0,.006,0,.006,0L17.3,0l.006,0,.006,0,.006,0,.006,0,.006,0,.006,0,.006,0,.006,0,.006,0,.006,0,.006,0,.006,0,.006,0,.006,0,.006,0,.006,0,.006,0,.006,0,.006,0,.006,0,.006,0,.006,0,.006,0,.006,0,.006,0,.006,0,.006,0,.006,0,.006,0,.006,0,.006,0,.006,0,.006,0,.006,0,.006,0L17.5.1l.006,0,.006,0,.006,0,.006,0,.006,0,.006,0,.006,0,.006,0,.006,0,.006,0,.006,0,.006,0,.006,0,.006,0,.006,0,.006,0,.006,0,.006,0,.006,0,.006,0,.006,0,.006,0,.006,0,.006,0,.006,0,.006,0,.006,0,.006,0,.006,0,.006,0,.006,0,.006,0,.006,0,.006,0L17.7.2l.006,0,.006,0,.006,0,.006,0,.006,0,.006,0,.006,0,.006,0,.006,0,.006,0,.006,0,.006,0,.006,0,.006,0,.006,0,.006,0,.006,0,.006,0,.006,0,.006,0,.005,0,.005,0,.005,0,.005,0,.005,0,.005,0,.005,0,.005,0,.005,0,.005,0,.005,0,.005,0,.005,0,.005,0,.005,0,.005,0,.005,0,.005,0,.005,0,.005,0,.005,0,.005,0,.005,0,.005,0,.005,0,.005,0,.005,0,.005,0,.005,0,.005,0,.005,0,.005,0,.005,0,.005,0,.005,0,.005,0,.005,0,.005,0,.005,0,.005,0,.005,0,.005,0,.005,0,.005,0,.005,0,.005,0,.005,0,.005,0,.005,0,.005,0,.005,0,.005,0,.005,0,.005,0,.005,0,.005,0,.005,0,.005,0,.005,0,.005,0,.005,0,.005,0,.005,0,.005,0,.005,0,.005,0,.005,0,.005,0,.005,0,.005,0,.005,0,.005,0,.005,0,.005,0,.005,0,.005,0,.005,0,.005,0,.005,0,.005,0,.005,0,.005,0,.005,0,.005,0,.005,0,.005,0,.005,0,.005,0,.005,0,.005,0,.005,0,.005,0,.005,0,.005,0,.005,0,.005,0,.005,0,.005,0,.005,0,.005,0,.005,0,.005,0,.005,0,.005,0,.005,0,.005,0,.005,0,.005,0,.005,0,.005,0,.005,0,.005,0,.005,0,.005,0,.005,0,.005,0,.005,0,.005,0,.005,0,.005,0,.005,0,.005,0,.005,0,.005,0,.005,0,.005,0,.005,0,.005,0,.005,0,.005,0,.005,0,.005,0,.005,0,0,0,.005,0,0,0,0,0,0,0,0,0,0,0,0,0,0,0,0,0,0,0,0,0,0,0,0,0,0,0,0,0,0,0,0,0,0,0,0,0,0,0,0,0,0,0,0,0,0,0,0,0,0,0,0,0,0,0,0,0,0,0,0,0,0,0,0,0,0,0,0,0,0,0,0,0,0,0,0,0,0,0,0,0,0,0,0,0,0,0,0,0,0,0,0,0,0,0,0,0,0,0,0,0h0l0,0,0,0,0,0,0,0,0,0,0,0,0,0,0,0,0,0,0,0,0,0,0,0,0,0,0,0,0,0,0,0,0,0,0,0,0,0,0,0,0,0,0,0,0,0,0,0,0,0,0,0,0,0,0,0,0,0,0,0,0,0,0,0,0,0,0,0,0,0,0,0,0,0,0,0,0,0,0,0,0,0,0,0,0,0,0,0,0,0,0,0,0,0,0,0,0,0,0,0,0,0,0,0,0,0,0,0,0,0,0,0,0,0,0,0,0,0,0,0,0,0,0,0,0,0,0,0,0,0,0,0,0,0,0,0,0,0,0,0,0,0,0,0,0,0h0l0,0,0,0,0,0,0,0,0,0,0,0,0,0,0,0,0,0,0,0,0,0,0,0,0,0,0,0,0,0,0,0,0,0,0,0,0,0,0,0,0,0,0,0,0,0,0,0,0,0,0,0,0,0,0,0,0,0,0,0,0,0,0,0,0,0,0,0,0,0,0,0,0,0,0,0,0,0,0,0,0,0,0,0,0,.005,0,.005,0,.005,0,.005,0,.005,0,.005,0,.005,0,.005,0,.005,0,.005,0,.005,0,.005,0,.005,0,.005,0,.005,0,.005,0,.005v0l0,0,0,.005,0,.005,0,.005,0,.005,0,.005,0,.005,0,.005v0l0,0,0,.005,0,0,0,0,0,.005,0,.005,0,.005,0,.005,0,.005,0,.005,0,.005,0,.005,0,.005,0,0,0,0,0,.005,0,0,0,0,0,.005,0,.005,0,.005,0,.005,0,.005,0,.005,0,.005v0l0,0,0,.005,0,0v0l0,.005,0,.005,0,.005v0l0,0,0,.005,0,0,0,0,0,.005,0,.005,0,.005,0,.005,0,.005,0,0v0l0,.005,0,0,0,0,0,.005,0,.005,0,.005,0,0v0l0,.005v0l0,0,0,.005,0,.005,0,.005,0,.005,0,.005,0,.005,0,.005,0,0h0l0,.005,0,0v0l0,.005v0l0,0,0,.005,0,.005,0,.005,0,.005,0,.005,0,0,0,0,0,.005,0,0,0,0,0,.005v0l0,0,0,.005,0,.005,0,.005,0,0,0,0,0,.005V2l0,0,0,.005,0,0v0l0,.005v0l0,0,0,.005,0,.005,0,.005,0,.005,0,.005,0,.005,0,.005,0,.005,0,.005,0,.005,0,.005v0l0,0,0,.005,0,0v0l0,.005,0,0v0l0,.005v0l0,0,0,.005,0,0v0l0,.005,0,.005,0,.005h0l0,0,0,.005v0l0,0,0,.005v0l0,0,0,.005,0,0v0l0,.006,0,0v0l0,.006v0l0,0,0,.006,0,0v0l0,.006v0l0,0,0,.006,0,.006,0,.006v0l0,0,0,.006v0l0,0,0,.006v0l0,0,0,.006,0,.006,0,.006,0,.006,0,.006v0l0,0,0,.006v0l0,0,0,.006v0l0,0,0,.006,0,0v0l0,.006v0l0,0,0,.006,0,0v0l0,.006,0,0v0l0,.006,0,0v0l0,.006v0l0,0,0,.006v0l0,0,0,.006,0,.006,0,.006v0l0,0,0,.006v0l0,0,0,.006,0,0v0l0,.006v0l0,0,0,.006v0l0,0,0,.006v0l0,0,0,.006v0l0,0,0,.006,0,0v0l0,.006,0,0v0l0,.006,0,.006,0,.006,0,0v0l0,.006v0l0,0,0,.006,0,.006,0,.006v.006l0,.006V2.59l0,.006v0l0,0,0,.006,0,0v0l0,.006,0,0v0l0,.006,0,.006,0,.006,0,0v0l0,.006v.006l0,.006v0l0,0,0,.006v0l0,0,0,.006v0l0,0L20,2.7V2.7l0,.006v0l0,0,0,.006v0l0,0,0,.006,0,.006,0,.006v0l0,0,0,.006v0l0,0,0,.006v0l0,0,0,.006,0,0v0l0,.006v.006l0,.006v.006l0,.006v.006l0,.006v.006l0,.006v.006l0,.006v.006l0,.006v.006l0,.006,0,0v0l0,.006v.006l0,.006V2.9l0,.006v.006l0,.006v.006l0,.006v.006l0,.006v.006l0,.006,0,.006,0,.006,0,.006,0,.006v.006l0,.006,0,.006,0,.006V3l0,.006v.006l0,.006v.006l0,.006v.006l0,.006v.006l0,.006v.006l0,.006V3.07l0,.006,0,.006,0,.006v.006l0,.006v.006l0,.006v.006l0,.006v.006l0,.006V3.14l0,.006v.006l0,.006v.006l0,.006v.006l0,.006v.006l0,.006,0,.006,0,.006v.006l0,.006,0,.006,0,.006v.006l0,.006v.006l0,.006v.006l0,.006v.006l0,.006v.006l0,.006V3.29l0,.006V3.3l0,.006v.006l0,.006v.006l0,.006v.006l0,.006v.006l0,.006V3.36l0,.006v.006l0,.006v.006l0,.006v.006l0,.006,0,.006,0,.006v.006l0,.006V3.43l0,.006v.006l0,.006v.006l0,.006v.006l0,.006v.006l0,.006v.006l0,.006V3.5l0,.006,0,.006,0,.006,0,.006,0,.006v.006l0,.006v.006l0,.006,0,.006,0,.006V3.57l0,.006v.006l0,.006v.006l0,.006V3.6l0,.006v.006l0,.006v.006l0,.006V3.64l0,.006v.006l0,.006v.006l0,.006v.006l0,.006v.006l0,.006V3.7l0,.006,0,.006,0,.006v.006l0,.006v.006l0,.006v.006l0,.006v.006l0,.006v.006l0,.006V3.78l0,.006v.006l0,.006V3.8l0,.006v.006l0,.006v.006l0,.006v.006l0,.006V3.85l0,.006v.006l0,.006v.006l0,.006V6.92s0,0,0,0v.02s0,0,0,0v.008s0,0,0,0v.02s0,0,0,0v.008s0,0,0,0V7s0,0,0,0,0,0,0,0v.016s0,0,0,.006v.027s0,0,0,.006v.027s0,0,0,.006v.434s0,0,0,.006v.027s0,0,0,.006v.027s0,0,0,.006v.027s0,0,0,.006v.027s0,0,0,.006v.027s0,0,0,.006v.027s0,0,0,.006V7.76s0,0,0,.006V13s0,0,0,.006v.008s0,0,0,0v.009s0,0,0,0v.054s0,0,0,0v.008s0,0,0,0v3.03l0,.006v.006l0,.006v0h0l0,.006v.006l0,.006v.006l0,.006v.006l0,.006v.006l0,.006V16.2l0,.006,0,.006,0,.006v.006l0,.006v.006l0,.006v.006l0,.006,0,.006,0,.006v.006l0,.006v.006l0,.006V16.3l0,.006v.006l0,.006v.006l0,.006v.006l0,.006,0,.006,0,.006v.006l0,.006v.006l0,.006,0,.006,0,.006,0,.006,0,.006V16.4l0,.006v.006l0,.006v.006l0,.006v.006l0,.006v.006l0,.006v.006l0,.006v.006l0,.006v.006l0,.006V16.5l0,.006v.006l0,.006v.006l0,.006v.006l0,.006v.006l0,.006v.006l0,.006v.006l0,.006v.006l0,.006v.006l0,.006V16.6l0,.006v.006l0,.006v.006l0,.006v.006l0,.006v.006l0,.006v.006l0,.006v.006l0,.006v.006l0,.006v.006l0,.006v.006l0,.006v.006l0,.006v.006l0,.006v.006l0,.006,0,.006,0,.006v.006l0,.006v.006l0,.006v.006l0,.006V16.8l0,.006v.006l0,.006v.006l0,.006v.006l0,.006v.006l0,.006,0,.006,0,.006v.006l0,.006v.006l0,.006v.006l0,.006V16.9l0,.006,0,.006,0,.006v.006l0,.006v.006l0,.006v.006l0,.006v0l0,0,0,.006v.006l0,.006v.006l0,.006v.006l0,.006v.006l0,.006v.006l0,.006v.006l0,.006v.006l0,.006v.006l0,.006,0,.006,0,.006v.006l0,.006,0,.006,0,.006v0l0,0,0,.006v.006l0,.006v.006l0,.006v.006l0,.006v0l0,0,0,.006v.006l0,.006v.006l0,.006v.006l0,.006v.006l0,.006V17.2l0,.006v.006l0,.006,0,0v0l0,.006v0l0,0,0,.006v.006l0,.006v.006l0,.006v.006l0,.006,0,0v0l0,.006,0,.006,0,.006V17.3l0,.006,0,0v0l0,.006v0l0,0,0,.006,0,0v0l0,.006v0l0,0,0,.006,0,0v0l0,.006v0l0,0,0,.006,0,0v0l0,.006v0l0,0,0,.006,0,0v0l0,.006v0l0,0,0,.006,0,0v0l0,.006v0l0,0,0,.006,0,0v0l0,.006,0,0v0l0,.006,0,.006,0,.006,0,.006,0,.006,0,.006,0,.006v0l0,0,0,.006,0,.006,0,.006,0,.006,0,.006,0,.006,0,.006,0,.006,0,.006,0,.006,0,.006,0,.006,0,.006,0,0v0l0,.006v0l0,0,0,.006,0,0v0l0,.006,0,0v0l0,.006v0l0,0,0,.006,0,0v0l0,.006,0,0v0l0,.006,0,0v0l0,.006,0,0v0l0,.006,0,0v0l0,.006v0l0,0,0,.006,0,.006,0,.006v0l0,0,0,.006,0,.006,0,.006v0l0,0,0,.006v0l0,0,0,.006,0,0v0l0,.006v0l0,0,0,.006,0,0v0l0,.006,0,0v0l0,.006,0,0v0l0,.005,0,.006,0,.005,0,0v0l0,.005v0l0,0,0,.005v0l0,0,0,.005,0,.005,0,.005,0,.005,0,.005,0,0v0l0,.005,0,.005,0,.005,0,.005,0,.005,0,.005,0,.005,0,.005,0,.005,0,.005,0,.005,0,0v0l0,.005,0,0v0l0,.005v0l0,0,0,.005,0,0v0l0,.005,0,.005,0,.005,0,.005,0,.005,0,.005,0,.005,0,.005,0,.005v0l0,0,0,.005v0l0,0,0,.005,0,.005,0,.005,0,.005,0,.005,0,0v0l0,.005,0,0v0l0,.005,0,.005,0,.005,0,.005,0,.005v0l0,0,0,.005,0,.005,0,.005,0,.005,0,.005,0,0v0l0,.005,0,0v0l0,.005v0l0,0,0,.005,0,.005,0,.005v0l0,0,0,.005,0,0v0l0,.005,0,.005,0,.005,0,0,0,0,0,.005,0,.005,0,.005,0,.005,0,.005,0,.005,0,.005,0,.005,0,.005,0,.005,0,.005,0,.005,0,.005,0,0,0,0,0,.005,0,.005,0,.005,0,.005,0,.005,0,.005,0,.005,0,.005,0,.005,0,.005,0,.005,0,.005,0,.005,0,0,0,0,0,.005,0,.005,0,.005,0,.005,0,.005,0,0,0,0,0,.005,0,0,0,0,0,.005,0,.005,0,.005,0,.005,0,.005,0,.005,0,.005,0,.005,0,.005,0,.005,0,.005v0l0,0,0,.005,0,.005,0,.005,0,.005,0,.005,0,.005,0,.005,0,0,0,0,0,0,0,0,0,0,0,0,0,0,0,0,0,0,0,0,0,0,0,0,0,0,0,0,0,0,0,0,0,0,0,0,0,0,0,0,0,0,0,0,0,0,0,0,0,0,0,0,0,0,0,0,0,0,0,0v0l0,0,0,0,0,0,0,0,0,0,0,0,0,0,0,0,0,0,0,0,0,0,0,0,0,0,0,0,0,0,0,0,0,0,0,0,0,0,0,0,0,0,0,0,0,0,0,0,0,0,0,0,0,0,0,0,0,0,0,0,0,0,0,0,0,0,0,0,0,0,0,0,0,0,0,0,0,0,0,0,0,0,0,0,0,0,0,0,0,0,0,0,0,0,0,0,0,0,0,0,0,0,0,0,0,0,0,0,0,0,0,0,0,0,0,0,0,0,0,0,0,0,0,0,0,0,0,0,0,0,0,0,0,0,0,0,0,0,0,0,0,0,0,0,0,0,0,0,0,0,0,0,0,0,0,0,0,0,0,0,0,0,0,0,0,0,0,0,0,0,0,0,0,0,0,0,0,0,0,0,0,0,0,0,0,0,0,0,0,0,0,0,0,0h0l0,0,0,0,0,0,0,0,0,0,0,0,0,0,0,0,0,0,0,0,0,0,0,0,0,0,0,0,0,0,0,0,0,0,0,0,0,0,0,0,0,0,0,0,0,0,0,0,0,0,0,0,0,0,0,0,0,0,0,0,0,0,0,0,0,0,0,0,0,0,0,0,0,0,0,0,0,0,0,0,0,0,0,0-.005,0-.005,0-.005,0-.005,0-.005,0-.005,0-.005,0-.005,0-.005,0-.005,0-.005,0-.005,0-.005,0-.005,0-.005,0-.005,0-.005,0-.005,0-.005,0-.005,0-.005,0-.005,0-.005,0-.005,0-.005,0-.005,0-.005,0-.005,0-.005,0-.005,0-.005,0-.005,0-.005,0-.005,0-.005,0-.005,0-.005,0-.005,0-.005,0-.005,0-.005,0-.005,0-.005,0-.005,0-.005,0-.005,0-.005,0-.005,0-.005,0-.005,0-.005,0-.005,0-.005,0-.005,0-.005,0-.005,0-.005,0-.005,0-.005,0-.005,0-.005,0-.005,0-.005,0-.005,0-.005,0-.005,0-.005,0-.005,0-.005,0-.005,0-.005,0-.005,0-.005,0-.005,0-.005,0-.005,0-.005,0-.005,0-.005,0-.005,0-.005,0-.005,0-.005,0-.005,0-.005,0-.005,0-.005,0-.005,0-.005,0-.005,0-.005,0-.005,0-.005,0-.005,0-.005,0-.005,0-.005,0-.005,0-.005,0-.005,0-.005,0-.005,0-.005,0-.005,0-.005,0-.005,0-.005,0-.005,0-.005,0-.005,0-.005,0-.005,0-.005,0-.005,0-.005,0-.005,0-.005,0-.005,0-.005,0-.005,0-.005,0-.005,0-.005,0-.005,0-.005,0-.005,0-.005,0-.005,0-.005,0-.005,0-.005,0-.005,0-.006,0-.005,0-.006,0-.006,0-.006,0-.006,0-.006,0-.006,0-.006,0-.006,0-.006,0-.006,0-.006,0-.006,0-.006,0-.006,0-.006,0-.006,0-.006,0-.006,0-.006,0-.006,0-.006,0-.006,0-.006,0-.006,0-.006,0-.006,0-.006,0-.006,0-.006,0-.006,0-.006,0-.006,0-.006,0-.006,0-.006,0-.006,0-.006,0-.006,0-.006,0-.006,0-.006,0-.006,0-.006,0-.006,0-.006,0-.006,0-.006,0-.006,0-.006,0-.006,0-.006,0-.006,0-.006,0-.006,0-.006,0-.006,0-.006,0-.006,0-.006,0-.006,0-.006,0-.006,0-.006,0-.006,0-.006,0-.006,0-.006,0-.006,0-.006,0-.006,0-.006,0-.006,0-.006,0-.006,0-.006,0-.006,0-.006,0-.006,0-.006,0-.006,0-.006,0-.006,0-.006,0-.006,0-.006,0-.006,0-.006,0-.006,0L17.3,20,17.3,20l-.006,0-.006,0-.006,0-.006,0-.006,0-.006,0-.006,0-.006,0-.006,0-.006,0-.006,0-.006,0-.006,0-.006,0-.006,0-.006,0-.006,0-.006,0-.006,0-.006,0-.006,0-.006,0-.006,0-.006,0-.006,0-.006,0-.006,0-.006,0-.006,0-.006,0-.006,0-.006,0-.006,0-.006,0-.006,0-.006,0-.006,0-.006,0-.006,0-.006,0-.006,0-.006,0-.006,0-.006,0-.006,0-.006,0-.006,0-.006,0-.006,0-.006,0-.006,0-.006,0-.006,0-.006,0-.006,0-.006,0-.006,0-.006,0-.006,0-.006,0-.006,0-.006,0-.006,0-.006,0-.006,0-.006,0-.006,0-.006,0-.006,0-.006,0-.006,0-.006,0-.006,0-.006,0-.006,0-.006,0-.006,0-.006,0-.006,0-.006,0-.006,0-.006,0-.006,0-.006,0-.006,0-.006,0-.006,0-.006,0-.006,0-.006,0-.006,0-.006,0-.006,0-.006,0-.006,0-.006,0-.006,0-.006,0-.006,0-.006,0-.006,0-.006,0-.006,0-.006,0-.006,0-.006,0-.006,0-.006,0-.006,0-.006,0-.006,0-.006,0-.006,0-.006,0-.006,0-.006,0-.006,0-.006,0-.006,0-.006,0-.006,0-.006,0-.006,0-.006,0-.006,0-.006,0-.006,0-.006,0-.006,0-.006,0-.006,0-.006,0-.006,0-.006,0-.006,0-.006,0-.006,0-.006,0-.006,0-.006,0-.006,0-.006,0-.006,0-.006,0-.006,0-.006,0-.006,0-.006,0-.006,0-.006,0-.006,0-.006,0-.006,0-.006,0-.006,0-.006,0-.006,0-.006,0-.006,0-.006,0-.006,0-.006,0-.006,0-.006,0-.006,0-.006,0-.006,0-.006,0-.006,0-.006,0-.006,0-.006,0-.006,0-.006,0-.006,0-.006,0-.006,0-.006,0-.006,0-.006,0-.006,0-.006,0-.006,0-.006,0-.006,0-.006,0-.006,0-.006,0-.006,0-.006,0-.006,0-.006,0-.006,0-.006,0-.006,0-.006,0-.006,0-.006,0-.006,0-.006,0-.006,0h-.006l-.006,0h-.006l-.006,0h-3.1ZM7,19.25h8.329l.01,0h.109l.01,0,.01,0,.01,0,.01,0h.078l.01,0,.01,0,.01,0,.01,0,.01,0,.01,0,.01,0,.01,0h.029l.01,0,.01,0,.01,0,.01,0,.01,0,.01,0,.01,0,.01,0,.01,0,.01,0,.01,0,.01,0,.01,0,.01,0,.01,0,.01,0,.01,0,.01,0,.01,0,.01,0,.009,0,.009,0,.009,0,.009,0,.009,0,.009,0,.01,0,.01,0,.01,0,.009,0,.009,0,.009,0,.009,0,.009,0,.009,0,.009,0,.009,0,.009,0,.009,0,.009,0,.009,0,.009,0,.009,0,.009,0,.009,0,.009,0,.009,0,.009,0,.009,0,.009,0,.009,0,.009,0,.009,0,.009,0,.009,0,.009,0,.009,0,.009,0,.009,0,.009,0,.009,0,.009,0,.009,0,.009,0,.009,0,.009,0,.009,0,.009,0,.009,0,.009,0,.009,0,.009,0,.009,0,.009,0,.009,0,.009,0,.009,0,.009,0,.009,0,.009,0,.009,0,.009,0,.009,0,.009,0,.009,0,.009,0,.009,0,.009,0,.009,0,.009,0,.009,0,.009,0,.009,0,.009,0,.009,0,.009,0,.009,0,.009,0,.009,0,.009,0,.009,0,.009,0,.009,0,.009,0,.009,0,.009,0,.009,0,.009,0,.009,0,.009,0,.009,0,.009,0,.009,0,.009,0,.009,0,.009,0,.009,0,.009,0,.009,0,.009,0,.008,0,.008,0,.008,0,.009,0,.009,0,.008,0,.008,0,.008,0,.008,0,.008,0,.008,0,.008,0,.008,0,.008,0,.008,0,.008,0,.008,0,.008,0,.008,0,.008,0,.008,0,.008,0,.008,0,.008,0,.008,0,.008,0,.008,0,.008,0,.008,0,.008,0,.008,0,.008,0,.008,0,.008,0,.008,0,.008,0,.008,0,.008,0,.008,0,.008,0,.008,0,.008,0,.008,0,.008,0,.008,0,.008,0,.008,0,.008,0,.008,0,.008,0,.008,0,.008,0,.008,0,.008,0,.008,0,.008,0,.008-.005.008-.005.008-.005.008-.005.008-.005.008-.005,0,0,.007,0,0,0,0,0,.007,0,0,0,.008-.005.008-.005.008-.005.008-.005.008-.005.008-.005,0,0,.007-.005.008-.005.007-.005.007-.005.008-.005,0,0,0,0,.007-.005.007-.005,0,0,0,0,.007,0,0,0,0,0,.007-.005.007-.005,0,0,0,0,.007-.005,0,0,0,0,.007-.005,0,0,0,0,0,0,.007-.006,0,0,0,0,.007-.006,0,0,0,0,0,0,0,0,0,0,.006-.005,0,0,0,0,0,0,0,0,0,0,0,0,0,0,0,0,0,0,0,0,0,0,0,0,0,0,0,0,0,0,0,0,0,0,0,0,0,0,0,0,0,0,0,0,0,0,0,0,.006-.005,0,0,0,0,0,0,0,0,0,0,0,0,0,0,.007-.006,0,0,0,0,0,0,0,0,0,0,0,0,0,0,0,0,0,0,0,0,0,0,0,0,0,0,0,0,0,0,0,0,0,0,0,0,0,0,0,0,0,0,0,0,0,0,0,0,0,0,0,0,0,0,0,0,0,0,0,0,0,0,0,0,0,0,0,0,0,0,0,0,0,0,0,0,0,0,0,0,0,0,0,0,0,0,0,0,0,0,0,0,0,0,0,0,0,0,0,0,0,0,0,0,0,0,0,0,0,0,0,0,0,0,0,0,0,0,0,0,0,0,0,0,0,0,0,0,0,0,0,0,0,0,0,0,0,0,0,0,0,0,0,0,0,0,0,0,0,0,0,0,0,0,0,0,0,0,0,0,0,0,0,0,0,0,0,0,0,0,0,0,0,0,0,0,0,0,0,0,0,0,0,0,0,0,0,0,0,0,0,0,0,0,0,0,0,0,0,0,0,0,0,0,0,0,0,0,0,0,0,0,0,0,0,0,0,0,0,0,0,0,0,0,0,0,0,0,0,0,0,0,0,0,0,0,0,0,0,0,0,0,0,0,0,0,0,0,0,0,0,0,0,0,0,0,0,0,0,0,0,0,0,0,0,0,0,0,0,0,0,0,0,0,0,0,0,0,0,0,0,0,0,0,0,0,0,0,0,0,0,0,0,0,0,0,0,0,0,0,0,0,0,0,0,0,0,0,0,0,0,0,0,0,0,0,0,0,0,0,0,0,0,0,0,0,0,0,0,0,0,0,0,0,0,0,0,0,0,0,0,0,0,0,0,0,0,0,0,0,0,0,0,0,0,0,0,0,0,0,0,0,0,0,0,0,0,0,0,0,0,0,0,0,0,0,0,0,0,0,0,0,0,0,0,0,0,0,0,0,0,0,0,0,0,0,0,0,0,0,0,0,0,0,0,0,0,0,0,0,0,0,0,0,0,0,0,0,0,0,0,0,0,0,0,0,0,0,0,0,0,0,0,0,0,0,0,0,0,0,0,0,0,0,0,0,0,0,0,0,0,0,0,0,0,0,0,0,0,0,0,0,0,0,0,0,0,0,0,0,0,0,0,0,0,0,0,0,0,0,0,0,0,0,0,0,0,0,0,0,0,0,0,0,0,0,0,0,0,0,0,0,0,0,0,0,0,0,0,0,0,0,0,0,0,0,0,0,0,0,0,0,0,0,0,0,0,0,0,0,0,0,0,0,0,0,0,0,0,0,0,0,0,0,0,0,0,0,0,0,0,0,0,0,0,0,0,0,0,0,0,0,0,0,0,0,0,0,0,0,0,0,0,0,0,0,0,0,0,0,0,0,0,0,0,0,0,0,0,0,0,0,0,0,0,0,0,0,0,0,0,0,0,0,0,0,0,0,0-.005,0,0,0,0,0,0,0,0,0,0,0,0,0,0,0,0,0,0,0,0,0,0,0,0,0,0,0,0,0,0,0,0,0,0,0,0,0,0,0-.005,0,0,0,0,0,0,0,0,0,0,0,0,0,0,0,0,0,0,0,0,0,0,0,0,0,0,0,0,0,0,0,0,0,0,0,0,0,0,0-.005,0,0,0,0,0,0,0,0,0,0,0,0,0,0,0,0,0,0,0,0,0,0,0,0,0,0,0,0,0,0,0-.005,0,0,0,0,0,0,0,0,0,0,0,0,0,0,0,0,0,0,0,0,0,0,0,0,0,0,0,0,0,0,0,0,0,0,0-.005,0,0,0,0,0,0,0,0,0,0,0-.005v0l0,0,0,0,0,0,0,0,0,0,0,0,0,0,0,0,0-.005v0l0,0,0,0,0,0,0,0,0-.005v0l0,0,0,0,0,0,0,0,0,0,0,0,0-.005v0l0,0,0,0,0,0,0,0,0,0,0,0,0-.005v0l0,0,0,0,0,0,0,0,0-.005v0l0,0,0,0,0,0,0,0,0-.005v0l0,0,0,0,0,0,0,0,0,0,0,0,0,0,0,0,0-.005v0l0,0,0,0,0,0,0,0,0-.005v0l0-.005v0l0,0,0,0,0,0,0,0,0-.005v0l0,0v0l0,0,0,0,0,0v0l0-.005v0l0,0,0,0,0-.005v0l0,0,0,0,0-.005v0l0,0v0l0-.005v-.009l0,0,0-.005v0l0,0v-.009l0,0,0-.005v0l0,0v0l0-.005v0l0,0v0l0-.005v0l0,0v-.009l0,0,0-.005v0l0-.005v-.023l0,0v0l0,0v0l0,0V16l0-.005v0l0-.005v0l0-.005v-.014l0-.005v-.023l0-.006v-.377h0v0h0V15.15h0V15.04h0v-.052h0V14.8h0v-.291h0v-.456h0v-.03h0v-.151h0v-.1h0v-.714s0,0,0,0v-.028s0,0,0,0V7.5s0,0,0-.006V7.468s0,0,0-.006V7.435s0,0,0-.005V7.4s0,0,0-.005V7.369s0,0,0-.005V7s0,0,0-.005h0s0,0,0-.005V6.985s0,0,0,0V6.434h0V6.427h0V6.291h0V6.26h0V5.727h0V5.72h0V5.638h0V5.175h0v-.4h0V4.638h0V4.618h0V4.6h0V4.438h0V4.072l0-.006V4l0-.005v0l0-.005v0l0-.005V3.959l0-.005v0l0,0v0l0,0v0l0-.005v0l0,0v0l0-.005V3.9l0,0,0-.005v0l0-.005V3.87l0,0,0-.005V3.851l0,0,0,0v0l0,0v0l0,0v0l0-.005v0l0,0,0,0,0-.005v0l0-.005v0l0,0,0,0,0,0,0,0v0l0,0,0-.005v0l0-.005v0l0,0,0,0,0-.005v0l0,0,0,0,0,0,0,0,0,0,0,0,0,0v0l0,0,0,0,0,0,0,0,0,0,0,0,0-.005,0,0,0,0,0,0,0,0,0,0,0,0,0,0,0-.005v0l0,0,0,0,0,0,0,0,0,0,0,0,0,0,0,0,0,0,0,0,0-.005,0,0,0,0,0,0,0-.005,0,0,0,0,0,0,0,0,0,0,0,0,0,0,0,0,0,0,0,0,0,0,0,0,0,0,0,0,0,0,0-.005,0,0,0,0,0,0,0,0,0,0,0,0,0,0,0-.005,0,0,0,0,0,0,0-.005,0,0,0,0,0,0,0,0,0,0,0,0,0,0,0,0,0,0,0,0,0,0,0,0,0,0,0-.005,0,0,0,0,0,0,0,0,0,0,0,0,0,0,0-.005,0,0,0,0,0,0,0-.005,0,0,0,0,0,0,0,0,0,0,0,0,0,0,0,0,0,0,0,0,0,0,0,0,0,0,0,0,0,0,0,0,0,0,0,0,0,0,0,0,0,0,0,0,0,0,0,0,0,0,0,0,0,0,0,0,0,0,0,0,0,0,0,0,0,0,0,0,0,0,0,0,0,0,0,0,0,0,0,0,0,0,0,0,0,0,0,0,0,0,0,0,0,0,0,0,0,0,0,0,0,0,0,0,0,0,0,0,0,0,0,0,0,0,0,0,0,0,0,0,0,0,0,0,0,0,0,0,0,0,0,0,0,0,0,0,0,0,0,0,0,0,0,0,0,0,0,0,0,0,0,0,0,0,0,0,0,0,0,0,0,0,0,0,0,0,0,0,0,0,0,0,0,0,0,0,0,0,0,0,0,0,0,0,0,0,0,0,0,0,0,0,0,0,0,0,0,0,0,0,0,0,0,0,0,0,0,0,0,0,0,0,0,0,0,0,0,0,0,0,0,0,0,0,0,0,0,0,0,0,0,0,0,0,0,0,0,0,0,0,0,0,0,0,0,0,0,0,0,0,0,0,0,0,0,0,0,0,0,0,0,0,0,0,0,0,0,0,0,0,0,0,0,0,0,0,0,0,0,0,0,0,0,0,0,0,0,0,0,0,0,0,0,0,0,0,0,0,0,0,0,0,0,0,0,0,0,0,0,0,0,0,0,0,0,0,0,0,0,0,0,0,0,0,0,0,0,0,0,0,0,0,0,0,0,0,0,0,0,0,0,0,0,0,0,0,0,0,0,0,0,0,0,0,0,0,0,0,0,0,0,0,0,0,0,0,0,0,0,0,0,0,0,0,0,0,0,0,0,0,0,0,0,0,0,0,0,0,0,0,0,0,0,0,0,0,0,0,0,0,0,0,0,0,0,0,0,0,0,0,0,0,0,0,0,0,0,0,0,0,0,0,0,0,0,0,0,0,0,0,0,0,0,0,0,0,0,0,0,0,0,0,0,0,0,0,0,0,0,0,0,0,0,0,0,0,0,0,0,0,0,0,0,0,0,0,0,0,0,0,0,0,0,0,0,0,0,0,0,0,0,0,0,0,0,0,0,0,0,0,0,0,0,0,0,0,0,0,0,0,0,0,0,0,0,0,0,0,0,0,0,0,0,0,0,0,0,0,0,0,0,0,0,0,0,0,0,0,0,0,0,0,0,0,0,0,0,0,0,0,0,0,0,0,0,0,0,0,0,0,0,0,0,0,0,0,0,0,0,0,0,0,0,0,0,0,0,0,0,0,0,0,0,0,0,0,0,0,0,0,0,0,0,0,0,0,0,0,0,0,0,0,0,0,0,0,0,0,0,0,0,0,0,0,0,0,0,0,0,0,0,0,0,0,0,0,0,0,0,0,0,0,0,0,0,0,0,0,0,0,0,0,0,0,0,0,0,0,0,0,0,0,0,0,0,0,0,0,0,0,0,0,0,0,0,0,0,0,0,0,0,0,0,0,0,0,0,0,0,0,0,0,0,0,0,0,0,0,0,0,0,0,0,0,0,0,0,0,0,0,0,0,0,0,0,0,0,0,0,0,0,0,0,0,0,0,0,0,0,0,0,0,0,0,0,0,0,0,0,0-.006-.005,0,0,0,0,0,0,0,0,0,0,0,0,0,0,0,0,0,0,0,0,0,0,0,0L17.6,1.931l0,0,0,0,0,0,0,0,0,0,0,0,0,0,0,0,0,0,0,0,0,0,0,0-.006-.005,0,0,0,0,0,0,0,0-.007-.005,0,0,0,0,0,0,0,0,0,0,0,0,0,0,0,0-.007-.005-.007-.006,0,0,0,0-.007-.005,0,0,0,0,0,0,0,0-.007-.005-.007-.005,0,0,0,0L17.426,1.8l-.007-.005-.007-.005,0,0,0,0-.007,0-.007-.005-.007-.005,0,0,0,0,0,0,0,0-.007-.005-.007-.005-.008-.005-.008-.005,0,0,0,0-.007,0-.008-.005-.008-.005-.007,0L17.29,1.7,17.282,1.7l-.008-.005-.007,0-.008-.005-.008-.005-.008-.005-.007,0-.008-.005-.008-.005-.008,0L17.2,1.646l-.007,0-.008,0-.008-.005-.008,0-.008,0-.008,0-.008,0-.008,0L17.134,1.6l-.007,0-.008-.005-.007,0L17.1,1.584l-.008,0-.008,0-.007,0-.009,0-.008,0-.008,0-.008,0-.008,0-.008,0-.008,0-.008,0-.008,0-.009,0-.008,0-.008,0-.008,0-.009,0-.008,0-.008,0-.008,0-.008,0-.008,0-.008,0-.008,0-.008,0-.009,0-.008,0-.008,0-.009,0-.008,0-.009,0-.008,0-.008,0-.009,0-.008,0-.008,0-.009,0-.008,0-.009,0-.008,0-.009,0-.009,0-.008,0-.008,0-.009,0-.008,0-.009,0-.008,0-.009,0-.008,0-.009,0-.008,0-.008,0-.008,0-.009,0-.008,0-.009,0-.008,0-.009,0-.008,0-.01,0-.008,0-.009,0-.009,0-.008,0-.009,0-.009,0-.009,0-.01,0-.008,0-.009,0-.009,0-.009,0-.009,0-.008,0-.01,0-.008,0-.009,0-.009,0-.009,0-.009,0-.009,0-.009,0-.008,0-.01,0-.009,0-.009,0-.009,0-.009,0-.009,0-.009,0-.009,0-.008,0-.01,0-.009,0-.01,0-.009,0-.009,0-.009,0-.009,0-.009,0-.009,0-.009,0-.009,0-.01,0-.009,0-.009,0-.009,0-.008,0-.01,0-.009,0-.009,0-.01,0-.009,0-.01,0-.009,0-.009,0-.009,0-.01,0-.009,0-.009,0-.01,0-.009,0-.009,0-.01,0-.009,0-.01,0-.009,0-.01,0-.009,0-.009,0-.01,0-.009,0-.01,0-.009,0-.01,0-.01,0-.009,0-.009,0-.009,0-.01,0-.01,0-.009,0-.01,0-.01,0-.01,0-.01,0-.009,0-.01,0-.009,0-.01,0-.01,0-.009,0-.01,0-.009,0-.01,0-.009,0-.009,0-.01,0-.009,0h-.034l-.01,0-.01,0-.01,0-.01,0-.01,0-.01,0-.01,0-.01,0h-.078l-.01,0-.01,0-.01,0-.01,0h-.109l-.01,0H4.674l-.01,0H4.556l-.01,0-.01,0-.01,0-.01,0-.01,0H4.438l-.01,0-.01,0-.01,0-.01,0-.01,0-.01,0-.01,0-.01,0H4.332l-.01,0-.01,0-.01,0-.01,0-.01,0-.01,0-.01,0-.01,0-.01,0-.01,0-.01,0-.01,0-.01,0-.01,0-.01,0-.01,0-.01,0-.01,0-.01,0-.01,0-.01,0-.009,0-.009,0-.009,0-.009,0-.009,0-.009,0-.01,0-.01,0-.009,0-.009,0-.009,0-.009,0-.009,0L4,1.113l-.009,0-.009,0-.009,0-.009,0-.009,0-.009,0-.009,0-.009,0-.009,0-.009,0-.009,0-.009,0-.009,0-.009,0-.009,0-.009,0-.009,0-.009,0-.009,0-.009,0-.009,0-.009,0-.009,0-.009,0-.009,0-.009,0-.009,0-.009,0-.009,0-.009,0-.009,0-.009,0-.009,0-.009,0-.009,0-.009,0-.009,0-.009,0-.009,0-.009,0-.009,0-.009,0-.009,0-.009,0-.009,0-.009,0-.009,0-.009,0-.009,0-.009,0-.009,0-.009,0-.009,0-.009,0-.009,0-.009,0-.009,0-.009,0-.009,0-.009,0-.009,0-.009,0-.009,0-.009,0-.009,0-.009,0-.009,0-.009,0-.009,0-.009,0-.009,0-.009,0-.009,0-.009,0-.009,0-.009,0-.009,0-.009,0-.009,0-.009,0-.009,0-.009,0-.009,0-.009,0-.009,0-.009,0-.008,0-.008,0-.008,0-.009,0-.009,0-.008,0-.008,0-.008,0-.008,0-.008,0-.008,0-.008,0-.008,0-.008,0-.008,0-.008,0-.008,0-.008,0-.008,0-.008,0-.008,0-.008,0-.008,0-.008,0-.008,0-.008,0L3,1.526l-.008,0-.008,0-.008,0-.008,0-.008,0-.008,0-.008,0-.008,0-.008,0-.008,0-.008,0-.008,0-.008,0-.008,0-.008,0-.008,0-.008,0-.008,0-.008,0-.008,0-.008,0-.008,0-.008,0-.008,0-.008,0-.008,0-.008,0-.008,0-.008.005-.008.005-.008.005-.008.005-.008.005-.008.005-.008.005L2.713,1.7,2.705,1.7,2.7,1.71l-.008.005-.008.005-.008.005,0,0-.007,0-.007,0,0,0,0,0-.007,0-.007.005,0,0,0,0-.006,0,0,0,0,0,0,0,0,0-.007,0,0,0,0,0,0,0,0,0,0,0,0,0L2.566,1.8l-.007.005,0,0,0,0-.007.005-.007.006,0,0,0,0-.007,0-.007.006,0,0L2.5,1.849l0,0,0,0,0,0,0,0,0,0-.007.005,0,0,0,0,0,0,0,0,0,0,0,0-.007.006,0,0,0,0,0,0,0,0,0,0,0,0,0,0-.007.006,0,0-.006.005,0,0,0,0,0,0,0,0,0,0,0,0,0,0,0,0,0,0,0,0,0,0,0,0-.006.005,0,0,0,0,0,0,0,0,0,0,0,0,0,0,0,0,0,0,0,0,0,0,0,0,0,0,0,0,0,0,0,0,0,0,0,0,0,0,0,0,0,0,0,0,0,0,0,0,0,0,0,0,0,0,0,0-.006.006,0,0,0,0-.006.005,0,0,0,0,0,0,0,0,0,0,0,0,0,0,0,0,0,0,0,0,0,0,0,0,0,0,0,0,0,0,0,0,0,0,0,0,0,0,0,0,0,0,0,0,0,0,0,0,0,0,0,0,0,0,0,0,0,0,0,0,0,0,0,0,0,0,0,0,0,0,0,0,0,0,0,0,0,0,0,0,0,0,0,0,0,0,0,0,0,0,0,0,0,0,0,0,0,0,0,0,0,0,0,0,0,0,0,0,0,0,0,0,0,0,0,0,0,0,0,0,0,0,0,0,0,0,0,0,0,0,0,0,0,0,0,0,0,0,0,0,0,0,0,0,0,0,0,0,0,0,0,0,0,0,0,0,0,0,0,0,0,0,0,0,0,0,0,0,0,0,0,0,0,0,0,0,0,0,0,0,0,0,0,0,0,0,0,0,0,0,0,0,0,0,0,0,0,0,0,0,0,0,0,0,0,0,0,0,0,0,0,0,0,0,0,0,0,0,0,0,0,0,0,0,0,0,0,0,0,0,0,0,0,0,0,0,0,0,0,0,0,0,0,0,0,0,0,0,0,0,0,0,0,0,0,0,0,0,0,0,0,0,0,0,0,0,0,0,0,0,0,0,0,0,0,0,0,0,0,0,0,0,0,0,0,0,0,0,0,0,0,0,0,0,0,0,0,0,0,0,0,0,0,0,0,0,0,0,0,0,0,0,0,0,0,0,0,0,0,0,0,0,0,0,0,0,0,0,0,0,0,0,0,0,0,0,0,0,0,0,0,0,0,0,0,0,0,0,0,0,0,0,0,0,0,0,0,0,0,0,0,0,0,0,0,0,0,0,0,0,0,0,0,0,0,0,0,0,0,0,0,0,0,0,0,0,0,0,0,0,0,0,0,0,0,0,0,0,0,0,0,0,0,0,0,0,0,0,0,0,0,0,0,0,0,0,0,0,0,0,0,0,0,0,0,0,0,0,0,0,0,0,0,0,0,0,0,0,0,0,0,0,0,0,0,0,0,0,0,0,0,0,0,0,0,0,0,0,0,0,0,0,0,0,0,0,0,0,0,0,0,0,0,0,0,0,0,0,0,0,0,0,0,0,0,0,0,0,0,0,0,0,0,0,0,0,0,0,0,0,0,0,0,0,0,0,0,0,0,0,0,0,0,0,0,0,0,0,0,0,0,0,0,0,0,0,0,0,0,0,0,0,0,0,0,0,0,0,0,0,0,0,0,0,0,0,0,0,0,0,0,0,0,0,0,0,0,0,0,0,0,0,0,0,0,0,0,.005,0,0,0,0,0,0,0,0,0,0,0,0,0,0,0,0,0,0,0,0,0,0,0,0,0,0,0,0,0,0,0,0,0,0,0,0,0,0,0,0,0,0,0,0,0,0,0,0,0,0,0,0,0,0,0,0,0,0,0,.005,0,0,0,0,0,0,0,0,0,0,0,0,0,0,0,0,0,0,0,0,0,0,0,0,0,0,0,0,0,0,0,0,0,0,0,0,0,0,0,0,0,0,0,.005,0,0,0,0,0,0,0,0,0,0,0,0,0,0,0,0,0,0,0,0,0,0,0,.005,0,0,0,0,0,0,0,0,0,0,0,0,0,0,0,.005v0l0,0,0,0,0,0,0,0,0,0,0,0,0,0,0,0,0,0,0,0,0,0,0,0,0,0,0,0,0,.005,0,0,0,0,0,0,0,0,0,0,0,0,0,0,0,0,0,0,0,.005v0l0,0,0,0,0,.005v0l0,0,0,0,0,0,0,0,0,0,0,0,0,0,0,0,0,0,0,0,0,0,0,0,0,0,0,0,0,.005v0l0,0,0,0,0,0,0,0,0,0,0,0,0,.005v0l0,0,0,0,0,0,0,0,0,0v0l0,0v0l0,0,0,0,0,.005v0l0,0,0,0,0,.005v0l0,0,0,0,0,0,0,0,0,0v0l0,0v0l0,0,0,0,0,.005v0l0,.005v0l0,0,0,0,0,.005v0l0,0v.009l0,0,0,.005v0l0,.005v.008l0,0,0,.005v.008l0,0,0,0v0l0,.006v0l0,.005v0l0,0v0l0,0v0l0,.005v0l0,0v.014l0,0v.014l0,.006v.041l0,.005v.014l0,.005v0l0,.005v.023l0,.006v.042l0,.006v.233h0v.9h0v.237h0v.532h0V6.49h0v.371h0v.005h0v.043s0,0,0,0v.028s0,0,0,0v.008s0,0,0,0v.019s0,0,0,0V7s0,0,0,.005v.005s0,0,0,.006v.005s0,0,0,.005v.006s0,0,0,.005V7.04s0,0,0,.006v.005s0,0,0,.005v.006s0,0,0,.005v.005s0,0,0,.006v.005s0,0,0,.005v.006s0,0,0,.005v.005s0,0,0,.006v.005s0,0,0,.005v.006s0,0,0,.005v.005s0,0,0,.006V7.15s0,0,0,.005v.006s0,0,0,.005v.005s0,0,0,.006v.005s0,0,0,.005v.006s0,0,0,.005V7.2s0,0,0,.006v.005s0,0,0,.005v.006s0,0,0,.005v.005s0,0,0,.006v.005s0,0,0,.005V7.26s0,0,0,.005v.005s0,0,0,.006v.005s0,0,0,.005v.006s0,0,0,.005V7.3s0,0,0,.006v.005s0,0,0,.005v.006s0,0,0,.005v.005s0,0,0,.006v.005s0,0,0,.005v.006s0,0,0,.005V7.37s0,0,0,.006v.005s0,0,0,.005v.006s0,0,0,.005V7.4s0,0,0,.006v.005s0,0,0,.005v.006s0,0,0,.005v.005s0,0,0,.006v.005s0,0,0,.005v.006s0,0,0,.005v.005s0,0,0,.006V7.48s0,0,0,.005v.006s0,0,0,.005V7.5s0,0,0,.006v.005s0,0,0,.005v.006s0,0,0,.005v.005s0,0,0,.006v.005s0,0,0,.005v.006s0,0,0,.005v.006s0,0,0,.005v.005s0,0,0,.006V7.59s0,0,0,.005V7.6s0,0,0,.005v.005s0,0,0,.006v.005s0,0,0,.005v.006s0,0,0,.005v.005s0,0,0,.006v.005s0,0,0,.005v.006s0,0,0,.005v.005s0,0,0,.006v.005s0,0,0,.005V7.7s0,0,0,.005v.005s0,0,0,.006v.005s0,0,0,.005v.006s0,0,0,.005v.005s0,0,0,.006v.005s0,0,0,.005v.006s0,0,0,.005v.005s0,0,0,.006v.005s0,0,0,.005V7.8s0,0,0,.005V7.81s0,0,0,.006v.005s0,0,0,.005v.006s0,0,0,.005v.005s0,0,0,.006v.005s0,0,0,.005v.006s0,0,0,.005v.005s0,0,0,.006v.005s0,0,0,.005V7.9s0,0,0,.005v.005s0,0,0,.006V7.92s0,0,0,.005v.006s0,0,0,.005v.005s0,0,0,.006v.005s0,0,0,.005v.006s0,0,0,.005v.005s0,0,0,.006v.005s0,0,0,.005V8s0,0,0,.006v.005s0,0,0,.005v.005s0,0,0,.005V8.03s0,0,0,.006v.005s0,0,0,.005v.005s0,0,0,.005v.005s0,0,0,.006v.005s0,0,0,.005v.005s0,0,0,.005V8.1s0,0,0,.006v.005s0,0,0,.005v.005s0,0,0,.005v.005s0,0,0,.006V8.14s0,0,0,.005v.005s0,0,0,.005v.005s0,0,0,.006v.005s0,0,0,.005v.005s0,0,0,.005v.005s0,0,0,.006v.005s0,0,0,.005v.005s0,0,0,.005v.005s0,0,0,.006v.005s0,0,0,.005V8.25s0,0,0,.005v.005s0,0,0,.006v.005s0,0,0,.005v.005s0,0,0,.005v.005s0,0,0,.006V8.3s0,0,0,.005v.005s0,0,0,.005v.005s0,0,0,.006v.005s0,0,0,.005v.005s0,0,0,.005V8.36s0,0,0,.006v.005s0,0,0,.005v.005s0,0,0,.005v.005s0,0,0,.006V8.4s0,0,0,.005v.005s0,0,0,.005v.005s0,0,0,.006v.005s0,0,0,.005v.005s0,0,0,.005v.005s0,0,0,.006V8.47s0,0,0,.005v.005s0,0,0,.005v.005s0,0,0,.006V8.5s0,0,0,.005v.005s0,0,0,.005v.005s0,0,0,.006v.005s0,0,0,.005v.005s0,0,0,.005v.005s0,0,0,.006v.005s0,0,0,.005V8.58s0,0,0,.005v.005s0,0,0,.006V8.6s0,0,0,.005v.005s0,0,0,.005v.006s0,0,0,.005v.005s0,0,0,.005v.005s0,0,0,.005v.006s0,0,0,.005v.005s0,0,0,.005v.005s0,0,0,.005V8.69s0,0,0,.005V8.7s0,0,0,.005v.005s0,0,0,.005v.006s0,0,0,.005v.005s0,0,0,.005v.005s0,0,0,.005v.006s0,0,0,.005v.005s0,0,0,.005v.005s0,0,0,.005v.006s0,0,0,.005V8.8s0,0,0,.005v.005s0,0,0,.005v.006s0,0,0,.005v.005s0,0,0,.005v.005s0,0,0,.005v.006s0,0,0,.005v.005s0,0,0,.005v.005s0,0,0,.005v.006s0,0,0,.005V8.9s0,0,0,.005V8.91s0,0,0,.005v.006s0,0,0,.005v.005s0,0,0,.005v.005s0,0,0,.005v.006s0,0,0,.005v.005s0,0,0,.005v.005s0,0,0,.005v.006s0,0,0,.005V9s0,0,0,.005v.005s0,0,0,.005V9.02s0,0,0,.005v.005s0,0,0,.005v.005s0,0,0,.005v.006s0,0,0,.005v.005s0,0,0,.005v.005s0,0,0,.005v.006s0,0,0,.005V9.1s0,0,0,.005v.005s0,0,0,.005v.006s0,0,0,.005V9.13s0,0,0,.005v.005s0,0,0,.005v.006s0,0,0,.005v.005s0,0,0,.005v.005s0,0,0,.005v.006s0,0,0,.005V9.2s0,0,0,.005v.005s0,0,0,.005v.006s0,0,0,.005v.005s0,0,0,.005V9.24s0,0,0,.005v.006s0,0,0,.005v.005s0,0,0,.005v.005s0,0,0,.005v.006s0,0,0,.005v.005s0,0,0,.005v.005s0,0,0,.006v.005s0,0,0,.005v.005s0,0,0,.005v.005s0,0,0,.006V9.35s0,0,0,.005v.005s0,0,0,.005v.005s0,0,0,.006v.005s0,0,0,.005v.005s0,0,0,.005V9.4s0,0,0,.006v.005s0,0,0,.005v.005s0,0,0,.005v.005s0,0,0,.006v.005s0,0,0,.005V9.46s0,0,0,.005v.005s0,0,0,.006v.005s0,0,0,.005v.005s0,0,0,.005V9.5s0,0,0,.006v.005s0,0,0,.005v.005s0,0,0,.005v.005s0,0,0,.006v.005s0,0,0,.005v.005s0,0,0,.005V9.57s0,0,0,.006v.005s0,0,0,.005v.005s0,0,0,.005V9.6s0,0,0,.006v.005s0,0,0,.005v.005s0,0,0,.005v.005s0,0,0,.006v.005s0,0,0,.005v.005s0,0,0,.005v.005s0,0,0,.006V9.68s0,0,0,.005v.005s0,0,0,.005V9.7s0,0,0,.006v.005s0,0,0,.005v.005s0,0,0,.005v.005s0,0,0,.006v.005s0,0,0,.005v.005s0,0,0,.005v.005s0,0,0,.006v.005s0,0,0,.005V9.79s0,0,0,.005V9.8s0,0,0,.006v.005s0,0,0,.005v.005s0,0,0,.005v.005s0,0,0,.006v.005s0,0,0,.005v.005s0,0,0,.005v.005s0,0,0,.006v.005s0,0,0,.005v.005s0,0,0,.005V9.9s0,0,0,.006v.005s0,0,0,.005v.005s0,0,0,.005v.005s0,0,0,.006v.005s0,0,0,.005v.005s0,0,0,.005v.005s0,0,0,.006v.005s0,0,0,.005v.005s0,0,0,.005V10s0,0,0,.005v.005s0,0,0,.005v.005s0,0,0,.005v.006s0,0,0,.005v.005s0,0,0,.005v.005s0,0,0,.005v.006s0,0,0,.005v.005s0,0,0,.005v.005s0,0,0,.005V10.1s0,0,0,.005v.005s0,0,0,.005v.005s0,0,0,.005v.006s0,0,0,.005v.005s0,0,0,.005v.005s0,0,0,.005v.006s0,0,0,.005v.005s0,0,0,.005v.005s0,0,0,.005V10.2s0,0,0,.005v.005s0,0,0,.005v.005s0,0,0,.005v.006s0,0,0,.005v.005s0,0,0,.005v.005s0,0,0,.005v.006s0,0,0,.005v.005s0,0,0,.005v.005s0,0,0,.005V10.3s0,0,0,.005v.005s0,0,0,.005v.005s0,0,0,.005v.006s0,0,0,.005v.005s0,0,0,.005v.005s0,0,0,.005v.006s0,0,0,.005v.005s0,0,0,.005v.005s0,0,0,.005v.006s0,0,0,.005v.005s0,0,0,.005v.005s0,0,0,.005v.006s0,0,0,.005v.005s0,0,0,.005v.005s0,0,0,.005v.006s0,0,0,.005v.005s0,0,0,.005v.005s0,0,0,.005v.006s0,0,0,.005V10.5s0,0,0,.005v.005s0,0,0,.005v.006s0,0,0,.005v.005s0,0,0,.005v.005s0,0,0,.005v.006s0,0,0,.005v.005s0,0,0,.005v.005s0,0,0,.005v.006s0,0,0,.005V10.6s0,0,0,.005v.005s0,0,0,.005v.006s0,0,0,.005v.005s0,0,0,.005v.005s0,0,0,.005v.006s0,0,0,.005v.005s0,0,0,.005v.005s0,0,0,.006v.005s0,0,0,.005V10.7s0,0,0,.005v.005s0,0,0,.006v.005s0,0,0,.005v.005s0,0,0,.005v.005s0,0,0,.006v.005s0,0,0,.005v.005s0,0,0,.005v.005s0,0,0,.006v.005s0,0,0,.005V10.8s0,0,0,.005v.005s0,0,0,.006v.005s0,0,0,.005v.005s0,0,0,.005v.005s0,0,0,.006v.005s0,0,0,.005v.005s0,0,0,.005v.005s0,0,0,.006v.005s0,0,0,.005V10.9s0,0,0,.005v.005s0,0,0,.006v.005s0,0,0,.005v.005s0,0,0,.005v.005s0,0,0,.006v.005s0,0,0,.005v.005s0,0,0,.005v.005s0,0,0,.006v.005s0,0,0,.005V11s0,0,0,.005v.005s0,0,0,.006v.005s0,0,0,.005v.005s0,0,0,.005v.005s0,0,0,.006v.005s0,0,0,.005v.005s0,0,0,.005v.005s0,0,0,.006v.005s0,0,0,.005V11.1s0,0,0,.005v.005s0,0,0,.006v.005s0,0,0,.005v.005s0,0,0,.005v.005s0,0,0,.006v.005s0,0,0,.005v.005s0,0,0,.005v.005s0,0,0,.006v.005s0,0,0,.005V11.2s0,0,0,.005v.005s0,0,0,.006v.005s0,0,0,.005v.005s0,0,0,.005v.005s0,0,0,.006v.005s0,0,0,.005v.005s0,0,0,.005v.005s0,0,0,.006v.005s0,0,0,.005V11.3s0,0,0,.005v.005s0,0,0,.006v.005s0,0,0,.005v.005s0,0,0,.005v.005s0,0,0,.006v.005s0,0,0,.005v.005s0,0,0,.005v.006s0,0,0,.005v.005s0,0,0,.005V11.4s0,0,0,.005v.006s0,0,0,.005v.005s0,0,0,.005v.005s0,0,0,.005v.006s0,0,0,.005v.005s0,0,0,.005v.005s0,0,0,.005v.006s0,0,0,.005v.005s0,0,0,.005v.005s0,0,0,.005v.006s0,0,0,.005v.005s0,0,0,.005v.005s0,0,0,.005v.006s0,0,0,.005v.005s0,0,0,.005v.005s0,0,0,.005v.006s0,0,0,.005v.005s0,0,0,.005v.005s0,0,0,.005V11.6s0,0,0,.005v.005s0,0,0,.005v.005s0,0,0,.005v.006s0,0,0,.005v.005s0,0,0,.005v.005s0,0,0,.005v.006s0,0,0,.005v.005s0,0,0,.005v.005s0,0,0,.005V11.7s0,0,0,.005v.005s0,0,0,.005v.005s0,0,0,.005v.006s0,0,0,.005v.005s0,0,0,.005v.005s0,0,0,.005v.006s0,0,0,.005v.005s0,0,0,.005v.005s0,0,0,.005V11.8s0,0,0,.005v.005s0,0,0,.005v.005s0,0,0,.005v.006s0,0,0,.005v.005s0,0,0,.005v.005s0,0,0,.005v.006s0,0,0,.005v.005s0,0,0,.005v.005s0,0,0,.005V11.9s0,0,0,.005v.005s0,0,0,.005v.005s0,0,0,.005v.006s0,0,0,.005v.005s0,0,0,.005v.005s0,0,0,.005v.006s0,0,0,.005v.005s0,0,0,.005v.005s0,0,0,.005V12s0,0,0,.005v.005s0,0,0,.005v.005s0,0,0,.005v.006s0,0,0,.005v.005s0,0,0,.005v.005s0,0,0,.006v.005s0,0,0,.005v.005s0,0,0,.005v.005s0,0,0,.006V12.1s0,0,0,.005v.005s0,0,0,.005v.005s0,0,0,.006v.005s0,0,0,.005v.005s0,0,0,.005v.005s0,0,0,.006v.005s0,0,0,.005v.005s0,0,0,.005v.005s0,0,0,.006V12.2s0,0,0,.005v.005s0,0,0,.005v.005s0,0,0,.006v.005s0,0,0,.005v.005s0,0,0,.005v.005s0,0,0,.006v.005s0,0,0,.005v.005s0,0,0,.005v.005s0,0,0,.006V12.3s0,0,0,.005v.005s0,0,0,.005v.005s0,0,0,.006v.005s0,0,0,.005v.005s0,0,0,.005v.005s0,0,0,.006v.005s0,0,0,.005v.005s0,0,0,.005v.005s0,0,0,.006V12.4s0,0,0,.005v.005s0,0,0,.005v.005s0,0,0,.006v.005s0,0,0,.005v.005s0,0,0,.005v.005s0,0,0,.006v.005s0,0,0,.005v.005s0,0,0,.005v.005s0,0,0,.006V12.5s0,0,0,.005v.005s0,0,0,.005v.005s0,0,0,.006v.005s0,0,0,.005v.005s0,0,0,.005v.005s0,0,0,.006v.005s0,0,0,.005v.005s0,0,0,.005v.005s0,0,0,.006v.005s0,0,0,.005v.005s0,0,0,.005v.005s0,0,0,.006v.005s0,0,0,.005v.005s0,0,0,.005v.005s0,0,0,.006v.005s0,0,0,.005v.005s0,0,0,.005v.005s0,0,0,.006v.005s0,0,0,.005V12.7s0,0,0,.005v.005s0,0,0,.006v.005s0,0,0,.005v.005s0,0,0,.005v.006s0,0,0,.005v.005s0,0,0,.005v.005s0,0,0,.005v.006s0,0,0,.005v.005s0,0,0,.005V12.8s0,0,0,.005v.006s0,0,0,.005v.005s0,0,0,.005v.005s0,0,0,.005v.006s0,0,0,.005v.005s0,0,0,.005v.005s0,0,0,.005v.006s0,0,0,.005v.005s0,0,0,.005V12.9s0,0,0,.005v.006s0,0,0,.005v.005s0,0,0,.005v.005s0,0,0,.005v.006s0,0,0,.005v.005s0,0,0,.005v.005s0,0,0,.005v.006s0,0,0,.005v.005s0,0,0,.005,0,0,0,.005h0s0,0,0,.005v.005s0,0,0,0v.03s0,0,0,0v.03s0,0,0,0v.054h0v.226h0v.428h0v.082h0v.206h0v.085h0v.005h0v.95h0v.1h0v.608l0,.006v.07l0,.005v.033l0,.005v.023l0,.005v.06l0,.005v.023l0,.005v0l0,0v0l0,0v0l0,.005v0l0,.005v0l0,.005v.009l0,0,0,.005v.009l0,0,0,.005v.008l0,0,0,.005v0l0,0,0,0,0,.005v0l0,0,0,0,0,.005v0l0,0,0,0,0,0,0,0,0,0,0,0,0,.005v0l0,0,0,0,0,0,0,0,0,.005v0l0,.005v0l0,0,0,0,0,0,0,0,0,.005v0l0,0,0,0,0,.005v0l0,0,0,0,0,0,0,0,0,0,0,0,0,0,0,0,0,.005v0l0,0,0,0,0,.005v0l0,0,0,0,0,0,0,0,0,0,0,0,0,0,0,0,0,0,0,0,0,0,0,0,0,0,0,0,0,.005,0,0,0,0,0,0,0,0,0,0,0,0,0,0,0,0,0,0,0,.005,0,0,0,0,0,0,0,.005,0,0,0,0,0,0,0,0,0,0,0,0,0,0,0,0,0,0,0,.005,0,0,0,0,0,0,0,.005,0,0,0,0,0,0,0,0,0,0,0,0,0,0,0,0,0,0,0,0,0,0,0,.005,0,0,0,0,0,0,0,0,0,0,0,0,0,0,0,0,0,0,0,0,0,0,0,0,0,0,0,0,0,0,0,0,0,0,0,0,0,0,0,0,0,0,0,0,0,0,0,0,0,0,0,0,0,0,0,0,0,0,0,0,0,0,0,0,0,0,0,.005,0,0,0,0,0,0,0,0,0,0,0,0,0,0,0,0,0,0,0,.005,0,0,0,0,0,0,0,0,0,0,0,0,0,0,0,0,0,0,0,0,0,0,0,0,0,0,0,0,0,0,0,0,0,0,0,0,0,0,0,0,0,0,0,0,0,0,0,0,0,0,0,0,0,0,0,0,0,0,0,0,0,0,0,0,0,0,0,0,0,0,0,0,0,0,0,0,0,0,0,0,0,0,0,0,0,0,0,0,0,0,0,0,0,0,0,0,0,0,0,0,0,0,0,0,0,0,0,0,0,0,0,0,0,0,0,0,0,0,0,0,0,0,0,0,0,0,0,0,0,0,0,0,0,0,0,0,0,0,0,0,0,0,0,0,0,0,0,0,0,0,0,0,0,0,0,0,0,0,0,0,0,0,0,0,0,0,0,0,0,0,0,0,0,0,0,0,0,0,0,0,0,0,0,0,0,0,0,0,0,0,0,0,0,0,0,0,0,0,0,0,0,0,0,0,0,0,0,0,0,0,0,0,0,0,0,0,0,0,0,0,0,0,0,0,0,0,0,0,0,0,0,0,0,0,0,0,0,0,0,0,0,0,0,0,0,0,0,0,0,0,0,0,0,0,0,0,0,0,0,0,0,0,0,0,0,0,0,0,0,0,0,0,0,0,0,0,0,0,0,0,0,0,0,0,0,0,0,0,0,0,0,0,0,0,0,0,0,0,0,0,0,0,0,0,0,0,0,0,0,0,0,0,0,0,0,0,0,0,0,0,0,0,0,0,0,0,0,0,0,0,0,0,0,0,0,0,0,0,0,0,0,0,0,0,0,0,0,0,0,0,0,0,0,0,0,0,0,0,0,0,0,0,0,0,0,0,0,0,0,0,0,0,0,0,0,0,0,0,0,0,0,0,0,0,0,0,0,0,0,0,0,0,0,0,0,0,0,0,0,0,0,0,0,0,0,0,0,0,0,0,0,0,0,0,0,0,0,0,0,0,0,0,0,0,0,0,0,0,0,0,0,0,0,0,0,0,0,0,0,0,0,0,0,0,0,0,0,0,0,0,0,0,0,0,0,0,0,0,0,0,0,0,0,0,0,0,0,0,0,0,0,0,0,0,0,0,0,0,0,0,0,0,0,0,0,0,0,0,0,0,0,0,0,0,0,0,0,0,0,0,0,0,0,0,0,0,0,0,0,0,0,0,0,0,0,0,0,0,0,0,0,0,0,0,0,0,0,0,0,0,0,0,0,0,0,0,0,0,0,0,0,0,0,0,0,0,0,0,0,0,0,0,0,0,0,0,0,0,0,0,0,0,0,0,0,0,0,0,0,0,0,0,0,0,0,0,0,0,0,0,0,0,0,0,0,0,0,0,0,0,0,0,0,0,0,0,0,0,0,0,0,0,0,0,0,0,0,0,0,0,0,0,0,0,0,0,0,0,0,0,0,0,0,0,0,0,0,0,0,0,0,0,0,0,0,0L2.323,18l0,0,0,0,0,0,0,0,0,0,0,0,.006.005,0,0,0,0,0,0,0,0,0,0,0,0,0,0,0,0,0,0,0,0,0,0,0,0,0,0,0,0,0,0,0,0,.007.005,0,0,0,0,.006.005,0,0,0,0,.006.005,0,0,0,0,.006.005,0,0,0,0,0,0,0,0,.007.006,0,0,0,0,.007.005,0,0,0,0,0,0,0,0,.007.005.007.006,0,0,0,0,0,0,0,0,.007.005.007.006,0,0,0,0,0,0,0,0,.007.005.007.005,0,0,0,0,0,0,0,0,.007.005.008.005.008.005.007.005,0,0,0,0,.007,0,.008.006,0,0,0,0,.007,0,.008.006.007,0,.008.005.007,0,.008.005,0,0,0,0,.007,0,.008.005,0,0,0,0,.007,0,.008.005.007,0,.008.005.008.005.008,0,.008,0,.008.005.008,0,.008,0,.007,0,.008.005.008,0,.008,0,.008,0,.009.005.008,0,.008,0,.009.005.008,0,.008,0,.008,0,.008,0,.008,0,.008,0,.008,0,.009,0,.008,0,.007,0,.009,0,.007,0,.009.005.007,0L3,18.475l.008,0,.008,0,.007,0,.009.005.008,0,.008,0,.008,0,.009,0,.008,0,.008,0,.008,0,.009,0,.008,0,.009,0,.008,0,.009,0,.008,0,.009,0,.008,0,.009,0,.008,0,.009,0,.008,0,.009,0,.008,0,.009,0,.008,0,.009,0,.008,0,.009,0,.009,0,.008,0,.008,0,.009,0,.009,0,.009,0,.009,0,.008,0,.008,0,.009,0,.008,0,.009,0,.009,0,.008,0,.009,0,.008,0,.009,0,.009,0,.009,0,.009,0,.008,0,.009,0,.008,0,.009,0,.009,0,.009,0,.008,0,.01,0,.008,0,.009,0,.009,0,.009,0,.009,0,.009,0,.009,0,.009,0,.008,0,.01,0,.008,0,.009,0,.009,0,.009,0,.009,0,.009,0,.009,0,.009,0,.009,0,.009,0,.009,0,.009,0,.009,0,.009,0,.009,0,.01,0,.009,0,.01,0,.009,0,.009,0,.01,0,.008,0,.01,0,.009,0,.009,0,.009,0,.009,0,.009,0,.009,0,.009,0,.009,0,.01,0,.009,0,.01,0,.009,0,.01,0,.009,0,.009,0,.01,0,.009,0,.01,0,.009,0,.009,0,.01,0,.009,0,.009,0,.01,0,.009,0,.009,0,.009,0,.01,0,.009,0,.009,0,.01,0,.009,0,.01,0,.009,0,.01,0,.01,0,.009,0,.01,0,.01,0,.009,0,.01,0,.009,0,.01,0,.009,0,.009,0,.01,0,.01,0,.01,0,.01,0,.01,0,.01,0,.01,0,.01,0,.01,0,.009,0,.01,0h.043l.01,0,.01,0,.01,0,.01,0,.01,0,.01,0,.01,0,.01,0h.069l.01,0,.01,0,.01,0,.01,0H7Z" transform="translate(2 2)" fill="url(#a)"/><path d="M0,5.73a.747.747,0,0,1-.457-.156A.75.75,0,0,1-.594,4.522l0,0,0,0,0,0,0,0,0,0,0,0,0,0,0,0,0,0,0,0,0,0,0,0,0,0,0,0,0,0,0,0,0,0,0,0,0,0,0,0,0,0,0,0,0,0,0,0,0,0,0,0,0,0,0,0,0,0,0,0,0,0,0,0,0,0,0,0,0,0,0,0,0,0,0,0,0,0,0,0,0,0,0,0,0,0,0,0,0,0,0,0,0,0,0,0,0,0,0,0,0,0,0,0,0,0,0,0,0,0,0,0,0,0,0,0,0,0,0,0,0,0,0,0,0,0,0,0,0,0,0,0,0,0,0,0,0,0,0,0,0,0,0,0,0,0,0,0,0,0,0,0,0,0,0,0,0,0,0,0,0,0,0,0,0,0,0,0,0,0,0,0,0,0,0,0,0,0,0,0,0,0,0,0,0,0,0,0,0,0,0,0,0,0,0,0,0,0,0,0,0,0,0,0,0,0,0,0,0,0,0,0,0,0,0,0,0,0,0,0,0,0,0,0,0,0,0,0,0,0,0,0,0,0,0,0,0,0,0,0,0,0,0,0,0,0,0,0,0,0,0,0,0,0,0,0,0,0,0,0,0,0,0,0,0,0,0,0,0,0,0,0,0,0,0,0,0,0,0,0,0,0,0,0,0,0,0,0,0,0,0,0,0,0,0,0,0,0,0,0,0,0,0,0,0,0,0,0,0,0,0,0,0,0,0,0,0,0,0,0,0,0,0,0,0,0,0,0,0,0,0,0,0,0,0,0,0,0,0,0,0,0,0,0,0,0,0,0,0,0,0,0,0,0,0,0,0,0,0,0,0,0,0,0,0,0,0,0,0,0,0,0,0,0,0,0,0,0,0,0,0,0,0,0,0,0,0,0,0,0,0,0,0,0,0,0,0,0,0,0,0,0,0,0,0,0,0,0,0,0,0,0,0,0,0,0,0,0,0,0,0,0,0,0,0,0,0,0,0,0,0,0,0,0,0,0,0,0,0,0,0,0,0,0,0,0,0,0,0,0,0,0,0,0,0,0,0,0,0,0,0,0,0,0,0,0,0,0,0,0,0,0,0,0,0,0,0,0,0,0,0,0,0,0,0,0,0,0,0,0,0,0,0,0,0,0,0,0,0,0,0,0,0,0,0,0,0,0,0,0,0,0,0,0,0,0,0,0,0,0,0,0,0,0,0,0,0,0,0,0,0,0,0,0,0,0,0,0,0,0,0,0,0,0,0,0,0,0,0,0,0,0,0,0,0,0,0,0,0,0,0,0,0,0,0,0,0,0,0,0,0,0,0,0,0,0,0,0,0,0,0,0,0,0,0,0,0,0,0,0,0,0,0,0,0,0,0,0,0,0,0,0,0,0,0,0,0,0,0,0,0,0,0,0,0,0,0,0,0,0,0,0,0,0,0,0,0,0,0,0,0,0,0,0,0,0,0,0,0,0,0,0,0,0,0,0,0,0,0,0,0,0,0,0,0,0,0,0,0,0,0,0,0,0,0,0,0,0,0,0,0,0,0,0,0,0,0,0,0,0,0,0,0,0,0,0,0,0,0,0,0,0,0,0,0,0,0,0,0,0,0,0,0,0,0,0,0,0,0,0,0,0,0,0,0,0,0,0,0,0,0,0,0,0,0,0,0,0,0,0,0,0,0,0,0,0,0,0,0,0,0,0,0,0,0,0,0,0,0,0,0,0,0,0,0,0,0,0,0,0,0,0,0,0,0,0,0,0,0,0,0,0,0,0,0,0,0,0,0,0,0,0,0,0,0,0,0,0,0,0,0,0,0,0,0,0,0,0,0,0,0,0,0,0,0,0,0,0,0,0,0,0,0,0,0,0,0,0,0,0,0,0,0,0,0,0,0,0,0,0,0,0,0,0,0,0,0,0,0,0,0,0,0,0,0,0,0,0,0,0,0,0,0,0,0,0,0,0,0,0,0,0,0,0,0,0,0,0,0,0,0,0,0,0,0,0,0,0,0,0,0,0,0,0,0,0,0,0,0,0,0,0,0,0,0,0,0,0,0,0,0,0,0,0,0,0,0,0,0,0,0,0,0,0,0,0,0,0,0,0,0,0,0,0,0,0,0,0,0,0,0,0,0,0,0,0,0,0,0,0,0,0,0,0,0,0,0,0,0,0,0,0,0,0,0,0,0,0,0,0,0,0,0,0,0,0,0,0,0,0,0,0,0,0,0,0,0,0,0,0,0,0,0,0,0,0,0,0,0,0,0,0,0,0,0,0,0,0,0,0,0,0,0,0,0,0,0,0,0,0,0,0,0,0,0,0,0,0,0,0,0,0,0,0,0,0,0,0,0,0,0,0,0,0,0,0,0,0,0,0,0,0,0,0,0,0,0,0,0,0,0,0,0,0,0,0,0,0,0,0,0,0,0,0,0,0,0,0,0,0,0,0,0,0,0,0,0,0,0,0,0,0,0,0,0,0,0,0,0,0,0,0,0,0,0,0,0,0,0,0,0,0,0,0,0,0,0,0,0,0,0,0,0,0,0,0,0,0,0,0,0,0,0,0,0,0,0,0,0,0,0,0,0,0,0,0,0,0,0,0,0,0,0,0,0,0,0,0,0,0,0,0,0,0,0,0,0,0,0,0,0,0,0,0,0,0,0,0,0,0,0,0,0,0,0,0,0,0,0,0,0,0,0,0,0,0,0,0,0,0,0,0,0,0,0,0,0,0,0,0,0,0,0,0,0,0,0,0,0,0,0,0,0,0,0,0,0,0,0,0,0,0,0,0,0,0,0,0,0,0,0,0,0,0,0,0,0,0,0,0,0,0,0,0,0,0,0,0,0,0,0,0,0,0,0,0,0,0,0,0,0,0,0,0,0,0,0,0,0,0,0,0,0,0,0,0,0,0,0,0,0,0,0,0,0,0,0,0,0,0,0,0,0,0,0,0,0,0,0,0,0,0,0,0,0,0,0,0,0,0,0,0,0,0,0,0,0,0,0,0,0,0,0,0,0,0,0,0,0,0,0,0,0,0,0,0,0,0,0,0,0,0,0,0,0,0,0,0,0,0,0,0,0,0,0,0,0,0,0,0,0,0,0,0,0,0,0,0,0,0,0,0,0,0,0,0,0,0,0,0,0,0,0,0,0,0,0,0,0,0,0,0,0,0,0,0,0,0,0,0,0,0,0,0,0,0,0,0,0,0,0,0,0,0,0,0,0,0,0,0,0,0L1.8,1.418l0,0,0,0L1.809,1.4l0,0,0,0,.006-.007,0,0,0,0,.006-.007,0,0,0,0,.006-.007,0,0,0,0,.006-.007,0,0,0,0,.006-.007,0,0,0,0,.006-.007,0,0,0,0L1.9,1.3l0,0,0,0,.007-.007,0,0,0,0,.007-.007,0,0,0,0,.007-.007,0,0,0,0,.007-.007,0,0,0,0,.007-.007,0,0,0,0,.007-.007,0,0,0,0,.007-.006,0,0,0,0,.007-.006,0,0,0,0,.007-.006,0,0,0,0,.007-.006,0,0,0,0,.007-.006,0,0,0,0,.007-.006,0,0,0,0,.008-.006,0,0,0,0L2.1,1.121l0,0,0,0,.008-.006,0,0,0,0L2.126,1.1l0,0,0,0,.008-.006.008-.006.008-.006,0,0,0,0,.008-.006.008-.005.008-.005,0,0,0,0L2.2,1.042l.008-.005.008-.005.008-.005.008-.005,0,0,.005,0,.008-.005.008-.005L2.27,1l.008,0,.008,0,.005,0,0,0,.008,0,.008,0,.008,0,.008,0,.008,0,.008,0,.008,0,.009,0,.009,0,.009,0,.009,0,.009,0,.009,0,.009,0,.009,0,.009,0,.009,0,.009,0,.009,0,.009,0,.009,0,.009,0,.009,0,.009,0,.009,0,.009,0,.009,0,.009,0,.009,0,.009,0,.009,0,.009,0,.009,0,.009,0,.009,0,.009,0,.009,0,.009,0,.009,0,.009,0,.009,0,.009,0,.009,0,.009,0,.009,0,.009,0,.009,0,.009,0,.009,0,.009,0,.009,0,.009,0,.009,0,.009,0,.009,0,.009,0,.009,0,.009,0,.009,0,.009,0,.009,0,.009,0,.009,0,.009,0,.009,0,.009,0,.009,0h.554l.009,0,.009,0,.009,0,.009,0L3.5.78l.009,0,.009,0,.009,0,.009,0,.009,0,.009,0,.009,0,.009,0,.009,0,.009,0L3.6.8l.009,0,.009,0,.009,0,.009,0,.009,0,.009,0,.009,0,.009,0,.009,0,.009,0,.009,0,.009,0,.009,0,.009,0,.009,0,.009,0,.009,0,.009,0,.009,0,.009,0,.009,0,.009,0,.009,0,.009,0,.009,0,.009,0,.009,0,.009,0,.009,0,.009,0,.009,0,.009,0,.009,0,.009,0,.009,0,.009,0,.009,0,.009,0,.009,0,.009,0,.009,0,.009,0,.009,0L4,.954l.008,0,.008,0,.008,0,.008,0,.008,0,.008,0,.008,0,.008,0,.008,0,.008,0,.008,0,.008.005.008.005.008.005.008.005.008.005,0,0,0,0,.008.005.008.005.008.005,0,0,0,0,.008.005.008.005.008.006,0,0,0,0,.008.006,0,0,0,0,.008.006.008.006.008.006.008.006,0,0,.005,0,0,0,0,0,0,0,0,0,0,0,0,0,0,0,0,0,0,0,0,0,0,0,0,0,0,0,0,0,0,0,0,0,0,0,0,0,0,0,0,0,0,0,0,0,0,0,0,0,0,0,0,0,0,0,0,0,0,0,0,0,0,0,0,0,0,0,0,0,0,0,0,0,0,0,0,0,0,0,0,0,0,0,0,0,0,0,0,0,0,0,0,0,0,0,0,0,0,0,0,0,0,0,0,0,0,0,0,0,0,0,0,0,0,0,0,0,0,0,0,0,0,0,0,0,0,0,0,0,0,0,0,0,0,0,0,0,0,0,0,0,0,0,0,0,0,0,0,0,0,0,0,0,0,0,0,0,0,0,0,0,0,0,0,0,0,0,0,0,0,0,0,0,0,0,0,0,0,0,0,0,0,0,0,0,0,0,0,0,0,0,0,0,0,0,0,0,0,0,0,0,0,0,0,0,0,0,0,0,0,0,0,0,0,0,0,0,0,0,0,0,0,0,0,0,0,0,0,0,0,0,0,0,0,0,0,0,0,0,0,0,0,0,0,0,0,0,0,0,0,0,0,0,0,0,0,0,0,0,0,0,0,0,0,0,0,0,0,0,0,0,0,0,0,0,0,0,0,0,0,0,0,0,0,0,0,0,0,0,0,0,0,0,0,0,0,0,0,0,0,0,0,0,0,0,0,0,0,0,0,0,0,0,0,0,0,0,0,0,0,0,0,0,0,0,0,0,0,0,0,0,0,0,0,0,0,0,0,0,0,0,0,0,0,0,0,0,0,0,0,0,0,0,0,0,0,0,0,0,0,0,0,0,0,0,0,0,0,0,0,0,0,0,0,0,0,0,0,0,0,0,0,0,0,0,0,0,0,0,0,0,0,0,0,0,0,0,0,0,0,0,0,0,0,0,0,0,0,0,0,0,0,0,0,0,0,0,0,0,0,0,0,0,0,0,0,0,0,0,0,0,0,0,0,0,0,0,0,0,0,0,0,0,0,0,0,0,0,0,0,0,0,0,0,0,0,0,0,0,0,0,0,0,0,0,0,0,0,0,0,0,0,0,0,0,0,0,0,0,0,0,0,0,0,0,0,0,0,0,0,0,0,0,0,0,0,0,0,0,0,0,0,0,0,0,0,0,0,0,0,0,0,0,0,0,0,0,0,0,0,0,0,0,0,0,0,0,0,0,0,0,0,0,0,0,0,0,0,0,0,0,0,0,0,0,0,0,0,0,0,0,0,0,0,0,0,0,0,0,0,0,0,0,0,0,0,0,0,0,0,0,0,0,0,0,0,0,0,0,0,0,0,0,0,0,0,0,0,0,0,0,0,0,0,0,0,0,0,0,0,0,0,0,0,0,0,0,0,0,0,0,0,0,0,0,0,0,0,0,0,0,0,0,0,0,0,0,0,0,0,0,0,0,0,0,0,0,0,0,0,0,0,0,0,0,0,0,0,0,0,0,0,0,0,0,0,0,0,0,0,0,0,0,0,0,0,0,0,0,0,0,0,0,0,0,0,0,0,0,0,0,0,0,0,0,0,0,0,0,0,0,0,0,0,0,0,0,0,0,0,0,0,0,0,0,0,0,0,0,0,0,0,0,0,0,0,0,0,0,0,0,0,0,0,0,0,0,0,0,0,0,0,0,0,0,0,0,0,0,0,0,0,0,0,0,0,0,0,0,0,0,0,0,0,0,0,0,0,0,0,0,0,0,0,0,0,0,0,0,0,0,0,0,0,0,0,0,0,0,0,0,0,0,0,0,0,0,0,0,0,0,0,0,0,0,0,0,0,0,0,0,0,0,0,0,0,0,0,0,0,0,0,0,0,0,0,0,0,0,0,0,0,0,0,0,0,0,0,0,0,0,0,0,0,0,0,0,0,0,0,0,0,0,0,0,0,0h.36l0,0,0,0h0l0,0,0,0,0,0,0,0,0,0,0,0,0,0,0,0,0,0,0,0,0,0,0,0,0,0,0,0,0,0,0,0,0,0,0,0,0,0,0,0,0,0,0,0,0,0,0,0,0,0,0,0,0,0,0,0,0,0,0,0,0,0,0,0,0,0,0,0,0,0,0,0,0,0,0,0,0,0,0,0,0,0,0,0,0,0,0,0,0,0,0,0,0,0,0,0,0,0,0,0h0l0,0,0,0,0,0,0,0,0,0,0,0,0,0,0,0,0,0,0,0,0,0,0,0,0,0,0,0,0,0,0,0,0,0,0,0,0,0,0,0,0,0,0,0,0,0,0,0,0,0,0,0,0,0,0,0,0,0,0,0,0,0,0,0,0,0,0,0,0,0,0,0,0,0,0,0,0,0,0,0,0,0,0,0,0,0,0,0,0,0,0,0,0,0,0,0,0,0,0,0,0,0,0,0,0,0,0,0,0,0,0,0,0,0,0,0,0,0,0,0,0,0,0,0,0,0,0,0,0,0,0,0,0,0,0,0,0,0,0,0,0,0,0,0,0,0,0,0,0,0,0,0,0,0,0,0,0,0,0,0,0,0,0,0,0,0,0,0,0,0,0,0,0,0,0,0,0,0,0,0,0,0,0,0,0,0,0,0,0,0,0,0,0,0,0,0,0,0,0,0h0l0,0,0,0,0,0,0,0,0,0,0,0,0,0,0,0,0,0,0,0,0,0,0,0,0,0,0,0,0,0,0,0,0,0,0,0,0,0,0,0,0,0,0,0,0,0,0,0,0,0,0,0,0,0,0,0,0,0,0,0,0,0,0,0,0,0,0,0,0,0,0,0,0,0,0,0,0,0,0,0,0,0,0,0,0,0,0,0,0,0,0,0,0,0,0,0,0,0,0,0h0l0,0,0,0,0,0,0,0,0,0,0,0,0,0,0,0,0,0,0,0,0,0,0,0,0,0,0,0,0,0,0,0,0,0,0,0,0,0,0,0,0,0,0,0,0,0,0,0,0,0,0,0,0,0,0,0,0,0,0,0,0,0,0,0,0,0,0,0,0,0,0,0,0,0,0,0,0,0,0,0,0,0,0,0,0,0,0,0,0,0,0,0,0,0,0,0,0,0,0,0,0,0,0,0,0,0,0,0,0,0,0,0,0,0,0,0,0,0,0,0,0,0,0,0,0,0,0,0,0,0,0,0,0,0,0,0,0,0,0,0,0,0,0,0,0,0,0,0,0,0,0,0,0,0,0,0,0,0,0,0,0,0,0,0,0,0,0,0,0,0,0,0,0,0,0,0,0,0,0,0,0,0,0,0,0,0,0,0,0,0,0,0,0,0,0,0,0,0,0,0h0l0,0,0,0,0,0,0,0,0,0,0,0,0,0,0,0,0,0,0,0,0,0,0,0,0,0,0,0,0,0,0,0,0,0,0,0,0,0,0,0,0,0,0,0,0,0,0,0,0,0,0,0,0,0,0,0,0,0,0,0,0,0,0,0,0,0,0,0,0,0,0,0,0,0,0,0,0,0,0,0,0,0,0,0,0,0,0,0,0,0,0,0,0,0,0,0,0,0,0,0,0,0,0,0,0,0,0,0,0,0,0,0,0,0,0,0,0,0,0,0,0,0,0,0,0,0,0,0,0,0,0,0,0,0,0,0,0,0,0,0,0,0,0,0,0,0,0,0,0,0,0,0h0l0,0,0,0,0,0,0,0,0,0,0,0,0,0,0,0,0,0,0,0,0,0,0,0,0,0,0,0,0,0,0,0,0,0,0,0,0,0,0,0,0,0,0,0,0,0,0,0,0,0,0,0,0,0,0,0,0,0,0,0,0,0,0,0,0,0,0,0,0,0,0,0,0,0,0,0,0,0,0,0,0,0,0,0,0,0,0,0,0,0,0,0,0,0,0,0,0,0,0,0h0l0,0,0,0,0,0,0,0,0,0,0,0,0,0,0,0,0,0,0,0,0,0,0,0,0,0,0,0,0,0,0,0,0,0,0,0,0,0,0,0,0,0,0,0,0,0,0,0,0,0,0,0,0,0,0,0,0,0,0,0,0,0,0,0,0,0,0,0,0,0,0,0,0,0,0,0,0,0,0,0,0,0,0,0,0,0,0,0,0,0,0,0,0,0,0,0,0,0,0,0h0l0,0,0,0,0,0,0,0,0,0,0,0,0,0,0,0,0,0,0,0,0,0,0,0,0,0,0,0,0,0,0,0,0,0,0,0,0,0,0,0,0,0,0,0,0,0,0,0,0,0,0,0,0,0,0,0,0,0,0,0,0,0,0,0,0,0,0,0,0,0,0,0,0,0,0,0,0,0,0,0,0,0,0,0,0,0,0,0,0,0,0,0,0,0,0,0,0,0,0,0,0,0,0,0,0,0,0,0,0,0,0,0,0,0,0,0,0,0,0,0,0,0,0,0,0,0,0,0,0,0,0,0,0,0,0,0,0,0,0,0,0,0,0,0,0,0,0,0,0,0,0,0,0,0,0,0,0,0,0,0,0,0,0,0,0,0,0,0,0,0,0,0,0,0,0,0,0,0,0,0,0,0,0,0,0,0,0,0,0,0,0,0,0,0,0,0,0,0,0,0h0l0,0,0,0,0,0,0,0,0,0,0,0,0,0,0,0,0,0,0,0,0,0,0,0,0,0,0,0,0,0,0,0,0,0,0,0,0,0,0,0,0,0,0,0,0,0,0,0,0,0,0,0,0,0,0,0,0,0,0,0,0,0,0,0,0,0,0,0,0,0,0,0,0,0,0,0,0,0,0,0,0,0,0,0,0,0,0,0,0,0,0,0,0,0,0,0,0,0,0,0h0l0,0,0,0,0,0,0,0,0,0,0,0,0,0,0,0,0,0,0,0,0,0,0,0,0,0,0,0,0,0,0,0,0,0,0,0,0,0,0,0,0,0,0,0,0,0,0,0,0,0,0,0,0,0,0,0,0,0,0,0,0,0,0,0,0,0,0,0,0,0,0,0,0,0,0,0,0,0,0,0,0,0,0,0,0,0,0,0,0,0,0,0,0,0,0,0,0,0,0,0,0,0,0,0,0,0,0,0,0,0,0,0A.75.75,0,0,1,9.931.462l0,0,0,0,0,0,0,0,0,0,0,0,0,0,0,0,0,0,0,0,0,0,0,0,0,0,0,0,0,0,0,0,0,0,0,0,0,0,0,0,0,0,0,0,0,0,0,0,0,0,0,0,0,0,0,0,0,0,0,0,0,0,0,0,0,0,0,0,0,0,0,0,0,0,0,0,0,0,0,0,0,0,0,0,0,0,0,0,0,0,0,0,0,0,0,0,0,0,0,0,0,0,0,0,0,0,0,0,0,0,0,0,0,0,0,0,0,0,0,0,0,0,0,0,0,0,0,0,0,0h0l0,0,0,0,0,0,0,0,0,0,0,0,0,0,0,0,0,0,0,0,0,0,0,0,0,0,0,0,0,0,0,0,0,0,0,0,0,0,0,0,0,0,0,0,0,0,0,0,0,0,0,0,0,0,0,0,0,0,0,0,0,0,0,0,0,0,0,0,0,0,0,0,0,0,0,0,0,0,0,0,0,0,0,0,0,0,0,0,0,0,0,0,0,0,0,0,0,0,0,0h0l0,0,0,0,0,0,0,0,0,0,0,0,0,0,0,0,0,0,0,0,0,0,0,0,0,0,0,0,0,0,0,0,0,0,0,0,0,0,0,0,0,0,0,0,0,0,0,0,0,0,0,0,0,0,0,0,0,0,0,0,0,0,0,0,0,0,0,0,0,0,0,0,0,0,0,0,0,0,0,0,0,0,0,0,0,0,0,0,0,0,0,0,0,0,0,0,0,0,0,0,0,0,0,0,0,0,0,0,0,0,0,0,0,0,0,0,0,0,0,0,0,0,0,0,0,0,0,0,0,0,0,0,0,0,0,0,0,0,0,0,0,0,0,0,0,0,0,0,0,0,0,0,0,0,0,0,0,0,0,0,0,0,0,0,0,0,0,0,0,0,0,0,0,0,0,0,0,0,0,0,0,0,0,0,0,0,0,0,0,0,0,0,0,0,0,0,0,0,0,0h0l0,0,0,0,0,0,0,0,0,0,0,0,0,0,0,0,0,0,0,0,0,0,0,0,0,0,0,0,0,0,0,0,0,0,0,0,0,0,0,0,0,0,0,0,0,0,0,0,0,0,0,0,0,0,0,0,0,0,0,0,0,0,0,0,0,0,0,0,0,0,0,0,0,0,0,0,0,0,0,0,0,0,0,0,0,0,0,0,0,0,0,0,0,0,0,0,0,0,0,0h0l0,0,0,0,0,0,0,0,0,0,0,0,0,0,0,0,0,0,0,0,0,0,0,0,0,0,0,0,0,0,0,0,0,0,0,0,0,0,0,0,0,0,0,0,0,0,0,0,0,0,0,0,0,0,0,0,0,0,0,0,0,0,0,0,0,0,0,0,0,0,0,0,0,0,0,0,0,0,0,0,0,0,0,0,0,0,0,0,0,0,0,0,0,0,0,0,0,0,0,0,0,0,0,0,0,0,0,0,0,0,0,0,0,0,0,0,0,0,0,0,0,0,0,0,0,0,0,0,0,0,0,0,0,0,0,0,0,0,0,0,0,0,0,0,0,0,0,0,0,0,0,0,0,0,0,0,0,0,0,0,0,0,0,0,0,0,0,0,0,0,0,0,0,0,0,0,0,0,0,0,0,0,0,0,0,0,0,0,0,0,0,0,0,0,0,0,0,0,0,0h0l0,0,0,0,0,0,0,0,0,0,0,0,0,0,0,0,0,0,0,0,0,0,0,0,0,0,0,0,0,0,0,0,0,0,0,0,0,0,0,0,0,0,0,0,0,0,0,0,0,0,0,0,0,0,0,0,0,0,0,0,0,0,0,0,0,0,0,0,0,0,0,0,0,0,0,0,0,0,0,0,0,0,0,0,0,0,0,0,0,0,0,0,0,0,0,0,0,0,0,0h0l0,0,0,0,0,0,0,0,0,0,0,0,0,0,0,0,0,0,0,0,0,0,0,0,0,0,0,0,0,0,0,0,0,0,0,0,0,0,0,0,0,0,0,0,0,0,0,0,0,0,0,0,0,0,0,0,0,0,0,0,0,0,0,0,0,0,0,0,0,0,0,0,0,0,0,0,0,0,0,0,0,0,0,0,0,0,0,0,0,0,0,0,0,0,0,0,0,0,0,0,0,0,0,0,0,0,0,0,0,0,0,0,0,0,0,0,0,0,0,0,0,0,0,0,0,0,0,0,0,0,0,0,0,0,0,0,0,0,0,0,0,0,0,0,0,0,0,0,0,0,0,0,0,0,0,0,0,0,0,0,0,0,0,0,0,0,0,0,0,0,0,0,0,0,0,0,0,0,0,0,0,0,0,0,0,0,0,0,0,0,0,0,0,0,0,0,0,0,0,0h0l0,0,0,0,0,0,0,0,0,0,0,0,0,0,0,0,0,0,0,0,0,0,0,0,0,0,0,0,0,0,0,0,0,0,0,0,0,0,0,0,0,0,0,0,0,0,0,0,0,0,0,0,0,0,0,0,0,0,0,0,0,0,0,0,0,0,0,0,0,0,0,0,0,0,0,0,0,0,0,0,0,0,0,0,0,0,0,0,0,0,0,0,0,0,0,0,0,0,0,0h0l0,0,0,0,0,0,0,0,0,0,0,0,0,0,0,0,0,0,0,0,0,0,0,0,0,0,0,0,0,0,0,0,0,0,0,0,0,0,0,0,0,0,0,0,0,0,0,0,0,0,0,0,0,0,0,0,0,0,0,0,0,0,0,0,0,0,0,0,0,0,0,0,0,0,0,0,0,0,0,0,0,0,0,0,0,0,0,0,0,0,0,0,0,0,0,0,0,0,0,0h0l0,0,0,0,0,0,0,0,0,0,0,0,0,0,0,0,0,0,0,0,0,0,0,0,0,0,0,0,0,0,0,0,0,0,0,0,0,0,0,0,0,0,0,0,0,0,0,0,0,0,0,0,0,0,0,0,0,0,0,0,0,0,0,0,0,0,0,0,0,0,0,0,0,0,0,0,0,0,0,0,0,0,0,0,0,0,0,0,0,0,0,0,0,0,0,0,0,0,0,0h0l0,0,0,0,0,0,0,0,0,0,0,0,0,0,0,0,0,0,0,0,0,0,0,0,0,0,0,0,0,0,0,0,0,0,0,0,0,0,0,0h0l-.01.013-.006.007,0,0,0,0-.006.007,0,0,0,0-.006.007,0,0,0,0L7.569,3.5l0,0,0,0-.006.007,0,0,0,0-.006.007,0,0,0,0-.006.007,0,0,0,0-.007.007,0,0,0,0L7.5,3.575l0,0,0,0-.007.007,0,0,0,0L7.478,3.6l0,0,0,0-.007.007,0,0,0,0L7.45,3.63l0,0,0,0-.007.007,0,0,0,0-.007.007,0,0,0,0-.007.006,0,0,0,0-.007.006,0,0,0,0-.007.006,0,0,0,0-.007.006,0,0,0,0-.007.006,0,0,0,0-.008.006,0,0,0,0-.008.006,0,0,0,0L7.3,3.754,7.3,3.76l-.008.006-.008.006-.008.006-.008.006-.008.006-.008.006L7.241,3.8,7.233,3.8l-.008.005,0,0,0,0-.008.005L7.2,3.826l-.008.005-.008.005-.008.005-.008.005-.008.005-.008,0-.008,0-.008,0-.008,0-.008,0-.008,0-.005,0,0,0-.008,0-.008,0-.008,0-.008,0-.008,0-.009,0-.009,0-.009,0-.009,0-.009,0-.009,0L7,3.939l-.009,0-.009,0-.009,0-.009,0-.009,0-.009,0-.009,0-.009,0-.009,0-.009,0-.009,0-.009,0-.009,0-.009,0L6.867,4,6.858,4,6.849,4l-.009,0-.009,0-.009,0-.009,0-.009,0-.009,0-.009,0-.009,0-.009,0-.009,0-.009,0-.009,0-.009,0-.009,0-.009,0-.009,0-.009,0-.009,0-.009,0-.009,0-.009,0-.009,0-.009,0-.009,0-.009,0-.009,0-.009,0-.009,0-.009,0-.009,0-.009,0-.009,0-.009,0-.009,0-.009,0-.009,0H5.965l-.009,0-.009,0-.009,0-.009,0-.009,0-.009,0-.009,0-.009,0-.009,0-.009,0-.009,0-.009,0-.009,0-.009,0-.009,0-.009,0-.009,0-.009,0-.009,0-.009,0-.009,0-.009,0-.009,0-.009,0-.009,0-.009,0-.009,0-.009,0-.009,0-.009,0-.009,0-.009,0-.009,0-.009,0-.009,0L5.631,4,5.622,4,5.613,4l-.009,0-.009,0-.009,0-.009,0-.009,0-.009,0-.009,0-.009,0-.009,0-.009,0-.009,0-.009,0-.009,0-.009,0-.009,0-.009,0-.009,0-.009,0-.009,0-.009,0-.009,0-.009,0-.008,0L5.4,3.9,5.4,3.9l-.008,0-.008,0-.008,0-.008,0-.008,0-.008,0-.008,0-.008,0-.008,0,0,0,0,0L5.3,3.843,5.3,3.838l-.008-.005,0,0,0,0-.008-.005-.008-.005-.008-.005-.008-.005L5.241,3.8l0,0,0,0L5.225,3.79l-.008-.006-.008-.006L5.2,3.774l-.008-.006-.008-.006-.008-.006-.008-.006-.008-.006L5.157,3.74l0,0,0,0,0,0,0,0,0,0,0,0,0,0,0,0,0,0,0,0,0,0,0,0,0,0,0,0,0,0,0,0,0,0,0,0,0,0,0,0,0,0,0,0,0,0,0,0,0,0,0,0,0,0,0,0,0,0,0,0,0,0,0,0,0,0,0,0,0,0,0,0,0,0,0,0,0,0,0,0,0,0,0,0,0,0,0,0,0,0,0,0,0,0,0,0,0,0,0,0,0,0,0,0,0,0,0,0,0,0,0,0,0,0,0,0,0,0,0,0,0,0,0,0,0,0,0,0,0,0,0,0,0,0,0,0,0,0,0,0,0,0,0,0,0,0,0,0,0,0,0,0,0,0,0,0,0,0,0,0,0,0,0,0,0,0,0,0,0,0,0,0,0,0,0,0,0,0,0,0,0,0,0,0,0,0,0,0,0,0,0,0,0,0,0,0,0,0,0,0,0,0,0,0,0,0,0,0,0,0,0,0,0,0,0,0,0,0,0,0,0,0,0,0,0,0,0,0,0,0,0,0,0,0,0,0,0,0,0,0,0,0,0,0,0,0,0,0,0,0,0,0,0,0,0,0,0,0,0,0,0,0,0,0,0,0,0,0,0,0,0,0,0,0,0,0,0,0,0,0,0,0,0,0,0,0,0,0,0,0,0,0,0,0,0,0,0,0,0,0,0,0,0,0,0,0,0,0,0,0,0,0,0,0,0,0,0,0,0,0,0,0,0,0,0,0,0,0,0,0,0,0,0,0,0,0,0,0,0,0,0,0,0,0,0,0,0,0,0,0,0,0,0,0,0,0,0,0,0,0,0,0,0,0,0,0,0,0,0,0,0,0,0,0,0,0,0,0,0,0,0,0,0,0,0,0,0,0,0,0,0,0,0,0,0,0,0,0,0,0,0,0,0,0,0,0,0,0,0,0,0,0,0,0,0,0,0,0,0,0,0,0,0,0,0,0,0,0,0,0,0,0,0,0,0,0,0,0,0,0,0,0,0,0,0,0,0,0,0,0,0,0,0,0,0,0,0,0,0,0,0,0,0,0,0,0,0,0,0,0,0,0,0,0,0,0,0,0,0,0,0,0,0,0,0,0,0,0,0,0,0,0,0,0,0,0,0,0,0,0,0,0,0,0,0,0,0,0,0,0,0,0,0,0,0,0,0,0,0,0,0,0,0,0,0,0,0,0,0,0,0,0,0,0,0,0,0,0,0,0,0,0,0,0,0,0,0,0,0,0,0,0,0,0,0,0,0,0,0,0,0,0,0,0,0,0,0,0,0,0,0,0,0,0,0,0,0,0,0,0,0,0,0,0,0,0,0,0,0,0,0,0,0,0,0,0,0,0,0,0,0,0,0,0,0,0,0,0,0,0,0,0,0,0,0,0,0,0,0,0,0,0,0,0,0,0,0,0,0,0,0,0,0,0,0,0,0,0,0,0,0,0,0,0,0,0,0,0,0,0,0,0,0,0,0,0,0,0,0,0,0,0,0,0,0,0,0,0,0,0,0,0,0,0,0,0,0,0,0,0,0,0,0,0,0,0,0,0,0,0,0,0,0,0,0,0,0,0,0,0,0,0,0,0,0,0,0,0,0,0,0,0,0,0,0,0,0,0,0,0,0,0,0,0,0,0,0,0,0,0,0,0,0,0,0,0,0,0,0,0,0,0,0,0,0,0,0,0,0,0,0,0,0,0,0,0,0,0,0,0,0,0,0,0,0,0,0,0,0,0,0,0,0,0,0,0,0,0,0,0,0,0,0,0,0,0,0,0,0,0,0,0,0,0,0,0,0,0,0,0,0,0,0,0,0,0,0,0,0,0,0,0,0,0,0,0,0,0,0,0,0,0,0,0,0,0,0,0,0,0,0,0,0,0,0,0,0,0,0,0,0,0,0,0,0,0h0l0,0,0,0,0,0,0,0,0,0,0,0,0,0,0,0h-.02l0,0,0,0H3.275l0,0H3.078l0,0h-.02l0,0H3.035l0,0,0,0,0,0,0,0,0,0,0,0,0,0,0,0,0,0h0l0,0,0,0,0,0,0,0,0,0,0,0,0,0,0,0,0,0,0,0,0,0,0,0,0,0,0,0,0,0,0,0h0l0,0,0,0,0,0,0,0,0,0,0,0,0,0,0,0,0,0,0,0,0,0,0,0,0,0,0,0,0,0,0,0,0,0,0,0,0,0,0,0,0,0,0,0,0,0,0,0,0,0,0,0,0,0,0,0,0,0,0,0,0,0,0,0,0,0,0,0,0,0,0,0,0,0,0,0,0,0,0,0,0,0,0,0,0,0,0,0,0,0,0,0,0,0,0,0,0,0,0,0,0,0,0,0,0,0,0,0,0,0,0,0,0,0,0,0,0,0,0,0,0,0,0,0,0,0,0,0,0,0,0,0,0,0,0,0,0,0,0,0,0,0,0,0,0,0,0,0,0,0,0,0,0,0,0,0,0,0,0,0,0,0,0,0,0,0,0,0,0,0,0,0,0,0,0,0,0,0,0,0,0,0,0,0,0,0,0,0,0,0,0,0,0,0,0,0,0,0,0,0,0,0,0,0,0,0,0,0,0,0,0,0,0,0,0,0,0,0,0,0,0,0,0,0,0,0,0,0,0,0,0,0,0,0,0,0,0,0,0,0,0,0,0,0,0,0,0,0,0,0,0,0,0,0,0,0,0,0,0,0,0,0,0,0,0,0,0,0,0,0,0,0,0,0,0,0,0,0,0,0,0,0,0,0,0,0,0,0,0,0,0,0,0,0,0,0,0,0,0,0,0,0,0,0,0,0,0,0,0,0,0,0,0,0,0,0,0,0,0,0,0,0,0,0,0,0,0,0,0,0,0,0,0,0,0,0,0,0,0,0,0,0,0,0,0,0,0,0,0,0,0,0,0,0,0,0,0,0,0,0,0,0,0,0,0,0,0,0,0,0,0,0,0,0,0,0,0,0,0,0,0,0,0,0,0,0,0,0,0,0,0,0,0,0,0,0,0,0,0,0,0,0,0,0,0,0,0,0,0,0,0,0,0,0,0,0,0,0,0,0,0,0,0,0,0,0,0,0,0,0,0,0,0,0,0,0,0,0,0,0,0,0,0,0,0,0,0,0,0,0,0,0,0,0,0,0,0,0,0,0,0,0,0,0,0,0,0,0,0,0,0,0,0,0,0,0,0,0,0,0,0,0,0,0,0,0,0,0,0,0,0,0,0,0,0,0,0,0,0,0,0,0,0,0,0,0,0,0,0,0,0,0,0,0,0,0,0,0,0,0,0,0,0,0,0,0,0,0,0,0,0,0,0,0,0,0,0,0,0,0,0,0,0,0,0,0,0,0,0,0,0,0,0,0,0,0,0,0,0,0,0,0,0,0,0,0,0,0,0,0,0,0,0,0,0,0,0,0,0,0,0,0,0,0,0,0,0,0,0,0,0,0,0,0,0,0,0,0,0,0,0,0,0,0,0,0,0,0,0,0,0,0,0,0,0,0,0,0,0,0,0,0,0,0,0,0,0,0,0,0,0,0,0,0,0,0,0,0,0,0,0,0,0,0,0,0,0,0,0,0,0,0,0,0,0,0,0,0,0,0,0,0,0,0,0,0,0,0,0,0,0,0,0,0,0,0,0,0,0,0,0,0,0,0,0,0,0,0,0,0,0,0,0,0,0,0,0,0,0,0,0,0,0,0,0,0,0,0,0,0,0,0,0,0,0,0,0,0,0,0,0,0,0,0,0,0,0,0,0,0,0,0,0,0,0,0,0,0,0,0,0,0,0,0,0,0,0,0,0,0,0,0,0,0,0,0,0,0,0,0,0,0,0,0,0,0,0,0,0,0,0,0,0,0,0,0,0,0,0,0,0,0,0,0,0,0,0,0,0,0,0,0,0,0,0,0,0,0,0,0,0,0,0,0,0,0,0,0,0,0,0,0,0,0,0,0,0,0,0,0,0,0,0,0,0,0,0,0,0,0,0,0,0,0,0,0,0,0,0,0,0,0,0,0,0,0,0,0,0,0,0,0,0,0,0,0,0,0,0,0,0,0,0,0,0,0,0,0,0,0,0,0,0,0,0,0,0,0,0,0,0,0,0,0,0,0,0,0,0,0,0,0,0,0,0,0,0,0,0,0,0,0,0,0,0,0,0,0,0,0,0,0,0,0,0,0,0,0,0,0,0,0,0,0,0,0,0,0,0,0,0,0,0,0,0,0,0,0,0,0,0,0,0,0,0,0,0,0,0,0,0,0,0,0,0,0,0,0,0,0,0,0,0,0,0,0,0,0,0,0,0,0,0,0,0,0,0,0,0,0,0,0,0,0,0,0,0,0,0,0,0,0,0,0,0,0,0,0,0,0,0,0,0,0,0,0,0,0,0,0,0,0,0,0,0,0,0,0,0,0,0,0,0,0,0,0,0,0,0,0,0,0,0,0,0,0,0,0,0,0,0,0,0,0,0,0,0,0,0,0,0,0,0,0,0,0,0,0,0,0,0,0,0,0,0,0,0,0,0,0,0,0,0,0,0,0,0,0,0,0,0,0,0,0,0,0,0,0,0,0,0,0,0,0,0,0,0,0,0,0,0,0,0,0,0,0,0,0,0,0,0,0,0,0,0,0,0,0,0,0,0,0,0,0,0,0,0,0,0,0,0,0,0,0,0,0,0,0,0,0,0,0,0,0,0,0,0,0,0,0,0,0,0,0,0,0,0,0,0,0,0,0,0,0,0,0,0,0,0,0,0,0,0,0,0,0,0,0,0,0,0,0,0,0,0,0,0,0,0,0,0,0,0,0,0,0,0,0,0,0,0,0,0,0,0,0,0,0,0,0,0,0,0,0,0,0,0,0,0,0,0,0,0,0,0,0,0,0,0,0,0,0,0,0,0,0,0,0,0,0,0,0,0,0,0,0,0,0,0,0,0,0,0,0,0,0,0,0,0,0,0,0,0,0,0,0,0,0,0,0,0,0,0,0,0,0,0,0,0,0,0,0,0,0,0,0,0,0,0,0,0,0,0,0,0,0,0,0,0,0,0,0,0,0,0,0,0,0,0,0,0,0,0,0,0,0,0,0,0,0,0,0,0,0,0,0,0,0,0,0,0,0,0,0,0,0,0,0,0,0,0,0,0,0,0,0,0,0,0,0,0,0,0,0,0,0,0,0,0,0,0,0,0,0,0,0,0,0,0,0,0,0,0,0,0,0,0,0,0,0,0,0,0,0,0,0,0,0,0,0,0,0,0,0,0,0,0,0,0,0,0,0,0,0,0,0,0,0,0,0,0,0,0,0,0,0,0,0,0,0,0,0A.749.749,0,0,1,0,5.73Z" transform="translate(7.33 9.51)" fill="url(#a)"/><path d="M-.5-.5h25v25H-.5Zm24,1H.5v23h23Z" opacity="0" fill="url(#a)"/></g></svg>