<svg width="40" height="40" viewBox="0 0 40 40" fill="none" xmlns="http://www.w3.org/2000/svg">
<path fill-rule="evenodd" clip-rule="evenodd" d="M10 0C4.47715 0 0 4.47715 0 10V30C0 35.5228 4.47715 40 10 40H30C35.5228 40 40 35.5228 40 30V10C40 4.47715 35.5228 0 30 0H10ZM29.3807 10.6196C29.827 11.0659 29.827 11.7895 29.3807 12.2359L21.6174 19.9992L29.3807 27.7625C29.827 28.2088 29.827 28.9324 29.3807 29.3787C28.9344 29.825 28.2107 29.825 27.7644 29.3787L20.0011 21.6154L12.2378 29.3787C11.7915 29.825 11.0679 29.825 10.6216 29.3787C10.1753 28.9324 10.1753 28.2088 10.6216 27.7625L18.3849 19.9992L10.6216 12.2359C10.1753 11.7895 10.1753 11.0659 10.6216 10.6196C11.0679 10.1733 11.7915 10.1733 12.2378 10.6196L20.0011 18.3829L27.7644 10.6196C28.2107 10.1733 28.9344 10.1733 29.3807 10.6196Z" fill="white"/>
</svg>
