<svg xmlns="http://www.w3.org/2000/svg" width="19.377" height="15" viewBox="0 0 19.377 15"><path d="M16.414,1.256a15.782,15.782,0,0,0-4-1.256A11.732,11.732,0,0,0,11.9,1.063a14.679,14.679,0,0,0-4.431,0A11.365,11.365,0,0,0,6.956,0a15.73,15.73,0,0,0-4,1.259A16.766,16.766,0,0,0,.082,12.486,15.984,15.984,0,0,0,4.985,15a12.2,12.2,0,0,0,1.05-1.73,10.322,10.322,0,0,1-1.654-.8c.139-.1.274-.21.405-.321a11.3,11.3,0,0,0,9.8,0c.133.111.268.218.405.321a10.3,10.3,0,0,1-1.657.806A12.136,12.136,0,0,0,14.389,15,15.951,15.951,0,0,0,19.3,12.486,16.749,16.749,0,0,0,16.414,1.256ZM6.47,10.226A1.881,1.881,0,0,1,4.728,8.244,1.871,1.871,0,0,1,6.47,6.261,1.859,1.859,0,0,1,8.212,8.244,1.869,1.869,0,0,1,6.47,10.226Zm6.438,0a1.881,1.881,0,0,1-1.742-1.982,1.871,1.871,0,0,1,1.742-1.983A1.859,1.859,0,0,1,14.65,8.244,1.87,1.87,0,0,1,12.908,10.226Z" fill="#fff"/></svg>