<svg xmlns="http://www.w3.org/2000/svg" width="233" height="142" viewBox="0 0 233 142"><g transform="translate(-6173 -984)"><g transform="translate(0 -21)"><rect width="24" height="23" rx="5" transform="translate(6173 1005)" fill="rgba(255,255,255,0.1)"/><g transform="translate(6176 1007)"><path d="M18.122,11.668a7.333,7.333,0,0,0-.116-1.3H12v2.467h3.432a2.934,2.934,0,0,1-1.273,1.925v1.6h2.061A6.22,6.22,0,0,0,18.122,11.668Z" transform="translate(-2.622 -2.146)" fill="#4285f4"/><path d="M9.657,18.876a6.089,6.089,0,0,0,4.221-1.545l-2.061-1.6A3.848,3.848,0,0,1,6.088,13.71H3.957v1.652A6.375,6.375,0,0,0,9.657,18.876Z" transform="translate(-0.279 -3.121)" fill="#34a853"/><path d="M5.809,12.034a3.771,3.771,0,0,1,0-2.423V7.958H3.678a6.385,6.385,0,0,0,0,5.728Z" transform="translate(0 -1.445)" fill="#fbbc05"/><path d="M9.656,5.536a3.445,3.445,0,0,1,2.438.954l1.829-1.829A6.129,6.129,0,0,0,9.656,3a6.375,6.375,0,0,0-5.7,3.513L6.088,8.166A3.8,3.8,0,0,1,9.656,5.536Z" transform="translate(-0.279)" fill="#ea4335"/></g></g><text transform="translate(6207 999)" fill="#fff" font-size="12" font-family="Rubik-Regular, Rubik"><tspan x="0" y="0">GOOGL</tspan></text><text transform="translate(6173 1025)" fill="#fff" font-size="12" font-family="Rubik-Regular, Rubik"><tspan x="0" y="0">Alphabet Inc (Google) Class A</tspan></text><text transform="translate(6173 1122)" fill="#fff" font-size="16" font-family="Rubik-Regular, Rubik"><tspan x="0" y="0">320.04</tspan></text><text transform="translate(6236 1122)" fill="#00e0b8" font-size="12" font-family="Rubik-Regular, Rubik"><tspan x="0" y="0">+23.01 (+8.08%)</tspan></text><text transform="translate(6173 1041)" fill="rgba(255,255,255,0.5)" font-size="10" font-family="Rubik-Regular, Rubik"><tspan x="0" y="0">Technology Services / Internet Software/Services</tspan></text><g transform="translate(0 -21)"><text transform="translate(6173 1097)" fill="#fff" font-size="21" font-family="Rubik-Regular, Rubik"><tspan x="0" y="0">0.088</tspan></text><text transform="translate(6236 1097)" fill="#fff" font-size="12" font-family="Rubik-Regular, Rubik"><tspan x="0" y="0">EUR</tspan></text><text transform="translate(6274 1097)" fill="#e62b5d" font-size="12" font-family="Rubik-Regular, Rubik"><tspan x="0" y="0">-0.001 (-0.08%)</tspan></text><text transform="translate(6173 1113)" fill="rgba(255,255,255,0.5)" font-size="10" font-family="Rubik-Regular, Rubik"><tspan x="0" y="0">AT CLOSE (APR 29 16:03 UTC+3)</tspan></text></g></g></svg>