<svg xmlns="http://www.w3.org/2000/svg" xmlns:xlink="http://www.w3.org/1999/xlink" width="245.37" height="98.969" viewBox="0 0 245.37 98.969"><defs><linearGradient id="a" x1="0.5" x2="0.5" y2="1" gradientUnits="objectBoundingBox"><stop offset="0" stop-color="#21a28b"/><stop offset="1" stop-color="gray"/></linearGradient><clipPath id="b"><rect width="170" height="85" transform="translate(6222.5 1469)" stroke="rgba(255,255,255,0.1)" stroke-linecap="round" stroke-linejoin="round" stroke-width="2" fill="url(#a)"/></clipPath><linearGradient id="c" x1="0.01" y1="0.484" x2="0.99" y2="0.491" gradientUnits="objectBoundingBox"><stop offset="0" stop-color="#e62b5d"/><stop offset="0.499" stop-color="#fff"/><stop offset="1" stop-color="#00e0b8"/></linearGradient></defs><g transform="translate(-6176.028 -1502.5)"><g transform="translate(-10 46)" clip-path="url(#b)"><path d="M80.5,2A79.091,79.091,0,0,0,64.677,3.595,78.059,78.059,0,0,0,36.611,15.405,78.735,78.735,0,0,0,8.168,49.945,78.09,78.09,0,0,0,3.595,64.677a79.285,79.285,0,0,0,0,31.645,78.059,78.059,0,0,0,11.811,28.066,78.735,78.735,0,0,0,34.54,28.443,78.09,78.09,0,0,0,14.733,4.573,79.285,79.285,0,0,0,31.645,0,78.059,78.059,0,0,0,28.066-11.811,78.735,78.735,0,0,0,28.443-34.539,78.09,78.09,0,0,0,4.573-14.733,79.285,79.285,0,0,0,0-31.645,78.06,78.06,0,0,0-11.811-28.066A78.735,78.735,0,0,0,111.055,8.168,78.09,78.09,0,0,0,96.323,3.595,79.091,79.091,0,0,0,80.5,2m0-2A80.5,80.5,0,1,1,0,80.5,80.5,80.5,0,0,1,80.5,0Z" transform="translate(6227.5 1473)" fill="url(#c)"/></g><path d="M260.935,5.306a2.5,2.5,0,0,1-2.5-2.5V0a2.5,2.5,0,1,1,5,0V2.806A2.5,2.5,0,0,1,260.935,5.306Z" transform="translate(6036.903 1525.979)" fill="#fff"/><path d="M0,218a2.5,2.5,0,0,1-2.5-2.456A2.5,2.5,0,0,1-.044,213l2.8-.049a2.5,2.5,0,0,1,.088,5L.044,218Z" transform="translate(6225 1380.662)" fill="#e62b5d"/><path d="M0,218a2.5,2.5,0,0,1-2.5-2.456A2.5,2.5,0,0,1-.044,213l2.8-.049a2.5,2.5,0,0,1,.088,5L.044,218Z" transform="translate(6368 1380.662)" fill="#00e0b8"/><path d="M47.477,91.532a2.488,2.488,0,0,1-1.286-.358l-2.4-1.445a2.5,2.5,0,0,1,2.577-4.284l2.4,1.445a2.5,2.5,0,0,1-1.291,4.643Z" transform="translate(6197.47 1463.914)" fill="#e62b5d"/><path d="M0,3.946A2.5,2.5,0,0,1-2.142,2.734,2.5,2.5,0,0,1-1.289-.7l2.4-1.445a2.5,2.5,0,0,1,3.431.854,2.5,2.5,0,0,1-.854,3.431l-2.4,1.445A2.488,2.488,0,0,1,0,3.946Z" transform="translate(6352.45 1552.945) rotate(180)" fill="#00e0b8"/><path d="M2035.476,1274.685a5.725,5.725,0,1,1,5.719-5.724A5.729,5.729,0,0,1,2035.476,1274.685Zm0-9.26a3.535,3.535,0,1,0,3.528,3.536A3.538,3.538,0,0,0,2035.476,1265.425Z" transform="translate(4262.242 325.139)" fill="rgba(255,255,255,0.05)"/><path d="M1902.05,1194.931c-1.171-.563-48.12-32.951-48.12-32.951s47.141,25.971,50.712,28.051a2.807,2.807,0,0,1-.909,5.461A2.78,2.78,0,0,1,1902.05,1194.931Z" transform="translate(4393.844 401.272)" fill="#fff" fill-rule="evenodd"/><path d="M2044.32,1279.393a1.582,1.582,0,1,0-1.58-1.58A1.579,1.579,0,0,0,2044.32,1279.393Z" transform="translate(4253.397 316.287)" fill="#262d4b" fill-rule="evenodd"/><text transform="translate(6298.838 1511.5)" fill="rgba(255,255,255,0.5)" font-size="10" font-family="Rubik-Regular, Rubik"><tspan x="-22.345" y="0">NEUTRAL</tspan></text><text transform="translate(6220 1538.979)" fill="rgba(255,255,255,0.5)" font-size="10" font-family="Rubik-Regular, Rubik"><tspan x="-11.77" y="0">SELL</tspan></text><text transform="translate(6378.398 1538.979)" fill="rgba(255,255,255,0.5)" font-size="10" font-family="Rubik-Regular, Rubik"><tspan x="-9.975" y="0">BYU</tspan></text><text transform="translate(6401.398 1586.469)" fill="rgba(255,255,255,0.5)" font-size="10" font-family="Rubik-Regular, Rubik"><tspan x="-19.5" y="0">STRONG</tspan><tspan x="-10.08" y="12">BUY</tspan></text><text transform="translate(6196.028 1586.469)" fill="rgba(255,255,255,0.5)" font-size="10" font-family="Rubik-Regular, Rubik"><tspan x="-19.5" y="0">STRONG</tspan><tspan x="-11.77" y="12">SELL</tspan></text></g></svg>