<svg xmlns="http://www.w3.org/2000/svg" width="365.385" height="116.923" viewBox="0 0 365.385 116.923"><g transform="translate(-6173 -1516.077)"><g transform="translate(6173 1516.077)"><rect width="112.538" height="51.154" rx="6" fill="rgba(230,43,93,0.1)"/><text transform="translate(56.462 21.942)" fill="#e62b5d" font-size="17" font-family="Rubik-Regular, Rubik"><tspan x="-36.091" y="0">-146.93%</tspan></text><text transform="translate(56.231 41.326)" fill="rgba(255,255,255,0.5)" font-size="13" font-family="Rubik-Regular, Rubik"><tspan x="-7.989" y="0">1W</tspan></text></g><g transform="translate(6173 1581.846)"><rect width="112.538" height="51.154" rx="6" transform="translate(0 0)" fill="rgba(0,224,184,0.1)"/><text transform="translate(55.769 21.942)" fill="#00e0b8" font-size="17" font-family="Rubik-Regular, Rubik"><tspan x="-28.484" y="0">36.93%</tspan></text><text transform="translate(56.769 42.326)" fill="rgba(255,255,255,0.5)" font-size="14" font-family="Rubik-Regular, Rubik"><tspan x="-9.779" y="0">6M</tspan></text></g><g transform="translate(6300.154 1581.846)"><rect width="112.538" height="51.154" rx="6" transform="translate(0 0)" fill="rgba(0,224,184,0.1)"/><text transform="translate(56.231 21.942)" fill="#00e0b8" font-size="17" font-family="Rubik-Regular, Rubik"><tspan x="-27.013" y="0">16.93%</tspan></text><text transform="translate(55.385 42.326)" fill="rgba(255,255,255,0.5)" font-size="14" font-family="Rubik-Regular, Rubik"><tspan x="-13.405" y="0">YTD</tspan></text></g><g transform="translate(6425.846 1581.846)"><rect width="112.538" height="51.154" rx="6" transform="translate(0 0)" fill="rgba(0,224,184,0.1)"/><text transform="translate(56.231 21.942)" fill="#00e0b8" font-size="17" font-family="Rubik-Regular, Rubik"><tspan x="-27.013" y="0">16.93%</tspan></text><text transform="translate(56.692 41.326)" fill="rgba(255,255,255,0.5)" font-size="13" font-family="Rubik-Regular, Rubik"><tspan x="-6.988" y="0">1Y</tspan></text></g><g transform="translate(6300.154 1516.077)"><rect width="112.538" height="51.154" rx="6" fill="rgba(230,43,93,0.1)"/><text transform="translate(55.846 21.942)" fill="#e62b5d" font-size="17" font-family="Rubik-Regular, Rubik"><tspan x="-30.813" y="0">-16.93%</tspan></text><text transform="translate(56.231 41.326)" fill="rgba(255,255,255,0.5)" font-size="13" font-family="Rubik-Regular, Rubik"><tspan x="-7.943" y="0">1M</tspan></text></g><g transform="translate(6425.846 1516.077)"><rect width="112.538" height="51.154" rx="6" fill="rgba(230,43,93,0.1)"/><text transform="translate(55.846 21.942)" fill="#e62b5d" font-size="17" font-family="Rubik-Regular, Rubik"><tspan x="-30.813" y="0">-16.93%</tspan></text><text transform="translate(56.769 42.326)" fill="rgba(255,255,255,0.5)" font-size="14" font-family="Rubik-Regular, Rubik"><tspan x="-9.765" y="0">3M</tspan></text></g></g></svg>