<svg xmlns="http://www.w3.org/2000/svg" xmlns:xlink="http://www.w3.org/1999/xlink" width="250" height="129" viewBox="0 0 250 129"><defs><clipPath id="a"><rect width="211" height="90" fill="none"/></clipPath></defs><g transform="translate(-6173 -1504.5)"><text transform="translate(6423 1513.5)" fill="rgba(255,255,255,0.5)" font-size="10" font-family="Rubik-Regular, Rubik"><tspan x="-34.16" y="0">40.00B</tspan></text><text transform="translate(6423 1534.5)" fill="rgba(255,255,255,0.5)" font-size="10" font-family="Rubik-Regular, Rubik"><tspan x="-33.61" y="0">35.00B</tspan></text><text transform="translate(6423 1555.5)" fill="rgba(255,255,255,0.5)" font-size="10" font-family="Rubik-Regular, Rubik"><tspan x="-33.47" y="0">25.00B</tspan></text><text transform="translate(6423 1576.5)" fill="rgba(255,255,255,0.5)" font-size="10" font-family="Rubik-Regular, Rubik"><tspan x="-31.88" y="0">15.00B</tspan></text><text transform="translate(6423 1597.5)" fill="rgba(255,255,255,0.5)" font-size="10" font-family="Rubik-Regular, Rubik"><tspan x="-32.23" y="0">10.00B</tspan></text><text transform="translate(6186.5 1610.5)" fill="rgba(255,255,255,0.5)" font-size="9" font-family="Rubik-Regular, Rubik"><tspan x="0" y="0" xml:space="preserve">Q3  18</tspan></text><text transform="translate(6233.5 1611.5)" fill="rgba(255,255,255,0.5)" font-size="10" font-family="Rubik-Regular, Rubik"><tspan x="0" y="0" xml:space="preserve">Q4  18</tspan></text><text transform="translate(6285.5 1611.5)" fill="rgba(255,255,255,0.5)" font-size="10" font-family="Rubik-Regular, Rubik"><tspan x="0" y="0" xml:space="preserve">Q1  20</tspan></text><text transform="translate(6335.5 1611.5)" fill="rgba(255,255,255,0.5)" font-size="10" font-family="Rubik-Regular, Rubik"><tspan x="0" y="0" xml:space="preserve">Q2  20</tspan></text><g transform="translate(6173 1510.5)" clip-path="url(#a)"><g transform="translate(-6173.5 -1510.5)"><line x2="209" transform="translate(6173.5 1511)" fill="none" stroke="rgba(255,255,255,0.1)" stroke-width="1"/></g><g transform="translate(-6173.5 -1489.5)"><line x2="209" transform="translate(6173.5 1511)" fill="none" stroke="rgba(255,255,255,0.1)" stroke-width="1"/></g><g transform="translate(-6173.5 -1468.5)"><line x2="209" transform="translate(6173.5 1511)" fill="none" stroke="rgba(255,255,255,0.1)" stroke-width="1"/></g><g transform="translate(-6173.5 -1447.5)"><line x2="209" transform="translate(6173.5 1511)" fill="none" stroke="rgba(255,255,255,0.1)" stroke-width="1"/></g><g transform="translate(-6173.5 -1426.5)"><line x2="209" transform="translate(6173.5 1511)" fill="none" stroke="rgba(255,255,255,0.1)" stroke-width="1"/></g></g><g transform="translate(-9 -5)"><g transform="translate(-41)"><text transform="translate(6257 1636.5)" fill="#6e3fc3" font-size="9" font-family="Rubik-Regular, Rubik"><tspan x="0" y="0">Revenue</tspan></text><rect width="5" height="5" rx="1" transform="translate(6248.5 1631.5)" fill="#6e3fc3"/></g><g transform="translate(19)"><text transform="translate(6257 1636.5)" fill="#00e0b8" font-size="9" font-family="Rubik-Regular, Rubik"><tspan x="0" y="0">Net income</tspan></text><rect width="5" height="5" rx="1" transform="translate(6248.5 1631.5)" fill="#00e0b8"/></g><g transform="translate(91)"><text transform="translate(6257 1636.5)" fill="#ecb00b" font-size="9" font-family="Rubik-Regular, Rubik"><tspan x="0" y="0">Profit margin %</tspan></text><rect width="5" height="5" rx="1" transform="translate(6248.5 1631.5)" fill="#ecb00b"/></g></g><path d="M2,0H4A2,2,0,0,1,6,2V45a0,0,0,0,1,0,0H0a0,0,0,0,1,0,0V2A2,2,0,0,1,2,0Z" transform="translate(6190.5 1550.5)" fill="#6e3fc3"/><path d="M2,0H4A2,2,0,0,1,6,2V62a0,0,0,0,1,0,0H0a0,0,0,0,1,0,0V2A2,2,0,0,1,2,0Z" transform="translate(6239.5 1533.5)" fill="#6e3fc3"/><path d="M2,0H4A2,2,0,0,1,6,2V79a0,0,0,0,1,0,0H0a0,0,0,0,1,0,0V2A2,2,0,0,1,2,0Z" transform="translate(6291.5 1516.5)" fill="#6e3fc3"/><path d="M2,0H4A2,2,0,0,1,6,2V35a0,0,0,0,1,0,0H0a0,0,0,0,1,0,0V2A2,2,0,0,1,2,0Z" transform="translate(6342.5 1560.5)" fill="#6e3fc3"/><path d="M2,0H4A2,2,0,0,1,6,2V37a0,0,0,0,1,0,0H0a0,0,0,0,1,0,0V2A2,2,0,0,1,2,0Z" transform="translate(6201.5 1558.5)" fill="#00e0b8"/><path d="M2,0H4A2,2,0,0,1,6,2V28a0,0,0,0,1,0,0H0a0,0,0,0,1,0,0V2A2,2,0,0,1,2,0Z" transform="translate(6250.5 1567.5)" fill="#00e0b8"/><path d="M2,0H4A2,2,0,0,1,6,2V53a0,0,0,0,1,0,0H0a0,0,0,0,1,0,0V2A2,2,0,0,1,2,0Z" transform="translate(6302.5 1542.5)" fill="#00e0b8"/><path d="M2,0H4A2,2,0,0,1,6,2V25a0,0,0,0,1,0,0H0a0,0,0,0,1,0,0V2A2,2,0,0,1,2,0Z" transform="translate(6353.5 1570.5)" fill="#00e0b8"/><path d="M6254.268,1576.741l-.28-.107-52.667-20.167a.5.5,0,0,1,.357-.934l52.386,20.059,46.4-40.393.32.224,57.667,40.334a.5.5,0,0,1-.573.819l-57.346-40.11Z" fill="#ecb00b"/><path d="M6254.268,1576.741l46.266-40.274,57.346,40.11a.5.5,0,0,0,.573-.819l-57.987-40.557-46.4,40.393-52.386-20.059a.5.5,0,0,0-.357.934l52.947,20.274m0,1a1,1,0,0,1-.358-.066l-.28-.107-52.666-20.167a1.5,1.5,0,0,1-.864-1.938,1.51,1.51,0,0,1,1.4-.963,1.488,1.488,0,0,1,.538.1l51.823,19.844,45.948-40a1,1,0,0,1,1.229-.065l.32.224,57.667,40.334a1.5,1.5,0,0,1-1.718,2.459l-56.707-39.663-45.676,39.761A1,1,0,0,1,6254.268,1577.741Z" fill="#192140"/></g></svg>