<svg xmlns="http://www.w3.org/2000/svg" width="19.877" height="20.283" viewBox="0 0 19.877 20.283"><path d="M21.736,12.438a11.66,11.66,0,0,0-.184-2.074H12v3.923h5.458a4.665,4.665,0,0,1-2.024,3.061v2.544h3.278a9.89,9.89,0,0,0,3.024-7.454Z" transform="translate(-1.859 -2.066)" fill="#4285f4"/><path d="M13.02,21.924a9.682,9.682,0,0,0,6.712-2.457l-3.278-2.544A6.118,6.118,0,0,1,7.345,13.71H3.957v2.628A10.137,10.137,0,0,0,13.02,21.924Z" transform="translate(-2.879 -1.642)" fill="#34a853"/><path d="M7.467,14.439a6,6,0,0,1,0-3.854V7.958H4.079a10.154,10.154,0,0,0,0,9.109Z" transform="translate(-3 -2.371)" fill="#fbbc05"/><path d="M13.02,7.033A5.478,5.478,0,0,1,16.9,8.55l2.909-2.909A9.746,9.746,0,0,0,13.02,3,10.137,10.137,0,0,0,3.957,8.587l3.388,2.628A6.044,6.044,0,0,1,13.02,7.033Z" transform="translate(-2.879 -3)" fill="#ea4335"/></svg>