<svg xmlns="http://www.w3.org/2000/svg" xmlns:xlink="http://www.w3.org/1999/xlink" width="133.684" height="36.521" viewBox="0 0 133.684 36.521"><defs><linearGradient id="a" x1="0.5" y1="1" x2="0.5" gradientUnits="objectBoundingBox"><stop offset="0" stop-color="#fff" stop-opacity="0"/><stop offset="1" stop-color="#ff5a5a"/></linearGradient></defs><g transform="translate(0.743 1)"><path d="M.135,29.868H1.884l2.328-2.7V28.52H6.124l2.469-1.348,2.52,1.814,1.782-8.022,1.842,1.227V19.659l2.081,1.875,4.01-4.86h1.617l3.062-8.246,2.764,2.2v-2.2h2.671V5.554h5.481L40.736,0l9.922,8.428,5.817-2.874,2.739,5.9h3.1l2.109,6.237L65.7,14.423v6.541l7.541,2.164L79.078,11.45l2.511,9.513L82.956,9.971l3.282-1.01,2.456-5.174,4.789,1.767L97.634,0l3.324,3.787h6.1l4,2.5,2.411-4.664,7.419,5.957,1.451,5.119,4.988,6.959,4.617-13.371V35.362H0Z" transform="translate(0 0.16)" opacity="0.2" fill="url(#a)"/><path d="M1.747,30.738H0a1,1,0,0,1-1-1,1,1,0,0,1,1-1H1.291L3.317,26.4a1,1,0,0,1,1.756.655V27.4h.656l2.243-1.22a1,1,0,0,1,1.061.066l1.288.924,1.451-6.51A1,1,0,0,1,13.3,20.04l.288.191v-.657a1,1,0,0,1,1.668-.744L16.561,20,19.9,15.964a1,1,0,0,1,.77-.362H21.6l2.816-7.56a1,1,0,0,1,1.558-.435l1.141.9V8.391a1,1,0,0,1,1-1h1.669V5.53a1,1,0,0,1,1-1h4.987L39.775-.615a1,1,0,0,1,.686-.38,1,1,0,0,1,.749.231L50.622,7.2l5.224-2.572a1,1,0,0,1,1.348.475L59.662,10.4h2.464a1,1,0,0,1,.947.679L64.3,14.7l.274-.7a1,1,0,0,1,1.931.365v5.758l6.012,1.719,5.459-10.885a1,1,0,0,1,1.861.192l1.188,4.487L81.752,9.8a1,1,0,0,1,.7-.832l2.859-.877L87.575,3.34a1,1,0,0,1,1.248-.508l4.086,1.5L96.609-.6a1,1,0,0,1,.761-.4,1,1,0,0,1,.79.338l3.022,3.431h5.643a1,1,0,0,1,.529.152l3.074,1.917,1.91-3.683a1,1,0,0,1,1.512-.32l7.412,5.931a1,1,0,0,1,.337.507L123,12.2l3.756,5.222,3.981-11.491a1,1,0,1,1,1.89.655L128.016,19.9a1,1,0,0,1-1.757.257l-4.984-6.929a1,1,0,0,1-.15-.31l-1.362-4.789-6.211-4.97L111.7,6.721a1,1,0,0,1-1.417.388L106.538,4.77H100.73a1,1,0,0,1-.75-.339L97.471,1.584,94.062,6.13a1,1,0,0,1-1.145.339L88.989,5.024,86.927,9.352a1,1,0,0,1-.609.526l-2.66.816L82.371,21a1,1,0,0,1-1.959.132L78.58,14.211l-4.646,9.265a1,1,0,0,1-1.169.513L65.23,21.834a1,1,0,0,1-.725-.961v-2.3a1,1,0,0,1-1.219-.641L61.41,12.4H59.025a1,1,0,0,1-.906-.577L55.813,6.878l-4.9,2.41a1,1,0,0,1-1.088-.134L40.712,1.436,37.044,6.144a1,1,0,0,1-.789.385H31.779V8.391a1,1,0,0,1-1,1H29.11v1.187a1,1,0,0,1-1.621.784l-1.684-1.333-2.579,6.922a1,1,0,0,1-.937.651H21.144l-3.707,4.477A1,1,0,0,1,16,22.185l-.411-.369v.279a1,1,0,0,1-1.553.833l-.628-.417-1.464,6.567a1,1,0,0,1-1.559.595l-2.008-1.44L6.461,29.275a1,1,0,0,1-.478.122H4.073a1,1,0,0,1-.558-.17L2.5,30.393A1,1,0,0,1,1.747,30.738Z" transform="translate(0.257)" fill="#ff5a5a"/></g></svg>