<svg xmlns="http://www.w3.org/2000/svg" width="1922" height="435.598" viewBox="0 0 1922 435.598"><path d="M25.478,434.6H0a1,1,0,0,1-1-1,1,1,0,0,1,1-1H25.021l33.606-38.789a1,1,0,0,1,1.756.655v18.567h26.6l35.735-19.445a1,1,0,0,1,1.061.066L159.257,419.1l25.626-114.984a1,1,0,0,1,1.529-.616L211.7,320.286v-34.9a1,1,0,0,1,1.668-.744l29.544,26.527,57.755-69.749a1,1,0,0,1,.77-.362H324.3L368.654,122a1,1,0,0,1,1.558-.435l38.643,30.605V122.35a1,1,0,0,1,1-1H447.77V80.626a1,1,0,0,1,1-1h79.35L590.645-.615a1,1,0,0,1,.686-.38,1,1,0,0,1,.749.231l144.03,121.927,84.152-41.435a1,1,0,0,1,1.348.475l39.636,85.024h44.578a1,1,0,0,1,.947.679l29.84,87.946,17.551-44.839a1,1,0,0,1,1.931.365v94.2l108.326,30.978,84.641-168.779a1,1,0,0,1,1.86.192l35.255,133.122,19.282-154.463a1,1,0,0,1,.7-.832l47.393-14.541,35.59-74.716a1,1,0,0,1,1.248-.508l69.058,25.4L1419.456-.6a1,1,0,0,1,.761-.4,1,1,0,0,1,.79.338l48.124,54.633h88.414a1,1,0,0,1,.529.151l57.292,35.737,34.621-66.747a1,1,0,0,1,1.512-.32l108.069,86.48a1,1,0,0,1,.337.507L1781,183.925l71.435,99.317,66.621-192.287a1,1,0,1,1,1.89.655l-67.253,194.108a1,1,0,0,1-1.757.256l-72.663-101.023a1,1,0,0,1-.15-.31l-21.053-74.006L1651.2,25.116l-34.558,66.626a1,1,0,0,1-1.417.388L1557.26,55.972h-88.58a1,1,0,0,1-.75-.339l-47.61-54.049L1360.6,81.226a1,1,0,0,1-1.145.339l-68.9-25.34-35.387,74.29a1,1,0,0,1-.609.526l-47.194,14.479-19.84,158.938a1,1,0,0,1-1.959.132l-35.9-135.553L1065.836,336.2a1,1,0,0,1-1.169.513L954.819,305.3a1,1,0,0,1-.725-.961V214.677l-16.619,42.455a1,1,0,0,1-1.878-.043l-30.49-89.861h-44.5a1,1,0,0,1-.906-.578L820.229,81.975l-83.824,41.273a1,1,0,0,1-1.088-.134L591.582,1.436,529.4,81.241a1,1,0,0,1-.789.385H449.77V122.35a1,1,0,0,1-1,1H410.855v30.889a1,1,0,0,1-1.621.784l-39.186-31.035L325.93,242.411a1,1,0,0,1-.937.651H301.9L243.785,313.25a1,1,0,0,1-1.438.106L213.7,287.632V322.15a1,1,0,0,1-1.553.833l-25.625-17.011L160.88,421.013a1,1,0,0,1-1.559.6l-36.195-25.966L87.719,414.91a1,1,0,0,1-.478.121H59.383a1,1,0,0,1-1-1V397.146l-32.15,37.107A1,1,0,0,1,25.478,434.6Z" transform="translate(1 1)" fill="#4b52f2" opacity="0.2"/></svg>