<svg xmlns="http://www.w3.org/2000/svg" width="120.633" height="38" viewBox="0 0 120.633 38"><g transform="translate(29.985 14.505)"><path d="M397.982,201.375v-1.634h7.993c.587,0,.817-.1.817-.536v-1.29c0-.408-.243-.549-.817-.549H400.6c-2.107,0-2.911-.881-2.911-2.184v-.613c0-1.3.8-2.183,2.911-2.183h7.776v1.622H400.6c-.549,0-.83.141-.83.549v.638c0,.383.243.549.83.549h5.376c2.107,0,2.911.881,2.911,2.183v1.251c0,1.3-.8,2.2-2.911,2.2Z" transform="translate(-397.688 -192.386)" fill="#fff"/><rect width="2.081" height="8.989" transform="translate(12.565 0)" fill="#fff"/><path d="M615.9,201.375c-1.852,0-2.95-.651-2.95-2.069v-4.673c0-1.6,1.1-2.247,2.95-2.247h7.546v1.622h-7.559c-.651,0-.855.243-.855.626v4.661c0,.345.4.447.855.447h4.763c.46,0,.843-.089.843-.421v-2.848h2.094v2.848c0,1.6-.932,2.056-2.937,2.056Z" transform="translate(-596.716 -192.386)" fill="#fff"/><path d="M785.76,201.376v-5.669l-4.214,5.669h-1.711l-4.239-5.657v5.657h-1.928v-8.989h1.941l5.171,6.959,5.133-6.959h1.775v8.989Z" transform="translate(-745.32 -192.386)" fill="#fff"/><path d="M980.739,201.376l-4.354-6.844-4.444,6.844h-2.324l5.989-8.989h1.532l5.95,8.989Z" transform="translate(-926.495 -192.386)" fill="#fff"/><path d="M1119.239,201.376l-6-8.989h2.362l4.443,6.831,4.354-6.831h2.311l-5.95,8.989Z" transform="translate(-1059.287 -192.386)" fill="#fff"/><path d="M1310.822,192.387h2.081v6.819c0,1.29-.792,2.171-2.886,2.171h-5.733c-2.094,0-2.886-.881-2.886-2.171v-6.819h2.081v6.831c0,.37.281.524.8.524h5.733c.524,0,.8-.153.8-.524Z" transform="translate(-1233.261 -192.387)" fill="#fff"/><path d="M1474.314,201.376v-8.989h9.475v1.622H1476.4v1.8h7v1.634h-7v2.3h7.393v1.634Z" transform="translate(-1393.14 -192.386)" fill="#fff"/></g><g transform="translate(0 13.841)"><path d="M69.474,185.282l7.264,5.213,2.384,1.711,1.1.786,1.288.925,1.2.86v1.713l-2.485,1.783-1.032.74-2.644,1.9-2.384,1.711L71.8,204.31l-2.392-1.717-2.383-1.711h0l-2.384-1.711-1.249-.9v3.42l3.634,2.608,2.392,1.715L71.8,207.73l2.383-1.711h0l2.355-1.691,2.384-1.709,1.291-.927,2.485-1.784,2.39-1.714v-5.126l-1.2-.863-1.186-.851-1.2-.86-1.288-.923-1.1-.787-7.265-5.213Z" transform="translate(-58.614 -183.571)" fill="#fff"/><path d="M0,253.116l2.39,1.715v-6.8l2.39,1.715,3.606,2.587,4.768,3.421,2.383-1.711,2.644-1.9h0l2.383-1.711-2.383-1.711L15.8,250.434l-2.644,1.9h0l-2.384-1.712-5.989-4.3L3.5,245.408l-1.115-.8-1.062-.762L0,242.893Z" transform="translate(0 -238.42)" fill="#fff"/></g><path d="M103.722,95.925v10.218l-1.065-.764-1.325-.951-1.059-.76-1.426-1.024-5.839-4.189-2.176-1.562L88.309,98.7l-2.384,1.71L83.541,98.7l2.384-1.711,2.523-1.81,2.384-1.711,2.383,1.711,2.177,1.561,3.455,2.479,2.485,1.783v-6.8Z" transform="translate(-77.242 -86.426)" fill="#fff"/><path d="M21.6,6v3.42l-1.1-.79L18.327,7.07,15.942,5.359l-2.7-1.939L10.888,5.11,8.5,6.819,5.982,8.629l-1.2.863L3.6,10.34l-1.207.867v1.607l1.583,1.135.807.579,1.576,1.132,2.177,1.562L15.8,22.433l-2.383,1.709h0L6.149,18.93,4.78,17.949l-.807-.58h0L2.39,16.233l-.8-.574L0,14.519V9.5l1.214-.871L2.39,7.786,3.6,6.92,4.78,6.071,6.12,5.11,8.5,3.4l2.354-1.688L13.241,0l2.384,1.711,2.7,1.938L20.71,5.359Z" transform="translate(0)" fill="#fff"/></svg>