<svg xmlns="http://www.w3.org/2000/svg" width="1140.97" height="33.897" viewBox="0 0 1140.97 33.897"><g transform="translate(-390 -6542)"><g transform="translate(365.74 6536.495)"><path d="M31.272,22.556l-3.508,3.4-3.5-3.4,3.5-3.4Zm8.5-8.251,6.006,5.826,3.5-3.4L39.777,7.511l-9.511,9.221,3.5,3.4Zm12.015,4.853-3.5,3.4,3.5,3.4,3.5-3.4ZM39.777,30.807l-6.006-5.823-3.5,3.4L39.777,37.6l9.511-9.221-3.5-3.4Zm0-4.853,3.5-3.4-3.5-3.4-3.5,3.4Zm36.989.326v-.047c0-2.216-1.213-3.325-3.187-4.054a3.839,3.839,0,0,0,2.238-3.56v-.047c0-2.593-2.141-4.268-5.618-4.268H62.3v16.5h8.1c3.841,0,6.373-1.508,6.373-4.527ZM72.1,19.225c0,1.226-1.046,1.746-2.7,1.746H65.951V17.488h3.7c1.58,0,2.456.611,2.456,1.7Zm.949,6.6c0,1.226-1,1.79-2.653,1.79H65.951V23.993h4.326c1.922,0,2.774.685,2.774,1.793Zm11.588,4.979V14.3H80.877v16.5Zm20.128,0V14.3h-3.708V24.467L93.081,14.3H89.627v16.5h3.7V20.316l8.241,10.491Zm20.742,0L118.2,14.187h-3.454l-7.291,16.62h3.817l1.561-3.7h7.2l1.555,3.7ZM118.7,23.9h-4.536l2.262-5.35Zm24.655,6.908V14.3h-3.708V24.467L131.667,14.3h-3.45v16.5h3.693V20.316l8.244,10.491Zm19.329-2.663L160.3,25.81a6.242,6.242,0,0,1-4.476,1.931,4.963,4.963,0,0,1-4.935-5.185v-.047a4.956,4.956,0,0,1,4.935-5.138,6.4,6.4,0,0,1,4.354,1.861l2.374-2.663a8.92,8.92,0,0,0-6.709-2.546,8.52,8.52,0,0,0-8.875,8.525v.047A8.462,8.462,0,0,0,155.7,31.08a8.778,8.778,0,0,0,6.97-2.937Zm15.978,2.663V27.574H169.4V24.1h8.026V20.869H169.4V17.535h9.12V14.3h-12.84V30.8Z" fill="#7f94a7"/><path d="M324.966,18.946h-3.8V16.777h10.335v2.169h-3.8v9.331h-2.745Zm9.141,1.659a2.93,2.93,0,0,1,1.27-.969,4.951,4.951,0,0,1,1.864-.329v2.366c-.294-.022-.491-.033-.593-.033a2.447,2.447,0,0,0-1.779.624,2.417,2.417,0,0,0-.644,1.84v4.173h-2.643V19.438h2.525Zm12.939-1.167v8.838h-2.508V27.225a3.592,3.592,0,0,1-1.254.887,4.149,4.149,0,0,1-1.576.3,3.952,3.952,0,0,1-2.846-1,3.923,3.923,0,0,1-1.05-2.973V19.438h2.643v4.616q0,2.136,1.846,2.136a2.034,2.034,0,0,0,1.526-.592,2.51,2.51,0,0,0,.575-1.79v-4.37Zm4.5,8.97a9.4,9.4,0,0,1-2.22-.263,6.047,6.047,0,0,1-1.728-.69l.881-1.84a5.833,5.833,0,0,0,1.474.624,6.568,6.568,0,0,0,1.694.23q1.679,0,1.678-.805c0-.252-.153-.433-.457-.542a6.987,6.987,0,0,0-1.407-.279,13.982,13.982,0,0,1-1.847-.378,2.943,2.943,0,0,1-1.27-.756,2.126,2.126,0,0,1-.526-1.544,2.361,2.361,0,0,1,.492-1.478,3.237,3.237,0,0,1,1.457-1.018,6.471,6.471,0,0,1,2.27-.362,8.7,8.7,0,0,1,1.915.214,5.337,5.337,0,0,1,1.593.558l-.882,1.824a5.387,5.387,0,0,0-2.626-.657,2.742,2.742,0,0,0-1.27.23.676.676,0,0,0-.424.592.591.591,0,0,0,.457.575,8.356,8.356,0,0,0,1.457.312,14.678,14.678,0,0,1,1.83.394,2.7,2.7,0,0,1,1.237.739,2.081,2.081,0,0,1,.525,1.511,2.287,2.287,0,0,1-.508,1.462,3.3,3.3,0,0,1-1.491,1A6.864,6.864,0,0,1,351.545,28.408Zm10.8-.559a2.857,2.857,0,0,1-.966.427,5.177,5.177,0,0,1-1.186.131,3.65,3.65,0,0,1-2.524-.805,3.042,3.042,0,0,1-.881-2.365V21.607h-1.406V19.635h1.406V17.484h2.643v2.152h2.27v1.972h-2.27v3.6a1.236,1.236,0,0,0,.288.871,1.166,1.166,0,0,0,.847.3,1.737,1.737,0,0,0,1.068-.329ZM384.7,16.777l-3.88,11.5h-2.948l-2.609-7.787-2.694,7.787h-2.932l-3.9-11.5h2.847l2.677,8.083,2.8-8.083h2.541l2.711,8.148,2.762-8.148Zm3.328,2.53a4.813,4.813,0,0,1,3.253.986,3.653,3.653,0,0,1,1.135,2.94v5.043h-2.473v-1.1a2.979,2.979,0,0,1-2.779,1.232,4.491,4.491,0,0,1-1.83-.345,2.7,2.7,0,0,1-1.169-.953,2.426,2.426,0,0,1-.407-1.38,2.286,2.286,0,0,1,.949-1.938,5.038,5.038,0,0,1,2.965-.706h2.1a1.583,1.583,0,0,0-.525-1.281,2.333,2.333,0,0,0-1.576-.46,4.655,4.655,0,0,0-1.44.23,3.726,3.726,0,0,0-1.186.591l-.949-1.791a5.816,5.816,0,0,1,1.779-.788A8.327,8.327,0,0,1,388.032,19.307Zm-.2,7.376a2.409,2.409,0,0,0,1.2-.3,1.709,1.709,0,0,0,.745-.9v-.9h-1.813q-1.626,0-1.626,1.035a.942.942,0,0,0,.389.788A1.92,1.92,0,0,0,387.829,26.683Zm5.967-10.6h2.643V28.277H393.8Zm4.08,0h2.643V28.277h-2.643Zm13.009,7.8q0,.05-.051.69h-6.9a2.08,2.08,0,0,0,.881,1.3,2.988,2.988,0,0,0,1.729.476,3.656,3.656,0,0,0,1.253-.2,3.156,3.156,0,0,0,1.034-.657l1.406,1.478a4.8,4.8,0,0,1-3.761,1.429,6.182,6.182,0,0,1-2.728-.575,4.416,4.416,0,0,1-1.83-1.627,4.357,4.357,0,0,1-.644-2.349A4.357,4.357,0,0,1,403.65,19.9a5.537,5.537,0,0,1,4.914-.033,4.075,4.075,0,0,1,1.694,1.61A4.569,4.569,0,0,1,410.885,23.89Zm-4.727-2.645a2.321,2.321,0,0,0-1.508.493,2.082,2.082,0,0,0-.746,1.347h4.491a2.07,2.07,0,0,0-.746-1.331A2.25,2.25,0,0,0,406.158,21.246Zm11.35,6.6a2.875,2.875,0,0,1-.966.427,5.183,5.183,0,0,1-1.186.131,3.655,3.655,0,0,1-2.525-.805,3.046,3.046,0,0,1-.881-2.365V21.607h-1.406V19.635h1.406V17.484h2.644v2.152h2.27v1.972h-2.27v3.6a1.235,1.235,0,0,0,.287.871,1.168,1.168,0,0,0,.848.3,1.732,1.732,0,0,0,1.067-.329Z" fill="#7f94a7"/><path d="M301.848,5.505H290.364a11.564,11.564,0,0,0-11.739,11.381V28.021A11.564,11.564,0,0,0,290.364,39.4h11.484a11.564,11.564,0,0,0,11.739-11.381V16.887A11.564,11.564,0,0,0,301.848,5.505Z" fill="#7f94a7"/><path d="M279.96,22.7a16.253,16.253,0,0,1,32.491,0,16.253,16.253,0,0,1-32.491,0Z" fill="#7f94a7"/><path d="M296.215,12.175a1.108,1.108,0,0,1,.7.247,10.824,10.824,0,0,0,6.966,2.245l.447,0a1.11,1.11,0,0,1,1.11,1.128c-.1,6.171-.449,9.364-1.26,11.391-.9,2.257-2.349,3.017-4.179,3.979a27.664,27.664,0,0,0-3.149,1.861,1.11,1.11,0,0,1-1.268,0,27.706,27.706,0,0,0-3.145-1.859c-1.829-.962-3.274-1.722-4.175-3.979-.808-2.024-1.16-5.218-1.256-11.391a1.11,1.11,0,0,1,1.11-1.128l.444,0a10.6,10.6,0,0,0,6.957-2.245A1.108,1.108,0,0,1,296.215,12.175Zm6.981,4.7a14.451,14.451,0,0,1-2.855-.379,12.153,12.153,0,0,1-4.126-1.825,12.154,12.154,0,0,1-4.124,1.825,14.413,14.413,0,0,1-2.845.379c.113,5.086.433,7.871,1.077,9.485.6,1.5,1.449,1.944,3.146,2.837.767.4,1.69.889,2.745,1.575,1.057-.687,1.982-1.173,2.75-1.577,1.7-.893,2.552-1.341,3.15-2.838C302.761,24.744,303.083,21.96,303.2,16.877Z" fill="#07101a"/><path d="M660.184,23.16a30.389,30.389,0,0,0-2.7-1.42,9.583,9.583,0,0,1-1.7-1.009,1.629,1.629,0,0,1,.232-2.615c1.271-.822,3.391-.374,3.622,1.308a.081.081,0,0,0,.077.075h1.927a.082.082,0,0,0,.077-.075,3.787,3.787,0,0,0-1.426-2.765,4.516,4.516,0,0,0-2.736-.9c-5.087,0-5.549,5.23-2.813,6.874.308.187,3.006,1.494,3.969,2.092a1.874,1.874,0,0,1,.848,2.428,2.453,2.453,0,0,1-2.312,1.2,2.372,2.372,0,0,1-2.2-1.495,3.217,3.217,0,0,1-.077-.6.081.081,0,0,0-.077-.075h-2.081a.082.082,0,0,0-.077.075,3.281,3.281,0,0,0,1.387,3.026,5.1,5.1,0,0,0,3.122,1.009c2.851,0,4.315-1.569,4.624-3.176A3.783,3.783,0,0,0,660.184,23.16Z" fill="#7f94a7"/><path d="M569.358,16.061h-1.926a.134.134,0,0,0-.077.037l-1.734,5.492a.082.082,0,0,1-.155,0L563.732,16.1c0-.037-.038-.037-.077-.037H560.5a.082.082,0,0,0-.078.075v14.01a.082.082,0,0,0,.078.075h2.08a.081.081,0,0,0,.077-.075V19.5a.084.084,0,0,1,.155-.037l1.734,5.529.115.374c0,.037.039.037.077.037h1.619a.138.138,0,0,0,.077-.037l.115-.374,1.734-5.529c.039-.075.155-.075.155.037V30.146a.081.081,0,0,0,.077.075h2.081a.082.082,0,0,0,.077-.075V16.136a.082.082,0,0,0-.077-.075Z" fill="#7f94a7"/><path d="M628.162,16.061a.134.134,0,0,0-.077.037l-1.734,5.492a.081.081,0,0,1-.154,0L624.463,16.1c0-.037-.039-.037-.077-.037h-3.2a.082.082,0,0,0-.077.075v14.01a.082.082,0,0,0,.077.075h2.081a.081.081,0,0,0,.077-.075V19.5a.083.083,0,0,1,.154-.037l1.734,5.529.116.374c0,.037.038.037.077.037h1.618a.133.133,0,0,0,.077-.037l.116-.374,1.734-5.529c.039-.075.154-.075.154.037V30.146a.082.082,0,0,0,.077.075h2.081a.081.081,0,0,0,.077-.075V16.136a.081.081,0,0,0-.077-.075Z" fill="#7f94a7"/><path d="M601.188,16.061h-9.9a.081.081,0,0,0-.077.075v1.756a.081.081,0,0,0,.077.075H595.1v12.18a.082.082,0,0,0,.078.075h2.08a.082.082,0,0,0,.078-.075V17.967h3.814a.081.081,0,0,0,.077-.075V16.136C601.265,16.1,601.226,16.061,601.188,16.061Z" fill="#7f94a7"/><path d="M613.519,30.221h1.888c.038,0,.077-.037.077-.112l-3.93-14.048c0-.037-.039-.037-.078-.037H608.74a.138.138,0,0,0-.077.037l-3.93,14.048c0,.037.038.112.077.112H606.7a.134.134,0,0,0,.077-.037l1.156-4.11c0-.037.039-.037.077-.037h4.2a.138.138,0,0,1,.077.037l1.156,4.11A.134.134,0,0,0,613.519,30.221Zm-5.01-6.2,1.542-5.492a.081.081,0,0,1,.154,0l1.541,5.492c0,.037-.038.112-.077.112h-3.044A.121.121,0,0,1,608.509,24.019Z" fill="#7f94a7"/><path d="M645.965,30.221h1.888c.039,0,.077-.037.077-.112L644,16.061c0-.037-.039-.037-.078-.037h-2.735a.138.138,0,0,0-.078.037l-3.93,14.048c0,.037.038.112.077.112h1.888a.134.134,0,0,0,.077-.037l1.156-4.11c0-.037.039-.037.077-.037h4.2a.138.138,0,0,1,.077.037l1.156,4.11A.134.134,0,0,0,645.965,30.221Zm-5.01-6.2,1.542-5.492a.081.081,0,0,1,.154,0l1.541,5.492c0,.037-.038.112-.077.112h-3.044A.121.121,0,0,1,640.955,24.019Z" fill="#7f94a7"/><path d="M579.146,28.129V23.795a.082.082,0,0,1,.077-.075h5.588a.082.082,0,0,0,.077-.075V21.889a.082.082,0,0,0-.077-.075h-5.588a.082.082,0,0,1-.077-.075v-3.7a.082.082,0,0,1,.077-.075h6.32a.082.082,0,0,0,.077-.075V16.136a.082.082,0,0,0-.077-.075h-8.555a.082.082,0,0,0-.077.075v14.01a.082.082,0,0,0,.077.075h8.825a.082.082,0,0,0,.077-.075V28.316a.082.082,0,0,0-.077-.075h-6.628C579.185,28.2,579.146,28.166,579.146,28.129Z" fill="#7f94a7"/><path d="M679.3,30.072l-7.244-7.248a.068.068,0,0,1,0-.112l6.512-6.575a.071.071,0,0,0-.039-.112h-2.658c-.039,0-.039,0-.039.037l-5.549,5.6a.075.075,0,0,1-.116-.037V16.173a.081.081,0,0,0-.077-.075h-2.119a.081.081,0,0,0-.077.075v14.01a.081.081,0,0,0,.077.075h2.081a.082.082,0,0,0,.077-.075V24.019c0-.075.077-.112.115-.037l6.243,6.277.039.037h2.658C679.3,30.221,679.336,30.109,679.3,30.072Z" fill="#7f94a7"/><path d="M546.122,8.514,533.483,17.63l2.35-5.38Z" fill="#7f94a7"/><path d="M546.122,8.322a.193.193,0,0,1,.113.349L533.6,17.787a.193.193,0,0,1-.289-.233l2.35-5.38a.193.193,0,0,1,.111-.1l10.289-3.736A.192.192,0,0,1,546.122,8.322Zm-12.18,8.741,10.945-7.894-8.91,3.235Z" fill="#07101a"/><path d="M516.913,8.514l12.562,9.191L527.24,12.25Z" fill="#7f94a7"/><path d="M516.913,8.322a.192.192,0,0,1,.065.012l10.327,3.736a.193.193,0,0,1,.113.108l2.235,5.455a.193.193,0,0,1-.292.229L516.8,8.67a.193.193,0,0,1,.114-.348ZM527.094,12.4l-8.982-3.249,10.925,7.993Z" fill="#07101a"/><path d="M541.575,29.623l-3.391,5.006,7.244,1.943,2.043-6.837Z" fill="#7f94a7"/><path d="M541.575,29.43h0l5.9.112a.193.193,0,0,1,.181.248l-2.043,6.837a.193.193,0,0,1-.235.131l-7.244-1.943a.193.193,0,0,1-.11-.294l3.391-5.006A.193.193,0,0,1,541.575,29.43Zm5.639.493-5.538-.105-3.181,4.7,6.8,1.824Z" fill="#07101a"/><path d="M515.6,29.735l2.042,6.837,7.206-1.943L521.5,29.623Z" fill="#7f94a7"/><path d="M521.5,29.43a.193.193,0,0,1,.16.085l3.353,5.006a.193.193,0,0,1-.11.293L517.7,36.758a.193.193,0,0,1-.235-.131l-2.042-6.837a.193.193,0,0,1,.181-.248l5.895-.112Zm3.043,5.083-3.145-4.7-5.536.105,1.916,6.414Z" fill="#07101a"/><path d="M524.465,21.18l-2,2.951,7.129.3-.232-7.472Z" fill="#7f94a7"/><path d="M529.591,24.623h-.008l-7.129-.3a.193.193,0,0,1-.151-.3l2-2.951a.191.191,0,0,1,.034-.038l4.894-4.222a.193.193,0,0,1,.318.14l.232,7.472a.193.193,0,0,1-.193.2Zm-6.775-.67,6.576.276-.213-6.861-4.569,3.941Z" fill="#07101a"/><path d="M538.608,21.18l-4.971-4.3-.155,7.547,7.129-.3Z" fill="#7f94a7"/><path d="M533.482,24.623a.193.193,0,0,1-.193-.2l.155-7.547a.193.193,0,0,1,.319-.142l4.971,4.3a.192.192,0,0,1,.033.038l2,2.951a.193.193,0,0,1-.151.3l-7.129.3Zm.339-7.326-.142,6.932,6.578-.276-1.795-2.644Z" fill="#07101a"/><path d="M524.851,34.63l4.316-2.018-3.738-2.839Z" fill="#7f94a7"/><path d="M524.851,34.822a.193.193,0,0,1-.191-.215l.578-4.857a.193.193,0,0,1,.308-.131l3.738,2.839a.193.193,0,0,1-.035.328L524.933,34.8A.193.193,0,0,1,524.851,34.822Zm.73-4.693-.5,4.179,3.713-1.736Z" fill="#07101a"/><path d="M533.906,32.612l4.278,2.018-.578-4.857Z" fill="#7f94a7"/><path d="M538.184,34.822a.192.192,0,0,1-.082-.018l-4.278-2.017a.193.193,0,0,1-.035-.327l3.7-2.839a.193.193,0,0,1,.309.13l.578,4.857a.193.193,0,0,1-.191.215Zm-3.91-2.25,3.678,1.734-.5-4.175Z" fill="#07101a"/><path d="M538.184,34.629l-4.277-2.017.347,2.69-.039,1.158Z" fill="#7f94a7"/><path d="M534.215,36.653a.193.193,0,0,1-.193-.2l.038-1.143-.345-2.674a.193.193,0,0,1,.273-.2l4.277,2.017a.193.193,0,0,1,0,.349L534.3,36.635A.192.192,0,0,1,534.215,36.653Zm-.072-3.716.3,2.341a.19.19,0,0,1,0,.031l-.029.846,3.31-1.527Z" fill="#07101a"/><path d="M524.851,34.629l4.008,1.831L528.82,35.3l.347-2.69Z" fill="#7f94a7"/><path d="M528.859,36.653a.192.192,0,0,1-.08-.017L524.771,34.8a.193.193,0,0,1,0-.35l4.316-2.018a.193.193,0,0,1,.273.2l-.345,2.674.038,1.143a.193.193,0,0,1-.193.2Zm-3.549-2.025,3.346,1.528-.029-.847a.19.19,0,0,1,0-.031l.3-2.342Z" fill="#07101a"/><path d="M528.936,27.979l-3.584-1.009,2.505-1.121Z" fill="#7f94a7"/><path d="M528.936,28.172a.192.192,0,0,1-.052-.007L525.3,27.156a.193.193,0,0,1-.026-.361l2.505-1.121a.193.193,0,0,1,.251.089l1.079,2.13a.193.193,0,0,1-.172.28Zm-3.02-1.243,2.65.746-.8-1.574Z" fill="#07101a"/><path d="M534.138,27.979l1.04-2.13,2.544,1.121Z" fill="#7f94a7"/><path d="M534.138,28.172a.193.193,0,0,1-.173-.277l1.04-2.13a.193.193,0,0,1,.251-.092l2.544,1.121a.193.193,0,0,1-.026.362l-3.584,1.009A.192.192,0,0,1,534.138,28.172ZM535.27,26.1l-.77,1.577,2.653-.747Z" fill="#07101a"/><path d="M524.851,34.63l.617-5.007-3.969.112Z" fill="#7f94a7"/><path d="M524.851,34.822a.193.193,0,0,1-.159-.084l-3.352-4.894a.193.193,0,0,1,.154-.3l3.969-.112a.193.193,0,0,1,.2.216l-.617,5.007a.193.193,0,0,1-.191.169Zm-2.993-4.9,2.865,4.183.527-4.278Z" fill="#07101a"/><path d="M537.606,29.623l.578,5.007,3.391-4.894Z" fill="#7f94a7"/><path d="M537.606,29.43h.005l3.969.112a.193.193,0,0,1,.153.3l-3.391,4.894a.193.193,0,0,1-.35-.088l-.578-5.007a.193.193,0,0,1,.191-.215Zm3.608.487-3.391-.1.494,4.278Z" fill="#07101a"/><path d="M540.612,24.131l-7.129.3.655,3.549,1.04-2.13,2.543,1.121Z" fill="#7f94a7"/><path d="M540.612,23.939a.193.193,0,0,1,.135.33l-2.891,2.839a.193.193,0,0,1-.213.039L535.27,26.1l-.959,1.963a.193.193,0,0,1-.363-.05l-.655-3.549a.193.193,0,0,1,.181-.227l7.129-.3Zm-2.933,2.8,2.44-2.4-6.407.269.509,2.756.783-1.6a.193.193,0,0,1,.251-.092Z" fill="#07101a"/><path d="M525.352,26.97l2.505-1.121,1.079,2.129.655-3.549-7.129-.3Z" fill="#7f94a7"/><path d="M528.936,28.172a.193.193,0,0,1-.172-.106l-1-1.966-2.337,1.046a.193.193,0,0,1-.214-.038l-2.89-2.839a.193.193,0,0,1,.143-.33l7.129.3a.193.193,0,0,1,.181.227l-.655,3.549a.193.193,0,0,1-.162.156Zm-1.079-2.515a.193.193,0,0,1,.172.106l.821,1.621.511-2.77-6.407-.269,2.439,2.4,2.385-1.067A.192.192,0,0,1,527.857,25.657Z" fill="#07101a"/><path d="M522.462,24.131l2.967,5.641-.077-2.8Z" fill="#7f94a7"/><path d="M522.462,23.939a.192.192,0,0,1,.135.055l2.89,2.839a.192.192,0,0,1,.058.132l.077,2.8a.193.193,0,0,1-.363.095l-2.967-5.642a.193.193,0,0,1,.17-.282Zm2.7,3.115-1.955-1.921,2.007,3.817Z" fill="#07101a"/><path d="M537.722,26.971l-.116,2.8,3.006-5.641Z" fill="#7f94a7"/><path d="M537.606,29.965a.193.193,0,0,1-.193-.2l.116-2.8a.193.193,0,0,1,.057-.129l2.89-2.839a.193.193,0,0,1,.305.228l-3.006,5.642A.193.193,0,0,1,537.606,29.965Zm.305-2.911-.078,1.881,2.018-3.788Z" fill="#07101a"/><path d="M529.591,24.43l-.655,3.549.809,4.222.193-5.567Z" fill="#7f94a7"/><path d="M529.591,24.237h0a.193.193,0,0,1,.188.163l.347,2.2a.189.189,0,0,1,0,.037l-.193,5.567a.193.193,0,0,1-.382.03l-.809-4.222a.191.191,0,0,1,0-.071L529.4,24.4A.193.193,0,0,1,529.591,24.237Zm.154,2.409-.169-1.073-.444,2.405.48,2.5Z" fill="#07101a"/><path d="M533.483,24.43l-.347,2.2.154,5.567.848-4.222Z" fill="#7f94a7"/><path d="M533.483,24.237a.193.193,0,0,1,.189.158l.655,3.549a.193.193,0,0,1,0,.073l-.848,4.222a.193.193,0,0,1-.381-.033l-.154-5.567a.19.19,0,0,1,0-.035l.347-2.2a.193.193,0,0,1,.188-.163Zm.459,3.74-.444-2.4-.169,1.073.107,3.851Z" fill="#07101a"/><path d="M534.138,27.979,533.29,32.2l.617.411,3.7-2.839.116-2.8Z" fill="#7f94a7"/><path d="M537.722,26.778a.193.193,0,0,1,.193.2l-.116,2.8a.193.193,0,0,1-.075.145l-3.7,2.839a.193.193,0,0,1-.224.008l-.617-.411a.193.193,0,0,1-.082-.2l.848-4.222a.193.193,0,0,1,.137-.148l3.584-1.009A.192.192,0,0,1,537.722,26.778Zm-.3,2.9.1-2.447-3.215.9-.8,3.98.395.263Z" fill="#07101a"/><path d="M525.352,26.971l.077,2.8,3.738,2.839.578-.411-.809-4.222Z" fill="#7f94a7"/><path d="M525.352,26.778a.192.192,0,0,1,.052.007l3.584,1.009a.193.193,0,0,1,.137.149l.809,4.222a.193.193,0,0,1-.078.193l-.578.411a.193.193,0,0,1-.228,0l-3.738-2.839a.193.193,0,0,1-.076-.148l-.077-2.8a.193.193,0,0,1,.193-.2Zm3.417,1.355-3.217-.906.067,2.448,3.552,2.7.362-.257Z" fill="#07101a"/><path d="M534.215,36.46l.038-1.158-.346-.261h-4.779l-.308.261.039,1.158-4.008-1.831,1.387,1.121,2.852,1.905h4.855L536.8,35.75l1.387-1.121Z" fill="#7f94a7"/><path d="M533.945,37.848H529.09a.193.193,0,0,1-.107-.032l-2.852-1.905-.014-.01-1.387-1.121a.193.193,0,0,1,.2-.325l3.725,1.7-.029-.847a.193.193,0,0,1,.068-.153l.308-.262a.193.193,0,0,1,.125-.046h4.779a.193.193,0,0,1,.116.039l.346.261a.193.193,0,0,1,.076.16l-.028.846,3.685-1.7a.193.193,0,0,1,.2.325L536.918,35.9l-.014.01-2.852,1.905A.193.193,0,0,1,533.945,37.848Zm-4.8-.385h4.738l2.8-1.868.175-.141L534.3,36.635a.193.193,0,0,1-.273-.181l.035-1.058-.215-.162H529.2l-.183.155.036,1.065a.193.193,0,0,1-.273.182l-2.62-1.2.193.156Z" fill="#07101a"/><path d="M533.907,32.612l-.617-.411h-3.545l-.578.411-.347,2.69.309-.261h4.778l.347.261Z" fill="#7f94a7"/><path d="M529.745,32.008h3.545a.193.193,0,0,1,.107.032l.617.411a.193.193,0,0,1,.084.136l.347,2.69a.193.193,0,0,1-.307.179l-.3-.223H529.2l-.255.216a.193.193,0,0,1-.316-.172l.347-2.69a.193.193,0,0,1,.079-.132l.578-.411A.193.193,0,0,1,529.745,32.008Zm3.487.385h-3.425l-.459.327-.276,2.136a.193.193,0,0,1,.057-.009h4.778a.193.193,0,0,1,.1.027l-.277-2.151Z" fill="#07101a"/><path d="M546.662,18.228l1.079-5.044-1.619-4.67-12.215,8.817,4.7,3.848,6.628,1.868L546.7,21.4l-.616-.448,1-.9-.771-.6,1-.747Z" fill="#7f94a7"/><path d="M545.236,23.24a.192.192,0,0,1-.052-.007l-6.628-1.868a.193.193,0,0,1-.07-.036l-4.7-3.848a.193.193,0,0,1,.009-.305l12.215-8.817a.193.193,0,0,1,.295.093l1.619,4.67a.194.194,0,0,1,.006.1l-1.053,4.922.555.412a.193.193,0,0,1,0,.309l-.8.6.571.443a.193.193,0,0,1,.01.3l-.824.738.423.308a.193.193,0,0,1,.031.284l-1.464,1.644A.193.193,0,0,1,545.236,23.24ZM538.7,21.005l6.473,1.824,1.242-1.4-.444-.323a.193.193,0,0,1-.015-.3l.83-.742-.588-.456a.193.193,0,0,1,0-.307l.794-.592-.447-.331a.193.193,0,0,1-.074-.2l1.068-4.991-1.517-4.375-11.8,8.519Z" fill="#07101a"/><path d="M515.333,13.184l1.079,5.044-.694.486,1,.747-.77.6,1.04.9-.655.448,1.464,1.644,6.667-1.868,4.7-3.848L516.913,8.514Z" fill="#7f94a7"/><path d="M516.913,8.322a.193.193,0,0,1,.113.036l12.254,8.817a.193.193,0,0,1,.009.305l-4.7,3.848a.193.193,0,0,1-.07.036l-6.667,1.868a.193.193,0,0,1-.2-.057l-1.464-1.644a.193.193,0,0,1,.035-.287l.448-.307-.85-.733a.193.193,0,0,1,.008-.3l.57-.443-.8-.6a.193.193,0,0,1,0-.312l.589-.412-1.052-4.919a.193.193,0,0,1,.006-.1l1.58-4.67a.193.193,0,0,1,.182-.131Zm11.938,9.02L517.012,8.823,515.533,13.2l1.068,4.992a.193.193,0,0,1-.078.2l-.476.333.788.588a.193.193,0,0,1,0,.307l-.584.453.862.743a.193.193,0,0,1-.017.3l-.474.325,1.238,1.391L524.375,21Z" fill="#07101a"/><path d="M545.236,23.048l-6.628-1.868,2,2.951-3.006,5.642,3.969-.037h5.9Z" fill="#7f94a7"/><path d="M538.608,20.987a.192.192,0,0,1,.052.007l6.628,1.868a.193.193,0,0,1,.13.124l2.235,6.688a.193.193,0,0,1-.183.254h-5.9l-3.967.037h0a.193.193,0,0,1-.17-.283l2.951-5.539-1.939-2.855a.193.193,0,0,1,.159-.3Zm6.478,2.219-6.022-1.7,1.707,2.515a.193.193,0,0,1,.011.2l-2.853,5.355,3.645-.034h5.63Z" fill="#07101a"/><path d="M524.465,21.18,517.8,23.048l-2.2,6.688H521.5l3.931.037-2.967-5.642Z" fill="#7f94a7"/><path d="M524.465,20.987a.193.193,0,0,1,.159.3l-1.938,2.856,2.913,5.539a.193.193,0,0,1-.172.282l-3.931-.037H515.6a.193.193,0,0,1-.183-.253l2.2-6.688a.193.193,0,0,1,.131-.125l6.666-1.868A.193.193,0,0,1,524.465,20.987Zm.643,8.59-2.817-5.356a.193.193,0,0,1,.011-.2l1.707-2.516-6.06,1.7-2.081,6.337H521.5Z" fill="#07101a"/><path d="M533.483,24.43l.424-7.1,1.926-5.081H527.24l1.927,5.081.424,7.1.154,2.242V32.2h3.545V26.672Z" fill="#7f94a7"/><path d="M533.29,32.394h-3.545a.193.193,0,0,1-.193-.193V26.678l-.154-2.235-.422-7.071-1.917-5.054a.193.193,0,0,1,.18-.261h8.593a.193.193,0,0,1,.18.261L534.1,17.372l-.422,7.069v.005l-.192,2.233V32.2A.193.193,0,0,1,533.29,32.394Zm-3.352-.385h3.16V26.672q0-.008,0-.017l.193-2.239.424-7.1a.193.193,0,0,1,.012-.057l1.827-4.82h-8.035l1.828,4.82a.193.193,0,0,1,.012.057l.424,7.1.154,2.24s0,.009,0,.013Z" fill="#07101a"/><path d="M810.245,16.743a9.34,9.34,0,0,0-9.671,9.345c0,5.349,4.135,9.31,9.671,9.31s9.743-4.03,9.743-9.345C819.988,20.773,815.853,16.743,810.245,16.743Zm.035,14.8a5.256,5.256,0,0,1-5.357-5.454,5.235,5.235,0,0,1,5.321-5.489,5.291,5.291,0,0,1,5.392,5.489A5.255,5.255,0,0,1,810.28,31.542Zm10.893-10.735h2.7V35.051h4.314V17.09h-7.011ZM789.718,20.6a4.891,4.891,0,0,1,4.745,3.37h4.566c-.828-4.307-4.494-7.226-9.275-7.226a9.34,9.34,0,0,0-9.671,9.345c0,5.349,4.135,9.31,9.671,9.31a9.033,9.033,0,0,0,9.24-7.261h-4.53a4.845,4.845,0,0,1-4.71,3.405,5.2,5.2,0,0,1-5.32-5.454A5.184,5.184,0,0,1,789.718,20.6Zm113.421,3.752-3.163-.451c-1.51-.208-2.589-.694-2.589-1.841,0-1.251,1.4-1.875,3.308-1.875,2.085,0,3.415.868,3.7,2.292h4.17c-.468-3.613-3.344-5.732-7.765-5.732-4.566,0-7.586,2.258-7.586,5.454,0,3.057,1.978,4.83,5.968,5.385l3.163.451c1.547.208,2.409.8,2.409,1.911,0,1.424-1.509,2.015-3.594,2.015-2.553,0-3.991-1.007-4.207-2.536h-4.242c.4,3.509,3.235,5.975,8.412,5.975,4.71,0,7.837-2.085,7.837-5.663C908.963,26.54,906.7,24.873,903.139,24.352ZM826.027,9.691a2.643,2.643,0,1,0,2.769,2.64A2.631,2.631,0,0,0,826.027,9.691Zm63.308,13.548c0-3.89-2.445-6.5-7.621-6.5-4.889,0-7.621,2.4-8.161,6.08h4.278c.216-1.424,1.366-2.605,3.811-2.605,2.193,0,3.272.938,3.272,2.085,0,1.494-1.978,1.875-4.423,2.119-3.307.347-7.405,1.458-7.405,5.628,0,3.232,2.481,5.315,6.435,5.315,3.092,0,5.033-1.251,6.005-3.231a3.164,3.164,0,0,0,3.415,2.918h2.517V31.334h-2.122v-8.1Zm-4.244,4.517c0,2.4-2.156,4.169-4.781,4.169-1.619,0-2.985-.66-2.985-2.049,0-1.772,2.194-2.258,4.207-2.466,1.941-.174,3.02-.591,3.559-1.39Zm-22.9-11.013a7.618,7.618,0,0,0-5.86,2.606V9.517h-4.314V35.053h4.242V32.69a7.576,7.576,0,0,0,5.932,2.709,8.983,8.983,0,0,0,9.1-9.311A9.055,9.055,0,0,0,862.191,16.743Zm-.647,14.8a5.256,5.256,0,0,1-5.357-5.454A5.313,5.313,0,0,1,861.58,20.6a5.214,5.214,0,0,1,5.32,5.489A5.253,5.253,0,0,1,861.544,31.542ZM841.7,16.743a6.525,6.525,0,0,0-5.717,2.675V17.09h-4.278V35.051h4.313V25.289a4.37,4.37,0,0,1,4.458-4.69,3.856,3.856,0,0,1,4.026,4.169V35.053h4.314v-10.6C848.819,19.939,846.411,16.743,841.7,16.743ZM929.525,25.5c0-5.141-3.882-8.754-9.1-8.754a9.237,9.237,0,0,0-9.6,9.345c0,5.594,4.35,9.31,9.671,9.31,4.494,0,8.017-2.571,8.915-6.218h-4.494c-.647,1.6-2.229,2.5-4.351,2.5a5.123,5.123,0,0,1-5.32-4.586h14.272V25.5Zm-14.02-1.389a4.8,4.8,0,0,1,4.854-3.717,4.485,4.485,0,0,1,4.745,3.717Z" fill="#7f94a7"/><path d="M1035.79,25.494h-1.88c-1.13,0,2.71,5.228,5.49,5.815.63.122.94.426.94,1.013v3.83a.922.922,0,0,1-1.19.972,14.959,14.959,0,0,1-11.57-8.287,10.451,10.451,0,0,1-.84-2.087c-.4-1.2-.44-1.256-1.76-1.3a2.928,2.928,0,0,1-3.05-2.29,2.889,2.889,0,0,1,2.68-3.424,4.383,4.383,0,0,1,.73,0,1.2,1.2,0,0,0,1.34-.993,14.8,14.8,0,0,1,2.17-4.539c.82-1.155,1.23-1.2,2.26-.243.77.729,1.52,1.5,2.3,2.229a1.025,1.025,0,0,1,.18,1.54,5.928,5.928,0,0,0-.58.973c-.36.709-.17,1.013.65,1.013,1.42.02,2.82,0,4.26,0a2.959,2.959,0,0,1,2.97,2.371,2.726,2.726,0,0,1-1.69,3.08,9.171,9.171,0,0,1-2.49.3A6.884,6.884,0,0,1,1035.79,25.494Z" fill="#7f94a7"/><path d="M1042.06,7.967a14.835,14.835,0,0,1,12.2,7.153c1.03,1.6.73,3.08-.73,3.951a2.994,2.994,0,0,1-4.3-.973,9.236,9.236,0,0,0-6.36-4.316,9.382,9.382,0,0,0-6.43,1.175c-.88.527-1.15.466-1.88-.243l-2.34-2.269c-.67-.689-.65-1.155.14-1.722A16.373,16.373,0,0,1,1042.06,7.967Zm.21,26.26V32.282a.82.82,0,0,1,.73-.892,9.353,9.353,0,0,0,6.33-4.437,2.7,2.7,0,0,1,2.89-1.277,3.022,3.022,0,0,1,2.44,1.722,2.326,2.326,0,0,1-.08,2.087,14.974,14.974,0,0,1-11.1,7.6c-.82.1-1.19-.182-1.21-.973C1042.25,35.5,1042.27,34.875,1042.27,34.227Z" fill="#7f94a7"/><path d="M1065.34,16.7V29.81h-2.57V16.7h-4.18V14.613h10.89V16.7Z" fill="#7f94a7"/><path d="M1069.48,24.906a4.165,4.165,0,0,1,.44-2.026,4.937,4.937,0,0,1,1.21-1.7,5.282,5.282,0,0,1,1.8-1.114,5.993,5.993,0,0,1,4.28,0,5.287,5.287,0,0,1,3.03,6.95,4.938,4.938,0,0,1-1.21,1.7,5.725,5.725,0,0,1-4.01,1.56,5.926,5.926,0,0,1-2.14-.385,5.251,5.251,0,0,1-1.79-1.155,5.332,5.332,0,0,1-1.22-1.722A6.5,6.5,0,0,1,1069.48,24.906Zm8.75.041a3.145,3.145,0,0,0-.92-2.33,2.931,2.931,0,0,0-2.23-.932,3.157,3.157,0,0,0-2.24.932,3.379,3.379,0,0,0,0,4.64,3.14,3.14,0,0,0,4.33.142.934.934,0,0,0,.14-.142A3.131,3.131,0,0,0,1078.23,24.947Z" fill="#7f94a7"/><path d="M1083.17,29.85V13.742h2.32V24.076l4.26-4.093h2.86l-4.6,4.336,5.06,5.511h-3.03l-4.57-5.086V29.83h-2.32v.02Z" fill="#7f94a7"/><path d="M1093.3,24.906a4.283,4.283,0,0,1,.44-2.026,4.94,4.94,0,0,1,1.21-1.7,5.379,5.379,0,0,1,1.8-1.114,5.993,5.993,0,0,1,4.28,0,5.3,5.3,0,0,1,3.04,6.95,4.964,4.964,0,0,1-1.22,1.7,5.69,5.69,0,0,1-4.01,1.56,5.912,5.912,0,0,1-2.13-.385,5.2,5.2,0,0,1-1.8-1.155,5.3,5.3,0,0,1-1.21-1.722A6.016,6.016,0,0,1,1093.3,24.906Zm8.74.041a3.145,3.145,0,0,0-.92-2.33,2.968,2.968,0,0,0-2.24-.932,3.134,3.134,0,0,0-2.23.932,3.4,3.4,0,0,0,0,4.64,3.128,3.128,0,0,0,4.32.142.963.963,0,0,0,.15-.142A3.055,3.055,0,0,0,1102.04,24.947Z" fill="#7f94a7"/><path d="M1114.56,22.8a3.108,3.108,0,0,0-1.24-.851,3.581,3.581,0,0,0-1.52-.3,3.009,3.009,0,0,0-2.3.892,3.3,3.3,0,0,0-.86,2.371,3.448,3.448,0,0,0,.86,2.431,3.119,3.119,0,0,0,2.4.892,3.476,3.476,0,0,0,1.51-.3,3.265,3.265,0,0,0,1.15-.932v2.614a5.709,5.709,0,0,1-1.38.527,6.788,6.788,0,0,1-1.57.182,5.462,5.462,0,0,1-3.91-1.479,5.06,5.06,0,0,1-1.48-3.85,4.969,4.969,0,0,1,1.56-3.83,6.487,6.487,0,0,1,5.54-1.3,5.066,5.066,0,0,1,1.24.466Zm4.7-1.256a3.054,3.054,0,0,1,1-1.439,2.426,2.426,0,0,1,1.53-.466,5.061,5.061,0,0,1,.96.1,4.726,4.726,0,0,1,.94.344l-.84,1.9a1.914,1.914,0,0,0-.65-.3,2.022,2.022,0,0,0-.77-.1,1.773,1.773,0,0,0-1.67.892,6.338,6.338,0,0,0-.52,3.039V29.85h-2.32V19.983h2.32v1.56Z" fill="#7f94a7"/><path d="M1126.78,34.47h-2.4l2.8-5.491-3.74-9.017h2.59l1.86,5.086.29.932a6.455,6.455,0,0,1,.19.993,11.738,11.738,0,0,1,.67-1.641l.06-.122,2.51-5.248h2.53Zm8.59,0V19.983h2.32V21.6a2.916,2.916,0,0,1,1.3-1.439,4.289,4.289,0,0,1,2.13-.527,4.1,4.1,0,0,1,3.28,1.459,5.628,5.628,0,0,1,1.25,3.809,5.718,5.718,0,0,1-1.23,3.91,4.272,4.272,0,0,1-3.39,1.418,3.837,3.837,0,0,1-3.36-1.682V34.47Zm2.26-9.584a3.813,3.813,0,0,0,.77,2.452,2.66,2.66,0,0,0,2.07.912,2.546,2.546,0,0,0,2.05-.851,3.664,3.664,0,0,0,.73-2.431,3.6,3.6,0,0,0-.75-2.431,2.67,2.67,0,0,0-2.07-.892,2.5,2.5,0,0,0-2.05.871A3.607,3.607,0,0,0,1137.63,24.886Zm11.07,4.964V21.968h-1.77V19.983h1.77V16.254h2.32v3.728h1.78v1.986h-1.78V29.85Zm5.38-4.944a4.4,4.4,0,0,1,.43-2.026,5.336,5.336,0,0,1,2.99-2.816,6.02,6.02,0,0,1,4.29,0,5.726,5.726,0,0,1,3.01,2.9,5.1,5.1,0,0,1,.02,4.052,4.937,4.937,0,0,1-1.21,1.7,5.823,5.823,0,0,1-4.02,1.56,5.914,5.914,0,0,1-2.13-.385,5.5,5.5,0,0,1-3.01-2.877A5.517,5.517,0,0,1,1154.08,24.906Zm8.75.04a3.163,3.163,0,0,0-.94-2.33,2.946,2.946,0,0,0-2.23-.932,3.14,3.14,0,0,0-2.24.932,3.419,3.419,0,0,0,0,4.64,3.14,3.14,0,0,0,4.33.142.929.929,0,0,0,.14-.142A3.315,3.315,0,0,0,1162.83,24.947Z" fill="#7f94a7"/></g></g></svg>