<svg xmlns="http://www.w3.org/2000/svg" xmlns:xlink="http://www.w3.org/1999/xlink" width="1974" height="190.819" viewBox="0 0 1974 190.819"><defs><clipPath id="a"><rect width="1974" height="190.819" fill="none"/></clipPath><linearGradient id="b" x1="0.5" y1="1" x2="0.5" gradientUnits="objectBoundingBox"><stop offset="0" stop-color="#fff" stop-opacity="0"/><stop offset="1" stop-color="#00bf71"/></linearGradient><linearGradient id="e" x1="0.5" y1="1" x2="0.5" gradientUnits="objectBoundingBox"><stop offset="0" stop-color="#fff" stop-opacity="0"/><stop offset="1" stop-color="#ff5a5a"/></linearGradient></defs><g clip-path="url(#a)"><g transform="translate(579.5 -1015.5)"><g transform="translate(244.203 1015.5)"><g fill="#091723" stroke="rgba(255,255,255,0.07)" stroke-width="2"><rect width="380.049" height="190.024" rx="20" stroke="none"/><rect x="1" y="1" width="378.049" height="188.024" rx="19" fill="none"/></g><g transform="translate(221.946 25.481)"><path d="M.135,29.868H1.884l2.328-2.7V28.52H6.124l2.469-1.348,2.52,1.814,1.782-8.022,1.842,1.227V19.659l2.081,1.875,4.01-4.86h1.617l3.062-8.246,2.764,2.2v-2.2h2.671V5.554h5.481L40.736,0l9.922,8.428,5.817-2.874,2.739,5.9h3.1l2.109,6.237L65.7,14.423v6.541l7.541,2.164L79.078,11.45l2.511,9.513L82.956,9.971l3.282-1.01,2.456-5.174,4.789,1.767L97.634,0l3.324,3.787h6.1l4,2.5,2.411-4.664,7.419,5.957,1.451,5.119,4.988,6.959,4.617-13.371V35.362H0Z" transform="translate(0 0.16)" opacity="0.2" fill="url(#b)"/><path d="M0,29.738H1.747l2.325-2.684V28.4H5.983L8.45,27.054l2.517,1.806,1.78-7.987,1.841,1.222V19.574l2.079,1.867L20.674,16.6H22.29l3.059-8.21,2.762,2.187V8.391h2.669V5.53h5.476L40.564,0l9.913,8.391L56.288,5.53,59.025,11.4h3.1l2.107,6.21,1.272-3.25v6.513l7.534,2.154L78.87,11.4l2.509,9.472L82.745,9.928l3.279-1.006L88.478,3.77l4.784,1.76L97.409,0l3.321,3.77h6.095l3.992,2.49,2.409-4.644,7.412,5.931,1.45,5.1,4.984,6.929,4.613-13.313" transform="translate(0.257)" fill="none" stroke="#00bf71" stroke-linecap="round" stroke-linejoin="round" stroke-miterlimit="10" stroke-width="2"/></g><text transform="translate(82.291 36.852)" fill="#fff" font-size="13" font-family="Muli-SemiBold, Muli" font-weight="600"><tspan x="0" y="0">Google, Inc.</tspan></text><text transform="translate(26.252 129.5)" fill="#fff" font-size="16" font-family="Muli-Bold, Muli" font-weight="700"><tspan x="0" y="0">$861 809 233.23</tspan></text><text transform="translate(82.252 58.5)" fill="#7f94a7" font-size="12" font-family="Muli-Regular, Muli"><tspan x="0" y="0">24 pcs</tspan></text><text transform="translate(26.252 160.5)" fill="#7f94a7" font-size="12" font-family="Muli-Regular, Muli"><tspan x="0" y="0">Market Cap</tspan></text><text transform="translate(348.252 160.5)" fill="#7f94a7" font-size="12" font-family="Muli-Regular, Muli"><tspan x="-105.876" y="0">Price Change (24h)</tspan></text><text transform="translate(353.252 129.5)" fill="#00bf71" font-size="16" font-family="Muli-SemiBold, Muli" font-weight="600"><tspan x="-57.906" y="0">20.98%</tspan></text><path d="M6.969,2.982H0V4.969H6.969V7.951l3.967-3.975L6.969,0Z" transform="translate(276.529 129.801) rotate(-90)" fill="#00bf71"/><line x1="134.369" transform="translate(219.442 50.09)" fill="none" stroke="#07101a" stroke-width="1" stroke-dasharray="5"/><g transform="translate(25.84 20.275)"><g transform="translate(0 0)"><ellipse cx="21.5" cy="22" rx="21.5" ry="22" transform="translate(0.412 0.225)" fill="#f3f7f9"/><g transform="translate(11.926 11.926)"><path d="M21.736,12.438a11.66,11.66,0,0,0-.184-2.074H12v3.923h5.458a4.665,4.665,0,0,1-2.024,3.061v2.544h3.278a9.89,9.89,0,0,0,3.024-7.454Z" transform="translate(-1.859 -2.066)" fill="#4285f4"/><path d="M13.02,21.924a9.682,9.682,0,0,0,6.712-2.457l-3.278-2.544A6.118,6.118,0,0,1,7.345,13.71H3.957v2.628A10.137,10.137,0,0,0,13.02,21.924Z" transform="translate(-2.879 -1.642)" fill="#34a853"/><path d="M7.467,14.439a6,6,0,0,1,0-3.854V7.958H4.079a10.154,10.154,0,0,0,0,9.109Z" transform="translate(-3 -2.371)" fill="#fbbc05"/><path d="M13.02,7.033A5.478,5.478,0,0,1,16.9,8.55l2.909-2.909A9.746,9.746,0,0,0,13.02,3,10.137,10.137,0,0,0,3.957,8.587l3.388,2.628A6.044,6.044,0,0,1,13.02,7.033Z" transform="translate(-2.879 -3)" fill="#ea4335"/></g></g></g></g><g transform="translate(-167.648 1015.5)"><g fill="#091723" stroke="rgba(255,255,255,0.07)" stroke-width="2"><rect width="380.049" height="190.024" rx="20" stroke="none"/><rect x="1" y="1" width="378.049" height="188.024" rx="19" fill="none"/></g><g transform="translate(221.946 25.481)"><path d="M.135,29.868H1.884l2.328-2.7V28.52H6.124l2.469-1.348,2.52,1.814,1.782-8.022,1.842,1.227V19.659l2.081,1.875,4.01-4.86h1.617l3.062-8.246,2.764,2.2v-2.2h2.671V5.554h5.481L40.736,0l9.922,8.428,5.817-2.874,2.739,5.9h3.1l2.109,6.237L65.7,14.423v6.541l7.541,2.164L79.078,11.45l2.511,9.513L82.956,9.971l3.282-1.01,2.456-5.174,4.789,1.767L97.634,0l3.324,3.787h6.1l4,2.5,2.411-4.664,7.419,5.957,1.451,5.119,4.988,6.959,4.617-13.371V35.362H0Z" transform="translate(0 0.16)" opacity="0.2" fill="url(#b)"/><path d="M0,29.738H1.747l2.325-2.684V28.4H5.983L8.45,27.054l2.517,1.806,1.78-7.987,1.841,1.222V19.574l2.079,1.867L20.674,16.6H22.29l3.059-8.21,2.762,2.187V8.391h2.669V5.53h5.476L40.564,0l9.913,8.391L56.288,5.53,59.025,11.4h3.1l2.107,6.21,1.272-3.25v6.513l7.534,2.154L78.87,11.4l2.509,9.472L82.745,9.928l3.279-1.006L88.478,3.77l4.784,1.76L97.409,0l3.321,3.77h6.095l3.992,2.49,2.409-4.644,7.412,5.931,1.45,5.1,4.984,6.929,4.613-13.313" transform="translate(0.257)" fill="none" stroke="#00bf71" stroke-linecap="round" stroke-linejoin="round" stroke-miterlimit="10" stroke-width="2"/></g><text transform="translate(82.291 36.852)" fill="#fff" font-size="13" font-family="Muli-SemiBold, Muli" font-weight="600"><tspan x="0" y="0">Google, Inc.</tspan></text><text transform="translate(26.104 129.5)" fill="#fff" font-size="16" font-family="Muli-Bold, Muli" font-weight="700"><tspan x="0" y="0">$861 809 233.23</tspan></text><text transform="translate(82.104 58.5)" fill="rgba(127,148,167,0.8)" font-size="12" font-family="Muli-Regular, Muli"><tspan x="0" y="0">24 pcs</tspan></text><text transform="translate(26.104 160.5)" fill="rgba(127,148,167,0.8)" font-size="12" font-family="Muli-Regular, Muli"><tspan x="0" y="0">Market Cap</tspan></text><text transform="translate(348.104 160.5)" fill="rgba(127,148,167,0.8)" font-size="12" font-family="Muli-Regular, Muli"><tspan x="-105.876" y="0">Price Change (24h)</tspan></text><text transform="translate(353.104 129.5)" fill="#00bf71" font-size="16" font-family="Muli-SemiBold, Muli" font-weight="600"><tspan x="-57.906" y="0">20.98%</tspan></text><path d="M6.969,2.982H0V4.969H6.969V7.951l3.967-3.975L6.969,0Z" transform="translate(276.529 129.801) rotate(-90)" fill="#00bf71"/><line x1="134.369" transform="translate(219.442 50.09)" fill="none" stroke="#07101a" stroke-width="1" stroke-dasharray="5"/><g transform="translate(25.84 20.275)"><g transform="translate(0 0)"><ellipse cx="21.5" cy="22" rx="21.5" ry="22" transform="translate(0.264 0.225)" fill="#f3f7f9"/><g transform="translate(11.926 11.926)"><path d="M21.736,12.438a11.66,11.66,0,0,0-.184-2.074H12v3.923h5.458a4.665,4.665,0,0,1-2.024,3.061v2.544h3.278a9.89,9.89,0,0,0,3.024-7.454Z" transform="translate(-1.859 -2.066)" fill="#4285f4"/><path d="M13.02,21.924a9.682,9.682,0,0,0,6.712-2.457l-3.278-2.544A6.118,6.118,0,0,1,7.345,13.71H3.957v2.628A10.137,10.137,0,0,0,13.02,21.924Z" transform="translate(-2.879 -1.642)" fill="#34a853"/><path d="M7.467,14.439a6,6,0,0,1,0-3.854V7.958H4.079a10.154,10.154,0,0,0,0,9.109Z" transform="translate(-3 -2.371)" fill="#fbbc05"/><path d="M13.02,7.033A5.478,5.478,0,0,1,16.9,8.55l2.909-2.909A9.746,9.746,0,0,0,13.02,3,10.137,10.137,0,0,0,3.957,8.587l3.388,2.628A6.044,6.044,0,0,1,13.02,7.033Z" transform="translate(-2.879 -3)" fill="#ea4335"/></g></g></g></g><g transform="translate(-579.5 1015.5)"><g fill="#091723" stroke="rgba(255,255,255,0.07)" stroke-width="2"><rect width="380.049" height="190.024" rx="20" stroke="none"/><rect x="1" y="1" width="378.049" height="188.024" rx="19" fill="none"/></g><g transform="translate(221.946 25.481)"><path d="M.135,29.868H1.884l2.328-2.7V28.52H6.124l2.469-1.348,2.52,1.814,1.782-8.022,1.842,1.227V19.659l2.081,1.875,4.01-4.86h1.617l3.062-8.246,2.764,2.2v-2.2h2.671V5.554h5.481L40.736,0l9.922,8.428,5.817-2.874,2.739,5.9h3.1l2.109,6.237L65.7,14.423v6.541l7.541,2.164L79.078,11.45l2.511,9.513L82.956,9.971l3.282-1.01,2.456-5.174,4.789,1.767L97.634,0l3.324,3.787h6.1l4,2.5,2.411-4.664,7.419,5.957,1.451,5.119,4.988,6.959,4.617-13.371V35.362H0Z" transform="translate(0 0.16)" opacity="0.2" fill="url(#b)"/><path d="M0,29.738H1.747l2.325-2.684V28.4H5.983L8.45,27.054l2.517,1.806,1.78-7.987,1.841,1.222V19.574l2.079,1.867L20.674,16.6H22.29l3.059-8.21,2.762,2.187V8.391h2.669V5.53h5.476L40.564,0l9.913,8.391L56.288,5.53,59.025,11.4h3.1l2.107,6.21,1.272-3.25v6.513l7.534,2.154L78.87,11.4l2.509,9.472L82.745,9.928l3.279-1.006L88.478,3.77l4.784,1.76L97.409,0l3.321,3.77h6.095l3.992,2.49,2.409-4.644,7.412,5.931,1.45,5.1,4.984,6.929,4.613-13.313" transform="translate(0.257)" fill="none" stroke="#00bf71" stroke-linecap="round" stroke-linejoin="round" stroke-miterlimit="10" stroke-width="2"/></g><text transform="translate(82.291 36.852)" fill="#fff" font-size="13" font-family="Muli-SemiBold, Muli" font-weight="600"><tspan x="0" y="0">Google, Inc.</tspan></text><text transform="translate(25.955 129.5)" fill="#fff" font-size="16" font-family="Muli-Bold, Muli" font-weight="700"><tspan x="0" y="0">$861 809 233.23</tspan></text><text transform="translate(81.955 58.5)" fill="rgba(127,148,167,0.8)" font-size="12" font-family="Muli-Regular, Muli"><tspan x="0" y="0">24 pcs</tspan></text><text transform="translate(25.955 160.5)" fill="rgba(127,148,167,0.8)" font-size="12" font-family="Muli-Regular, Muli"><tspan x="0" y="0">Market Cap</tspan></text><text transform="translate(348.955 160.5)" fill="rgba(127,148,167,0.8)" font-size="12" font-family="Muli-Regular, Muli"><tspan x="-105.876" y="0">Price Change (24h)</tspan></text><text transform="translate(352.955 129.5)" fill="#00bf71" font-size="16" font-family="Muli-SemiBold, Muli" font-weight="600"><tspan x="-57.906" y="0">20.98%</tspan></text><path d="M6.969,2.982H0V4.969H6.969V7.951l3.967-3.975L6.969,0Z" transform="translate(276.529 129.801) rotate(-90)" fill="#00bf71"/><line x1="134.369" transform="translate(219.442 50.09)" fill="none" stroke="#07101a" stroke-width="1" stroke-dasharray="5"/><g transform="translate(25.84 20.275)"><g transform="translate(0 0)"><circle cx="22" cy="22" r="22" transform="translate(0.115 0.225)" fill="#f3f7f9"/><g transform="translate(11.926 11.926)"><path d="M21.736,12.438a11.66,11.66,0,0,0-.184-2.074H12v3.923h5.458a4.665,4.665,0,0,1-2.024,3.061v2.544h3.278a9.89,9.89,0,0,0,3.024-7.454Z" transform="translate(-1.859 -2.066)" fill="#4285f4"/><path d="M13.02,21.924a9.682,9.682,0,0,0,6.712-2.457l-3.278-2.544A6.118,6.118,0,0,1,7.345,13.71H3.957v2.628A10.137,10.137,0,0,0,13.02,21.924Z" transform="translate(-2.879 -1.642)" fill="#34a853"/><path d="M7.467,14.439a6,6,0,0,1,0-3.854V7.958H4.079a10.154,10.154,0,0,0,0,9.109Z" transform="translate(-3 -2.371)" fill="#fbbc05"/><path d="M13.02,7.033A5.478,5.478,0,0,1,16.9,8.55l2.909-2.909A9.746,9.746,0,0,0,13.02,3,10.137,10.137,0,0,0,3.957,8.587l3.388,2.628A6.044,6.044,0,0,1,13.02,7.033Z" transform="translate(-2.879 -3)" fill="#ea4335"/></g></g></g></g><g transform="translate(656.055 1016.295)"><g fill="#091723" stroke="rgba(255,255,255,0.07)" stroke-width="2"><rect width="380.049" height="190.024" rx="20" stroke="none"/><rect x="1" y="1" width="378.049" height="188.024" rx="19" fill="none"/></g><g transform="translate(221.946 25.481)"><path d="M.135,29.868H1.884l2.328-2.7V28.52H6.124l2.469-1.348,2.52,1.814,1.782-8.022,1.842,1.227V19.659l2.081,1.875,4.01-4.86h1.617l3.062-8.246,2.764,2.2v-2.2h2.671V5.554h5.481L40.736,0l9.922,8.428,5.817-2.874,2.739,5.9h3.1l2.109,6.237L65.7,14.423v6.541l7.541,2.164L79.078,11.45l2.511,9.513L82.956,9.971l3.282-1.01,2.456-5.174,4.789,1.767L97.634,0l3.324,3.787h6.1l4,2.5,2.411-4.664,7.419,5.957,1.451,5.119,4.988,6.959,4.617-13.371V35.362H0Z" transform="translate(0 0.16)" opacity="0.2" fill="url(#e)"/><path d="M0,29.738H1.747l2.325-2.684V28.4H5.983L8.45,27.054l2.517,1.806,1.78-7.987,1.841,1.222V19.574l2.079,1.867L20.674,16.6H22.29l3.059-8.21,2.762,2.187V8.391h2.669V5.53h5.476L40.564,0l9.913,8.391L56.288,5.53,59.025,11.4h3.1l2.107,6.21,1.272-3.25v6.513l7.534,2.154L78.87,11.4l2.509,9.472L82.745,9.928l3.279-1.006L88.478,3.77l4.784,1.76L97.409,0l3.321,3.77h6.095l3.992,2.49,2.409-4.644,7.412,5.931,1.45,5.1,4.984,6.929,4.613-13.313" transform="translate(0.257)" fill="none" stroke="#ff5a5a" stroke-linecap="round" stroke-linejoin="round" stroke-miterlimit="10" stroke-width="2"/></g><text transform="translate(82.291 36.852)" fill="#fff" font-size="13" font-family="Muli-SemiBold, Muli" font-weight="600"><tspan x="0" y="0">Bitcoin</tspan></text><text transform="translate(25.4 128.705)" fill="#fff" font-size="16" font-family="Muli-Bold, Muli" font-weight="700"><tspan x="0" y="0">$861 809 233.23</tspan></text><text transform="translate(82.4 58.705)" fill="rgba(127,148,167,0.8)" font-size="12" font-family="Muli-Regular, Muli"><tspan x="0" y="0">BTC/USD</tspan></text><text transform="translate(25.4 160.705)" fill="rgba(127,148,167,0.8)" font-size="12" font-family="Muli-Regular, Muli"><tspan x="0" y="0">Market Cap</tspan></text><text transform="translate(348.4 160.705)" fill="rgba(127,148,167,0.8)" font-size="12" font-family="Muli-Regular, Muli"><tspan x="-105.876" y="0">Price Change (24h)</tspan></text><text transform="translate(353.4 128.705)" fill="#ff5a5a" font-size="16" font-family="Muli-SemiBold, Muli" font-weight="600"><tspan x="-57.906" y="0">20.98%</tspan></text><path d="M6.969,2.982H0V4.969H6.969V7.951l3.967-3.975L6.969,0Z" transform="translate(284.48 118.865) rotate(90)" fill="#ff5a5a"/><line x1="134.369" transform="translate(219.442 50.09)" fill="none" stroke="#07101a" stroke-width="1" stroke-dasharray="5"/><g transform="translate(25.84 20.275)"><g transform="translate(0 0)"><ellipse cx="22" cy="21.5" rx="22" ry="21.5" transform="translate(-0.44 0.43)" fill="#f3f7f9"/><g transform="translate(13.693 11.926)"><path d="M23.44,14.154c.319-2.131-1.3-3.277-3.523-4.041l.72-2.888L18.88,6.788l-.7,2.811c-.462-.116-.935-.224-1.408-.331l.707-2.83L15.72,6,15,8.886c-.382-.087-.758-.173-1.122-.264l0-.009-2.424-.6-.468,1.877s1.3.3,1.277.317a.935.935,0,0,1,.818,1.023l-.819,3.289a1.563,1.563,0,0,1,.183.058l-.186-.046-1.149,4.608a.641.641,0,0,1-.806.417c.018.025-1.277-.318-1.277-.318l-.872,2.011,2.288.57c.425.107.842.219,1.252.323l-.727,2.92,1.756.437.72-2.888c.48.129.946.249,1.4.363l-.718,2.875,1.757.437.727-2.914c3,.567,5.25.339,6.2-2.372.765-2.182-.038-3.442-1.615-4.262a2.8,2.8,0,0,0,2.244-2.58Zm-4.016,5.631c-.542,2.183-4.217,1-5.409.707l.966-3.869C16.173,16.921,19.993,17.509,19.424,19.785Zm.544-5.662c-.5,1.986-3.553.976-4.545.729l.874-3.508c.991.247,4.187.708,3.67,2.779Z" transform="translate(-8.157 -6)" fill="#f7931a"/></g></g></g></g><g transform="translate(1067.907 1016.295)"><g transform="translate(0)" fill="#091723" stroke="rgba(255,255,255,0.07)" stroke-width="2"><rect width="380.049" height="190.024" rx="20" stroke="none"/><rect x="1" y="1" width="378.049" height="188.024" rx="19" fill="none"/></g><g transform="translate(221.946 25.481)"><path d="M.135,29.868H1.884l2.328-2.7V28.52H6.124l2.469-1.348,2.52,1.814,1.782-8.022,1.842,1.227V19.659l2.081,1.875,4.01-4.86h1.617l3.062-8.246,2.764,2.2v-2.2h2.671V5.554h5.481L40.736,0l9.922,8.428,5.817-2.874,2.739,5.9h3.1l2.109,6.237L65.7,14.423v6.541l7.541,2.164L79.078,11.45l2.511,9.513L82.956,9.971l3.282-1.01,2.456-5.174,4.789,1.767L97.634,0l3.324,3.787h6.1l4,2.5,2.411-4.664,7.419,5.957,1.451,5.119,4.988,6.959,4.617-13.371V35.362H0Z" transform="translate(0 0.16)" opacity="0.2" fill="url(#b)"/><path d="M0,29.738H1.747l2.325-2.684V28.4H5.983L8.45,27.054l2.517,1.806,1.78-7.987,1.841,1.222V19.574l2.079,1.867L20.674,16.6H22.29l3.059-8.21,2.762,2.187V8.391h2.669V5.53h5.476L40.564,0l9.913,8.391L56.288,5.53,59.025,11.4h3.1l2.107,6.21,1.272-3.25v6.513l7.534,2.154L78.87,11.4l2.509,9.472L82.745,9.928l3.279-1.006L88.478,3.77l4.784,1.76L97.409,0l3.321,3.77h6.095l3.992,2.49,2.409-4.644,7.412,5.931,1.45,5.1,4.984,6.929,4.613-13.313" transform="translate(0.257)" fill="none" stroke="#00bf71" stroke-linecap="round" stroke-linejoin="round" stroke-miterlimit="10" stroke-width="2"/></g><text transform="translate(82.291 36.852)" fill="#fff" font-size="13" font-family="Muli-SemiBold, Muli" font-weight="600"><tspan x="0" y="0">Google, Inc.</tspan></text><text transform="translate(25.548 128.705)" fill="#fff" font-size="16" font-family="Muli-Bold, Muli" font-weight="700"><tspan x="0" y="0">$861 809 233.23</tspan></text><text transform="translate(82.548 58.705)" fill="#7f94a7" font-size="12" font-family="Muli-Regular, Muli"><tspan x="0" y="0">24 pcs</tspan></text><text transform="translate(25.548 160.705)" fill="#7f94a7" font-size="12" font-family="Muli-Regular, Muli"><tspan x="0" y="0">Market Cap</tspan></text><text transform="translate(348.548 160.705)" fill="#7f94a7" font-size="12" font-family="Muli-Regular, Muli"><tspan x="-105.876" y="0">Price Change (24h)</tspan></text><text transform="translate(353.548 128.705)" fill="#00bf71" font-size="16" font-family="Muli-SemiBold, Muli" font-weight="600"><tspan x="-57.906" y="0">20.98%</tspan></text><path d="M6.969,2.982H0V4.969H6.969V7.951l3.967-3.975L6.969,0Z" transform="translate(276.529 129.801) rotate(-90)" fill="#00bf71"/><line x1="134.369" transform="translate(219.442 50.09)" fill="none" stroke="#07101a" stroke-width="1" stroke-dasharray="5"/><g transform="translate(25.84 20.275)"><g transform="translate(0 0)"><ellipse cx="22" cy="21.5" rx="22" ry="21.5" transform="translate(-0.292 0.43)" fill="#f3f7f9"/><g transform="translate(11.926 11.926)"><path d="M21.736,12.438a11.66,11.66,0,0,0-.184-2.074H12v3.923h5.458a4.665,4.665,0,0,1-2.024,3.061v2.544h3.278a9.89,9.89,0,0,0,3.024-7.454Z" transform="translate(-1.859 -2.066)" fill="#4285f4"/><path d="M13.02,21.924a9.682,9.682,0,0,0,6.712-2.457l-3.278-2.544A6.118,6.118,0,0,1,7.345,13.71H3.957v2.628A10.137,10.137,0,0,0,13.02,21.924Z" transform="translate(-2.879 -1.642)" fill="#34a853"/><path d="M7.467,14.439a6,6,0,0,1,0-3.854V7.958H4.079a10.154,10.154,0,0,0,0,9.109Z" transform="translate(-3 -2.371)" fill="#fbbc05"/><path d="M13.02,7.033A5.478,5.478,0,0,1,16.9,8.55l2.909-2.909A9.746,9.746,0,0,0,13.02,3,10.137,10.137,0,0,0,3.957,8.587l3.388,2.628A6.044,6.044,0,0,1,13.02,7.033Z" transform="translate(-2.879 -3)" fill="#ea4335"/></g></g></g></g></g></g></svg>